<svg xmlns="http://www.w3.org/2000/svg" viewBox="0 0 200 200" width="200" height="200"><defs><linearGradient id="bgm" x1="0" y1="0" x2="200" y2="200" gradientUnits="userSpaceOnUse"><stop offset="0" stop-color="#2A2118"/><stop offset="1" stop-color="#15120C"/></linearGradient><radialGradient id="glowm" cx="100" cy="100" r="72" gradientUnits="userSpaceOnUse"><stop offset="0" stop-color="#F5B33C" stop-opacity=".33"/><stop offset="1" stop-color="#F5B33C" stop-opacity="0"/></radialGradient><linearGradient id="g" x1="40" y1="24" x2="164" y2="182" gradientUnits="userSpaceOnUse"><stop offset="0" stop-color="#FFD97A"/><stop offset=".48" stop-color="#F5B33C"/><stop offset="1" stop-color="#E08A20"/></linearGradient><linearGradient id="gi" x1="100" y1="34" x2="100" y2="166" gradientUnits="userSpaceOnUse"><stop offset="0" stop-color="#fff" stop-opacity=".55"/><stop offset="1" stop-color="#fff" stop-opacity="0"/></linearGradient></defs><rect width="200" height="200" fill="url(#bgm)"/><circle cx="100" cy="100" r="72" fill="url(#glowm)"/><g transform="translate(37.00,37.00) scale(0.6300)"><path d="M100 8 C104 74 126 96 192 100 C126 104 104 126 100 192 C96 126 74 104 8 100 C74 96 96 74 100 8 Z" fill="url(#g)"/><path d="M100 46 C102 88 112 98 154 100 C112 102 102 112 100 154 C98 112 88 102 46 100 C88 98 98 88 100 46 Z" fill="url(#gi)"/></g></svg>