<svg xmlns="http://www.w3.org/2000/svg" viewBox="0 0 512 512" width="512" height="512">
<style>@media (prefers-color-scheme: dark){.ch-glass{fill:#FFF6E9;fill-opacity:.07}.ch-text{stroke:#FFF6E9}.ch-bg{fill:url(#bgDark)}.ch-dot{fill:#FFF6E9;opacity:.9}.ch-wash{opacity:.5}}</style><circle class="ch-dot" cx="314.26" cy="283.97" r="0.99" fill="#2A1A35" opacity="0.48"/><circle class="ch-dot" cx="137.31" cy="305.05" r="2.14" fill="#2A1A35" opacity="0.42"/><circle class="ch-dot" cx="93.83" cy="309.36" r="0.89" fill="#2A1A35" opacity="0.4"/><circle class="ch-dot" cx="261.91" cy="252.56" r="1.67" fill="#2A1A35" opacity="0.21"/><circle class="ch-dot" cx="6.37" cy="224.12" r="0.74" fill="#2A1A35" opacity="0.31"/><circle class="ch-dot" cx="15.5" cy="160.45" r="1.98" fill="#2A1A35" opacity="0.25"/><circle class="ch-dot" cx="147.53" cy="364.46" r="2.25" fill="#2A1A35" opacity="0.31"/><circle class="ch-dot" cx="231.46" cy="207.63" r="0.86" fill="#2A1A35" opacity="0.34"/><circle class="ch-dot" cx="304.52" cy="497.47" r="1.7" fill="#2A1A35" opacity="0.44"/><circle class="ch-dot" cx="32.09" cy="309.27" r="0.73" fill="#2A1A35" opacity="0.48"/><circle class="ch-dot" cx="440.21" cy="380.29" r="1.85" fill="#2A1A35" opacity="0.18"/><circle class="ch-dot" cx="162.6" cy="195.16" r="0.71" fill="#2A1A35" opacity="0.44"/><circle class="ch-dot" cx="291.36" cy="8.62" r="1.46" fill="#2A1A35" opacity="0.19"/><circle class="ch-dot" cx="43.32" cy="27.97" r="1.73" fill="#2A1A35" opacity="0.21"/><circle class="ch-dot" cx="418.56" cy="19.77" r="2.03" fill="#2A1A35" opacity="0.41"/><circle class="ch-dot" cx="376.41" cy="131.59" r="1.62" fill="#2A1A35" opacity="0.23"/><circle class="ch-dot" cx="163.97" cy="354.78" r="1.36" fill="#2A1A35" opacity="0.32"/><circle class="ch-dot" cx="354.87" cy="477.23" r="2.26" fill="#2A1A35" opacity="0.13"/><circle class="ch-dot" cx="401.83" cy="492.67" r="1.54" fill="#2A1A35" opacity="0.27"/><circle class="ch-dot" cx="68.16" cy="199.45" r="0.85" fill="#2A1A35" opacity="0.36"/><circle class="ch-dot" cx="361.1" cy="357.39" r="1.42" fill="#2A1A35" opacity="0.25"/><circle class="ch-dot" cx="126.86" cy="402.75" r="0.89" fill="#2A1A35" opacity="0.37"/><circle class="ch-dot" cx="294.52" cy="411.32" r="1.66" fill="#2A1A35" opacity="0.35"/><circle class="ch-dot" cx="394.28" cy="19.03" r="2.15" fill="#2A1A35" opacity="0.42"/><circle class="ch-dot" cx="28.78" cy="43.38" r="0.95" fill="#2A1A35" opacity="0.19"/><circle class="ch-dot" cx="274.12" cy="47.58" r="2.24" fill="#2A1A35" opacity="0.37"/><circle class="ch-dot" cx="97.6" cy="451.62" r="1.11" fill="#2A1A35" opacity="0.17"/><circle class="ch-dot" cx="443.03" cy="158.58" r="2.38" fill="#2A1A35" opacity="0.22"/><circle class="ch-dot" cx="445.7" cy="502.84" r="1.02" fill="#2A1A35" opacity="0.38"/><circle class="ch-dot" cx="207.56" cy="64.2" r="1.59" fill="#2A1A35" opacity="0.5"/><circle class="ch-dot" cx="288.57" cy="480.99" r="2.29" fill="#2A1A35" opacity="0.35"/><circle class="ch-dot" cx="59.57" cy="371.42" r="0.95" fill="#2A1A35" opacity="0.32"/><circle class="ch-dot" cx="136.71" cy="411.52" r="0.86" fill="#2A1A35" opacity="0.15"/><circle class="ch-dot" cx="111.58" cy="322.25" r="2.19" fill="#2A1A35" opacity="0.19"/><circle class="ch-dot" cx="397.04" cy="135.78" r="1.01" fill="#2A1A35" opacity="0.27"/><circle class="ch-dot" cx="239.18" cy="441.11" r="1.78" fill="#2A1A35" opacity="0.17"/><circle class="ch-dot" cx="230.51" cy="189.4" r="1.88" fill="#2A1A35" opacity="0.34"/><circle class="ch-dot" cx="170.79" cy="258.62" r="1.79" fill="#2A1A35" opacity="0.28"/><circle class="ch-dot" cx="374.86" cy="194.37" r="2.2" fill="#2A1A35" opacity="0.27"/><circle class="ch-dot" cx="59.58" cy="127.11" r="1.7" fill="#2A1A35" opacity="0.15"/><circle class="ch-dot" cx="271.37" cy="283.83" r="2.25" fill="#2A1A35" opacity="0.37"/><circle class="ch-dot" cx="450.27" cy="20.48" r="1.02" fill="#2A1A35" opacity="0.46"/><circle class="ch-dot" cx="229.55" cy="397.34" r="1.98" fill="#2A1A35" opacity="0.46"/><circle class="ch-dot" cx="454.15" cy="402.25" r="1.59" fill="#2A1A35" opacity="0.34"/><circle class="ch-dot" cx="208.37" cy="60.42" r="1.26" fill="#2A1A35" opacity="0.13"/><circle class="ch-dot" cx="468.66" cy="86.05" r="1.54" fill="#2A1A35" opacity="0.2"/><circle class="ch-dot" cx="306.45" cy="237.64" r="1.6" fill="#2A1A35" opacity="0.34"/><circle class="ch-dot" cx="222.48" cy="90.13" r="0.72" fill="#2A1A35" opacity="0.46"/><circle class="ch-dot" cx="327.07" cy="331.95" r="1.59" fill="#2A1A35" opacity="0.45"/><circle class="ch-dot" cx="493.6" cy="192.4" r="0.72" fill="#2A1A35" opacity="0.3"/><circle class="ch-dot" cx="39" cy="284.47" r="1.24" fill="#2A1A35" opacity="0.14"/><circle class="ch-dot" cx="207.26" cy="210.17" r="1.32" fill="#2A1A35" opacity="0.18"/><circle class="ch-dot" cx="343.09" cy="412.88" r="0.75" fill="#2A1A35" opacity="0.33"/><circle class="ch-dot" cx="197.84" cy="419.26" r="2.34" fill="#2A1A35" opacity="0.44"/><circle class="ch-dot" cx="166.91" cy="215.85" r="1.76" fill="#2A1A35" opacity="0.15"/><circle class="ch-dot" cx="115.89" cy="227.43" r="1.33" fill="#2A1A35" opacity="0.2"/><circle class="ch-dot" cx="92.05" cy="25.6" r="1.33" fill="#2A1A35" opacity="0.22"/><circle class="ch-dot" cx="261.09" cy="34.64" r="0.73" fill="#2A1A35" opacity="0.46"/><circle class="ch-dot" cx="433.76" cy="462.64" r="2.1" fill="#2A1A35" opacity="0.31"/><circle class="ch-dot" cx="63.12" cy="26.91" r="2.39" fill="#2A1A35" opacity="0.5"/><circle class="ch-dot" cx="276.87" cy="322.86" r="1.87" fill="#2A1A35" opacity="0.32"/><circle class="ch-dot" cx="132.75" cy="362.8" r="0.95" fill="#2A1A35" opacity="0.46"/><circle class="ch-dot" cx="18.03" cy="132.5" r="2.19" fill="#2A1A35" opacity="0.19"/><circle class="ch-dot" cx="381.59" cy="57.67" r="2.31" fill="#2A1A35" opacity="0.24"/><circle class="ch-dot" cx="51.08" cy="450.98" r="1.13" fill="#2A1A35" opacity="0.3"/><circle class="ch-dot" cx="194.48" cy="46.89" r="1.86" fill="#2A1A35" opacity="0.16"/><circle class="ch-dot" cx="453.14" cy="253.48" r="1.53" fill="#2A1A35" opacity="0.39"/><circle class="ch-dot" cx="141.5" cy="362.74" r="0.99" fill="#2A1A35" opacity="0.34"/><circle class="ch-dot" cx="452.35" cy="24.51" r="1.31" fill="#2A1A35" opacity="0.17"/><circle class="ch-dot" cx="449.92" cy="206.38" r="1.19" fill="#2A1A35" opacity="0.27"/><circle class="ch-dot" cx="253.34" cy="311.35" r="0.74" fill="#2A1A35" opacity="0.28"/><circle class="ch-dot" cx="511" cy="414.99" r="1.93" fill="#2A1A35" opacity="0.33"/><circle class="ch-dot" cx="304.67" cy="109.31" r="0.71" fill="#2A1A35" opacity="0.15"/><circle class="ch-dot" cx="193.21" cy="43.84" r="1.75" fill="#2A1A35" opacity="0.31"/><circle class="ch-dot" cx="229.05" cy="24.96" r="1.99" fill="#2A1A35" opacity="0.3"/><circle class="ch-dot" cx="32.4" cy="69.43" r="1.4" fill="#2A1A35" opacity="0.32"/><circle class="ch-dot" cx="126.73" cy="148.59" r="1.52" fill="#2A1A35" opacity="0.42"/><circle class="ch-dot" cx="110.16" cy="23.55" r="1.37" fill="#2A1A35" opacity="0.48"/><circle class="ch-dot" cx="390.61" cy="77.58" r="1.45" fill="#2A1A35" opacity="0.17"/><circle class="ch-dot" cx="411.5" cy="179.52" r="1.43" fill="#2A1A35" opacity="0.24"/><circle class="ch-dot" cx="191.86" cy="226.01" r="1.88" fill="#2A1A35" opacity="0.48"/><path class="ch-dot" d="M 31.92 475.59 L 34.25 479.73 L 38.39 482.06 L 34.25 484.39 L 31.92 488.53 L 29.59 484.39 L 25.45 482.06 L 29.59 479.73 Z" fill="#FFC24D" opacity="0.7"/><path class="ch-dot" d="M 438.83 256.97 L 440.13 259.29 L 442.45 260.59 L 440.13 261.89 L 438.83 264.21 L 437.53 261.89 L 435.21 260.59 L 437.53 259.29 Z" fill="#2A1A35" opacity="0.83"/><path class="ch-dot" d="M 6.57 294.21 L 9.14 298.77 L 13.7 301.34 L 9.14 303.91 L 6.57 308.47 L 4 303.91 L -0.56 301.34 L 4 298.77 Z" fill="#2A1A35" opacity="0.96"/><path class="ch-dot" d="M 302.36 111.95 L 304.67 116.05 L 308.77 118.36 L 304.67 120.67 L 302.36 124.77 L 300.05 120.67 L 295.95 118.36 L 300.05 116.05 Z" fill="#2A1A35" opacity="0.99"/><path class="ch-dot" d="M 230.84 214.81 L 233.16 218.93 L 237.28 221.25 L 233.16 223.57 L 230.84 227.69 L 228.52 223.57 L 224.4 221.25 L 228.52 218.93 Z" fill="#FFC24D" opacity="0.98"/><path class="ch-dot" d="M 24.25 323.84 L 26.69 328.19 L 31.04 330.63 L 26.69 333.07 L 24.25 337.42 L 21.81 333.07 L 17.46 330.63 L 21.81 328.19 Z" fill="#2A1A35" opacity="0.98"/><path class="ch-dot" d="M 402.16 197.76 L 404.07 201.16 L 407.47 203.07 L 404.07 204.98 L 402.16 208.38 L 400.25 204.98 L 396.85 203.07 L 400.25 201.16 Z" fill="#2A1A35" opacity="0.7"/><path class="ch-dot" d="M 456.96 314.28 L 458.15 316.39 L 460.26 317.58 L 458.15 318.77 L 456.96 320.88 L 455.77 318.77 L 453.66 317.58 L 455.77 316.39 Z" fill="#FFC24D" opacity="0.61"/><path class="ch-dot" d="M 462.52 133.91 L 465.01 138.35 L 469.45 140.84 L 465.01 143.33 L 462.52 147.77 L 460.03 143.33 L 455.59 140.84 L 460.03 138.35 Z" fill="#2A1A35" opacity="0.98"/>
</svg>
