<svg xmlns="http://www.w3.org/2000/svg" viewBox="0 0 512 512" width="512" height="512">
<g class="ch-cf" opacity="0.5" transform="translate(20.17 436.72) rotate(6) scale(1.56)" fill="#2A1A35">
    <ellipse cx="0" cy="4" rx="5.1" ry="4.3"/>
    <circle cx="-5.7" cy="-2.4" r="2.2"/><circle cx="-2" cy="-5.2" r="2.2"/>
    <circle cx="2" cy="-5.2" r="2.2"/><circle cx="5.7" cy="-2.4" r="2.2"/>
  </g><g class="ch-cf" opacity="0.5" transform="translate(510 397.09) rotate(310) scale(1.08)" fill="#2A1A35">
    <ellipse cx="0" cy="4" rx="5.1" ry="4.3"/>
    <circle cx="-5.7" cy="-2.4" r="2.2"/><circle cx="-2" cy="-5.2" r="2.2"/>
    <circle cx="2" cy="-5.2" r="2.2"/><circle cx="5.7" cy="-2.4" r="2.2"/>
  </g><g class="ch-cf" opacity="0.5" transform="translate(423.65 76.84) rotate(170) scale(1.23)" fill="#2A1A35">
    <ellipse cx="0" cy="4" rx="5.1" ry="4.3"/>
    <circle cx="-5.7" cy="-2.4" r="2.2"/><circle cx="-2" cy="-5.2" r="2.2"/>
    <circle cx="2" cy="-5.2" r="2.2"/><circle cx="5.7" cy="-2.4" r="2.2"/>
  </g><g class="ch-cf" opacity="0.5" transform="translate(146.8 202.18) rotate(190) scale(1.6)" fill="#2A1A35">
    <ellipse cx="0" cy="4" rx="5.1" ry="4.3"/>
    <circle cx="-5.7" cy="-2.4" r="2.2"/><circle cx="-2" cy="-5.2" r="2.2"/>
    <circle cx="2" cy="-5.2" r="2.2"/><circle cx="5.7" cy="-2.4" r="2.2"/>
  </g><g class="ch-cf" opacity="0.5" transform="translate(153.78 167.4) rotate(307) scale(2.09)" fill="#2A1A35">
    <ellipse cx="0" cy="4" rx="5.1" ry="4.3"/>
    <circle cx="-5.7" cy="-2.4" r="2.2"/><circle cx="-2" cy="-5.2" r="2.2"/>
    <circle cx="2" cy="-5.2" r="2.2"/><circle cx="5.7" cy="-2.4" r="2.2"/>
  </g><g class="ch-cf" opacity="0.5" transform="translate(368.85 188.64) rotate(123) scale(1.02)" fill="#2A1A35">
    <ellipse cx="0" cy="4" rx="5.1" ry="4.3"/>
    <circle cx="-5.7" cy="-2.4" r="2.2"/><circle cx="-2" cy="-5.2" r="2.2"/>
    <circle cx="2" cy="-5.2" r="2.2"/><circle cx="5.7" cy="-2.4" r="2.2"/>
  </g><g class="ch-cf" opacity="0.5" transform="translate(202.66 305.74) rotate(261) scale(2)" fill="#2A1A35">
    <ellipse cx="0" cy="4" rx="5.1" ry="4.3"/>
    <circle cx="-5.7" cy="-2.4" r="2.2"/><circle cx="-2" cy="-5.2" r="2.2"/>
    <circle cx="2" cy="-5.2" r="2.2"/><circle cx="5.7" cy="-2.4" r="2.2"/>
  </g><g class="ch-cf" opacity="0.5" transform="translate(362.71 43.14) rotate(125) scale(1.69)" fill="#2A1A35">
    <ellipse cx="0" cy="4" rx="5.1" ry="4.3"/>
    <circle cx="-5.7" cy="-2.4" r="2.2"/><circle cx="-2" cy="-5.2" r="2.2"/>
    <circle cx="2" cy="-5.2" r="2.2"/><circle cx="5.7" cy="-2.4" r="2.2"/>
  </g><g class="ch-cf" opacity="0.5" transform="translate(147.58 407.99) rotate(262) scale(1.6)" fill="#2A1A35">
    <ellipse cx="0" cy="4" rx="5.1" ry="4.3"/>
    <circle cx="-5.7" cy="-2.4" r="2.2"/><circle cx="-2" cy="-5.2" r="2.2"/>
    <circle cx="2" cy="-5.2" r="2.2"/><circle cx="5.7" cy="-2.4" r="2.2"/>
  </g><g class="ch-cf" opacity="0.5" transform="translate(205.14 22.81) rotate(224) scale(0.92)" fill="#2A1A35">
    <ellipse cx="0" cy="4" rx="5.1" ry="4.3"/>
    <circle cx="-5.7" cy="-2.4" r="2.2"/><circle cx="-2" cy="-5.2" r="2.2"/>
    <circle cx="2" cy="-5.2" r="2.2"/><circle cx="5.7" cy="-2.4" r="2.2"/>
  </g><g class="ch-cf" opacity="0.5" transform="translate(415.79 228.81) rotate(19) scale(1.57)" fill="#2A1A35">
    <ellipse cx="0" cy="4" rx="5.1" ry="4.3"/>
    <circle cx="-5.7" cy="-2.4" r="2.2"/><circle cx="-2" cy="-5.2" r="2.2"/>
    <circle cx="2" cy="-5.2" r="2.2"/><circle cx="5.7" cy="-2.4" r="2.2"/>
  </g><g class="ch-cf" opacity="0.5" transform="translate(17.2 261.19) rotate(305) scale(1.34)" fill="#2A1A35">
    <ellipse cx="0" cy="4" rx="5.1" ry="4.3"/>
    <circle cx="-5.7" cy="-2.4" r="2.2"/><circle cx="-2" cy="-5.2" r="2.2"/>
    <circle cx="2" cy="-5.2" r="2.2"/><circle cx="5.7" cy="-2.4" r="2.2"/>
  </g><g class="ch-cf" opacity="0.5" transform="translate(459.64 99.8) rotate(183) scale(1.33)" fill="#2A1A35">
    <ellipse cx="0" cy="4" rx="5.1" ry="4.3"/>
    <circle cx="-5.7" cy="-2.4" r="2.2"/><circle cx="-2" cy="-5.2" r="2.2"/>
    <circle cx="2" cy="-5.2" r="2.2"/><circle cx="5.7" cy="-2.4" r="2.2"/>
  </g><g class="ch-cf" opacity="0.5" transform="translate(132.04 448.31) rotate(183) scale(1.71)" fill="#2A1A35">
    <ellipse cx="0" cy="4" rx="5.1" ry="4.3"/>
    <circle cx="-5.7" cy="-2.4" r="2.2"/><circle cx="-2" cy="-5.2" r="2.2"/>
    <circle cx="2" cy="-5.2" r="2.2"/><circle cx="5.7" cy="-2.4" r="2.2"/>
  </g>
</svg>
