<svg xmlns="http://www.w3.org/2000/svg" viewBox="0 0 512 512" width="512" height="512">
<line class="ch-cs" x1="416.66" y1="418.64" x2="458.62" y2="418.99" stroke="#2A1A35" stroke-opacity="0.22" stroke-width="1"/><line class="ch-cs" x1="254.38" y1="286.94" x2="314.62" y2="276" stroke="#2A1A35" stroke-opacity="0.22" stroke-width="1"/><line class="ch-cs" x1="427.3" y1="509.9" x2="370.15" y2="463.62" stroke="#2A1A35" stroke-opacity="0.22" stroke-width="1"/><line class="ch-cs" x1="152.47" y1="7.12" x2="180.4" y2="17.16" stroke="#2A1A35" stroke-opacity="0.22" stroke-width="1"/><line class="ch-cs" x1="198.31" y1="378.19" x2="266.65" y2="428.06" stroke="#2A1A35" stroke-opacity="0.22" stroke-width="1"/><line class="ch-cs" x1="368.93" y1="342.97" x2="368.11" y2="328.56" stroke="#2A1A35" stroke-opacity="0.22" stroke-width="1"/><line class="ch-cs" x1="319.51" y1="114.67" x2="296.68" y2="188.43" stroke="#2A1A35" stroke-opacity="0.22" stroke-width="1"/><line class="ch-cs" x1="215.24" y1="97.26" x2="180.4" y2="17.16" stroke="#2A1A35" stroke-opacity="0.22" stroke-width="1"/><line class="ch-cs" x1="498.31" y1="236.26" x2="404.48" y2="175.27" stroke="#2A1A35" stroke-opacity="0.22" stroke-width="1"/><line class="ch-cs" x1="266.65" y1="428.06" x2="297.03" y2="477.01" stroke="#2A1A35" stroke-opacity="0.22" stroke-width="1"/><line class="ch-cs" x1="156.85" y1="242.43" x2="131.3" y2="314.94" stroke="#2A1A35" stroke-opacity="0.22" stroke-width="1"/><line class="ch-cs" x1="200.76" y1="466.94" x2="157.49" y2="505.08" stroke="#2A1A35" stroke-opacity="0.22" stroke-width="1"/><path class="ch-cf" d="M 416.66 412.64 L 418.86 416.44 L 422.66 418.64 L 418.86 420.84 L 416.66 424.64 L 414.46 420.84 L 410.66 418.64 L 414.46 416.44 Z" fill="#2A1A35" opacity="0.9"/><circle class="ch-cf" cx="254.38" cy="286.94" r="2.2" fill="#2A1A35" opacity="0.6"/><circle class="ch-cf" cx="427.3" cy="509.9" r="2.2" fill="#2A1A35" opacity="0.6"/><circle class="ch-cf" cx="314.62" cy="276" r="2.2" fill="#2A1A35" opacity="0.6"/><circle class="ch-cf" cx="152.47" cy="7.12" r="2.2" fill="#2A1A35" opacity="0.6"/><circle class="ch-cf" cx="198.31" cy="378.19" r="2.2" fill="#2A1A35" opacity="0.6"/><circle class="ch-cf" cx="368.93" cy="342.97" r="2.2" fill="#2A1A35" opacity="0.6"/><path class="ch-cf" d="M 312.86 337.45 L 315.06 341.25 L 318.86 343.45 L 315.06 345.65 L 312.86 349.45 L 310.66 345.65 L 306.86 343.45 L 310.66 341.25 Z" fill="#2A1A35" opacity="0.9"/><circle class="ch-cf" cx="458.62" cy="418.99" r="2.2" fill="#2A1A35" opacity="0.6"/><circle class="ch-cf" cx="319.51" cy="114.67" r="2.2" fill="#2A1A35" opacity="0.6"/><circle class="ch-cf" cx="215.24" cy="97.26" r="2.2" fill="#2A1A35" opacity="0.6"/><circle class="ch-cf" cx="370.15" cy="463.62" r="2.2" fill="#2A1A35" opacity="0.6"/><circle class="ch-cf" cx="498.31" cy="236.26" r="2.2" fill="#2A1A35" opacity="0.6"/><circle class="ch-cf" cx="486.93" cy="365.07" r="2.2" fill="#2A1A35" opacity="0.6"/><path class="ch-cf" d="M 454.92 -1.92 L 457.12 1.88 L 460.92 4.08 L 457.12 6.28 L 454.92 10.08 L 452.72 6.28 L 448.92 4.08 L 452.72 1.88 Z" fill="#2A1A35" opacity="0.9"/><circle class="ch-cf" cx="266.65" cy="428.06" r="2.2" fill="#2A1A35" opacity="0.6"/><circle class="ch-cf" cx="404.48" cy="175.27" r="2.2" fill="#2A1A35" opacity="0.6"/><circle class="ch-cf" cx="156.85" cy="242.43" r="2.2" fill="#2A1A35" opacity="0.6"/><circle class="ch-cf" cx="200.76" cy="466.94" r="2.2" fill="#2A1A35" opacity="0.6"/><circle class="ch-cf" cx="157.49" cy="505.08" r="2.2" fill="#2A1A35" opacity="0.6"/><circle class="ch-cf" cx="131.3" cy="314.94" r="2.2" fill="#2A1A35" opacity="0.6"/><path class="ch-cf" d="M 368.11 322.56 L 370.31 326.36 L 374.11 328.56 L 370.31 330.76 L 368.11 334.56 L 365.91 330.76 L 362.11 328.56 L 365.91 326.36 Z" fill="#2A1A35" opacity="0.9"/><circle class="ch-cf" cx="296.68" cy="188.43" r="2.2" fill="#2A1A35" opacity="0.6"/><circle class="ch-cf" cx="87.87" cy="94.67" r="2.2" fill="#2A1A35" opacity="0.6"/><circle class="ch-cf" cx="180.4" cy="17.16" r="2.2" fill="#2A1A35" opacity="0.6"/><circle class="ch-cf" cx="297.03" cy="477.01" r="2.2" fill="#2A1A35" opacity="0.6"/>
</svg>
