<svg xmlns="http://www.w3.org/2000/svg" viewBox="0 0 512 512" width="512" height="512">
<circle class="ch-dot" cx="204.62" cy="314.26" r="1.64" fill="#2A1A35" opacity="0.3"/><circle class="ch-dot" cx="483.09" cy="137.31" r="1.71" fill="#2A1A35" opacity="0.71"/><circle class="ch-dot" cx="399.11" cy="93.83" r="1.73" fill="#2A1A35" opacity="0.27"/><circle class="ch-dot" cx="375.49" cy="261.91" r="1.54" fill="#2A1A35" opacity="0.54"/><circle class="ch-dot" cx="119.12" cy="6.37" r="1.44" fill="#2A1A35" opacity="0.21"/><circle class="ch-dot" cx="258.81" cy="15.5" r="1.23" fill="#2A1A35" opacity="0.65"/><circle class="ch-dot" cx="176.02" cy="147.53" r="1.91" fill="#2A1A35" opacity="0.75"/><circle class="ch-dot" cx="248.63" cy="231.46" r="1.39" fill="#2A1A35" opacity="0.26"/><circle class="ch-dot" cx="287.28" cy="304.52" r="2.35" fill="#2A1A35" opacity="0.55"/><circle class="ch-dot" cx="434.83" cy="32.09" r="1.73" fill="#2A1A35" opacity="0.21"/><circle class="ch-dot" cx="302" cy="338.49" r="2.16" fill="#2A1A35" opacity="0.65"/><circle class="ch-dot" cx="347.69" cy="79.64" r="1.24" fill="#2A1A35" opacity="0.43"/><circle class="ch-dot" cx="3.16" cy="428.63" r="1.67" fill="#2A1A35" opacity="0.21"/><circle class="ch-dot" cx="227.46" cy="91.64" r="0.84" fill="#2A1A35" opacity="0.23"/><circle class="ch-dot" cx="310.64" cy="115.14" r="2.09" fill="#2A1A35" opacity="0.22"/><circle class="ch-dot" cx="401.86" cy="384.01" r="1.95" fill="#2A1A35" opacity="0.35"/><circle class="ch-dot" cx="276.05" cy="149.13" r="1.24" fill="#2A1A35" opacity="0.62"/><circle class="ch-dot" cx="199.8" cy="265.85" r="1.88" fill="#2A1A35" opacity="0.76"/><circle class="ch-dot" cx="470.59" cy="5.81" r="2.03" fill="#2A1A35" opacity="0.78"/><circle class="ch-dot" cx="254.13" cy="200.71" r="0.93" fill="#2A1A35" opacity="0.43"/><circle class="ch-dot" cx="423.29" cy="366.65" r="2.28" fill="#2A1A35" opacity="0.62"/><circle class="ch-dot" cx="357.39" cy="218.07" r="1.28" fill="#2A1A35" opacity="0.35"/><circle class="ch-dot" cx="402.75" cy="57.34" r="1.8" fill="#2A1A35" opacity="0.55"/><circle class="ch-dot" cx="411.32" cy="289.03" r="1.73" fill="#2A1A35" opacity="0.66"/><circle class="ch-dot" cx="19.03" cy="435.58" r="2.03" fill="#2A1A35" opacity="0.23"/><circle class="ch-dot" cx="43.38" cy="74.62" r="1.01" fill="#2A1A35" opacity="0.52"/><circle class="ch-dot" cx="47.58" cy="462.78" r="1.79" fill="#2A1A35" opacity="0.31"/><circle class="ch-dot" cx="451.62" cy="123.84" r="0.9" fill="#2A1A35" opacity="0.72"/><circle class="ch-dot" cx="158.58" cy="507.03" r="1.12" fill="#2A1A35" opacity="0.72"/><circle class="ch-dot" cx="502.84" cy="94.9" r="1.84" fill="#2A1A35" opacity="0.44"/><circle class="ch-dot" cx="118.36" cy="348.68" r="2.05" fill="#2A1A35" opacity="0.79"/><circle class="ch-dot" cx="288.57" cy="480.99" r="2.29" fill="#2A1A35" opacity="0.55"/><circle class="ch-dot" cx="59.57" cy="371.42" r="0.95" fill="#2A1A35" opacity="0.51"/><circle class="ch-dot" cx="136.71" cy="411.52" r="0.86" fill="#2A1A35" opacity="0.24"/><circle class="ch-dot" cx="111.58" cy="322.25" r="2.19" fill="#2A1A35" opacity="0.3"/><circle class="ch-dot" cx="397.04" cy="135.78" r="1.01" fill="#2A1A35" opacity="0.44"/><circle class="ch-dot" cx="239.18" cy="441.11" r="1.78" fill="#2A1A35" opacity="0.27"/><circle class="ch-dot" cx="230.51" cy="189.4" r="1.88" fill="#2A1A35" opacity="0.54"/><circle class="ch-dot" cx="170.79" cy="258.62" r="1.79" fill="#2A1A35" opacity="0.44"/><circle class="ch-dot" cx="374.86" cy="194.37" r="2.2" fill="#2A1A35" opacity="0.42"/><circle class="ch-dot" cx="230.84" cy="221.25" r="1.87" fill="#2A1A35" opacity="0.46"/><circle class="ch-dot" cx="495.41" cy="271.37" r="1.64" fill="#2A1A35" opacity="0.75"/><circle class="ch-dot" cx="336.12" cy="450.27" r="0.77" fill="#2A1A35" opacity="0.31"/><circle class="ch-dot" cx="463.44" cy="229.55" r="2.02" fill="#2A1A35" opacity="0.65"/><circle class="ch-dot" cx="455.08" cy="454.15" r="2.04" fill="#2A1A35" opacity="0.51"/><circle class="ch-dot" cx="298.46" cy="208.37" r="0.9" fill="#2A1A35" opacity="0.4"/><circle class="ch-dot" cx="11.21" cy="468.66" r="0.99" fill="#2A1A35" opacity="0.5"/><circle class="ch-dot" cx="105.46" cy="306.45" r="1.49" fill="#2A1A35" opacity="0.52"/><circle class="ch-dot" cx="286.94" cy="222.48" r="1" fill="#2A1A35" opacity="0.21"/><circle class="ch-dot" cx="459.64" cy="327.07" r="1.8" fill="#2A1A35" opacity="0.51"/><circle class="ch-dot" cx="238.5" cy="24.25" r="1.8" fill="#2A1A35" opacity="0.66"/><circle class="ch-dot" cx="449.65" cy="489.08" r="0.83" fill="#2A1A35" opacity="0.53"/><circle class="ch-dot" cx="163.06" cy="24.07" r="1.39" fill="#2A1A35" opacity="0.45"/><circle class="ch-dot" cx="185.97" cy="73.76" r="1.84" fill="#2A1A35" opacity="0.68"/><circle class="ch-dot" cx="15.49" cy="283.42" r="1.36" fill="#2A1A35" opacity="0.69"/><circle class="ch-dot" cx="493.64" cy="431.57" r="1.25" fill="#2A1A35" opacity="0.45"/><circle class="ch-dot" cx="318.01" cy="39.56" r="1.08" fill="#2A1A35" opacity="0.47"/><circle class="ch-dot" cx="189.93" cy="99.88" r="1.01" fill="#2A1A35" opacity="0.23"/><circle class="ch-dot" cx="189.19" cy="128" r="1.57" fill="#2A1A35" opacity="0.24"/><circle class="ch-dot" cx="8.8" cy="454.68" r="2.14" fill="#2A1A35" opacity="0.74"/><circle class="ch-dot" cx="509.23" cy="510.71" r="2.04" fill="#2A1A35" opacity="0.44"/><circle class="ch-dot" cx="236.37" cy="441.26" r="1.39" fill="#2A1A35" opacity="0.52"/><circle class="ch-dot" cx="322.86" cy="351.23" r="1.59" fill="#2A1A35" opacity="0.36"/><circle class="ch-dot" cx="362.8" cy="74.86" r="2.23" fill="#2A1A35" opacity="0.22"/><circle class="ch-dot" cx="132.5" cy="447.34" r="1.01" fill="#2A1A35" opacity="0.65"/><circle class="ch-dot" cx="57.67" cy="486.35" r="1.23" fill="#2A1A35" opacity="0.26"/><circle class="ch-dot" cx="450.98" cy="130.06" r="1.49" fill="#2A1A35" opacity="0.43"/><circle class="ch-dot" cx="46.89" cy="350.43" r="0.88" fill="#2A1A35" opacity="0.73"/><circle class="ch-dot" cx="253.48" cy="250.17" r="1.91" fill="#2A1A35" opacity="0.37"/><circle class="ch-dot" cx="362.74" cy="87.62" r="1.67" fill="#2A1A35" opacity="0.73"/><circle class="ch-dot" cx="206.38" cy="146.57" r="1.36" fill="#2A1A35" opacity="0.74"/><circle class="ch-dot" cx="317.58" cy="30.68" r="1.47" fill="#2A1A35" opacity="0.33"/><circle class="ch-dot" cx="253.34" cy="311.35" r="0.74" fill="#2A1A35" opacity="0.45"/><circle class="ch-dot" cx="511" cy="414.99" r="1.93" fill="#2A1A35" opacity="0.53"/><circle class="ch-dot" cx="304.67" cy="109.31" r="0.71" fill="#2A1A35" opacity="0.25"/><circle class="ch-dot" cx="193.21" cy="43.84" r="1.75" fill="#2A1A35" opacity="0.5"/><circle class="ch-dot" cx="229.05" cy="24.96" r="1.99" fill="#2A1A35" opacity="0.48"/><circle class="ch-dot" cx="32.4" cy="69.43" r="1.4" fill="#2A1A35" opacity="0.52"/><circle class="ch-dot" cx="126.73" cy="148.59" r="1.52" fill="#2A1A35" opacity="0.68"/><circle class="ch-dot" cx="110.16" cy="23.55" r="1.37" fill="#2A1A35" opacity="0.77"/><circle class="ch-dot" cx="411.5" cy="179.52" r="1.43" fill="#2A1A35" opacity="0.39"/><path class="ch-dot" d="M 31.92 475.59 L 34.25 479.73 L 38.39 482.06 L 34.25 484.39 L 31.92 488.53 L 29.59 484.39 L 25.45 482.06 L 29.59 479.73 Z" fill="#2A1A35" opacity="0.66"/><path class="ch-dot" d="M 486.95 433.29 L 488.94 436.84 L 492.49 438.83 L 488.94 440.82 L 486.95 444.37 L 484.96 440.82 L 481.41 438.83 L 484.96 436.84 Z" fill="#2A1A35" opacity="0.56"/><path class="ch-dot" d="M 44.83 323.33 L 45.93 325.29 L 47.89 326.39 L 45.93 327.49 L 44.83 329.45 L 43.73 327.49 L 41.77 326.39 L 43.73 325.29 Z" fill="#2A1A35" opacity="0.79"/><path class="ch-dot" d="M 64.2 259.06 L 67.07 264.15 L 72.16 267.02 L 67.07 269.89 L 64.2 274.98 L 61.33 269.89 L 56.24 267.02 L 61.33 264.15 Z" fill="#2A1A35" opacity="0.8"/><path class="ch-dot" d="M 59.58 121.16 L 61.72 124.97 L 65.53 127.11 L 61.72 129.25 L 59.58 133.06 L 57.44 129.25 L 53.63 127.11 L 57.44 124.97 Z" fill="#2A1A35" opacity="0.53"/><path class="ch-dot" d="M 447.17 488.72 L 448.93 491.84 L 452.05 493.6 L 448.93 495.36 L 447.17 498.48 L 445.41 495.36 L 442.29 493.6 L 445.41 491.84 Z" fill="#2A1A35" opacity="0.51"/><path class="ch-dot" d="M 422.33 255.1 L 423.63 257.42 L 425.95 258.72 L 423.63 260.02 L 422.33 262.34 L 421.03 260.02 L 418.71 258.72 L 421.03 257.42 Z" fill="#2A1A35" opacity="0.53"/><path class="ch-dot" d="M 24.51 180.14 L 25.78 182.41 L 28.05 183.68 L 25.78 184.95 L 24.51 187.22 L 23.24 184.95 L 20.97 183.68 L 23.24 182.41 Z" fill="#2A1A35" opacity="0.94"/><path class="ch-dot" d="M 390.61 72.38 L 392.48 75.71 L 395.81 77.58 L 392.48 79.45 L 390.61 82.78 L 388.74 79.45 L 385.41 77.58 L 388.74 75.71 Z" fill="#2A1A35" opacity="0.56"/>
</svg>
