<svg width="512" height="512" viewBox="0 0 200 200" fill="none" xmlns="http://www.w3.org/2000/svg" role="img" aria-label="Stella logomark">
  <defs>
    <linearGradient id="stellaGold" x1="40" y1="24" x2="164" y2="182" gradientUnits="userSpaceOnUse">
      <stop offset="0" stop-color="#FFD97A"/>
      <stop offset="0.48" stop-color="#F5B33C"/>
      <stop offset="1" stop-color="#E08A20"/>
    </linearGradient>
    <linearGradient id="stellaInner" x1="100" y1="34" x2="100" y2="166" gradientUnits="userSpaceOnUse">
      <stop offset="0" stop-color="#FFFFFF" stop-opacity="0.55"/>
      <stop offset="1" stop-color="#FFFFFF" stop-opacity="0"/>
    </linearGradient>
  </defs>
  <!-- Four-point celestial star: elongated, concave geometric edges -->
  <path d="M100 8
           C104 74 126 96 192 100
           C126 104 104 126 100 192
           C96 126 74 104 8 100
           C74 96 96 74 100 8 Z"
        fill="url(#stellaGold)"/>
  <!-- Inner facet for depth -->
  <path d="M100 46
           C102 88 112 98 154 100
           C112 102 102 112 100 154
           C98 112 88 102 46 100
           C88 98 98 88 100 46 Z"
        fill="url(#stellaInner)"/>
</svg>
