<svg xmlns="http://www.w3.org/2000/svg" viewBox="0 0 9474.80 1549.00" role="img" aria-label="STELLA"><g fill="#FBF7EF" transform="translate(-139.00,1520.00) scale(1,-1)"><path transform="translate(0.00,0)" d="M1012 1442V1237Q920 1296 827.5 1326.0Q735 1356 641 1356Q498 1356 415.0 1289.5Q332 1223 332 1110Q332 1011 386.5 959.0Q441 907 590 872L696 848Q906 799 1002.0 694.0Q1098 589 1098 408Q1098 195 966.0 83.0Q834 -29 582 -29Q477 -29 371.0 -6.5Q265 16 158 61V276Q273 203 375.5 169.0Q478 135 582 135Q735 135 820.0 203.5Q905 272 905 395Q905 507 846.5 566.0Q788 625 643 657L535 682Q327 729 233.0 824.0Q139 919 139 1079Q139 1279 273.5 1399.5Q408 1520 631 1520Q717 1520 812.0 1500.5Q907 1481 1012 1442Z"/><path transform="translate(1683.56,0)" d="M47 1493H1186V1323H719V0H516V1323H47Z"/><path transform="translate(3367.12,0)" d="M197 1493H1083V1323H399V881H1053V711H399V170H1102V0H197Z"/><path transform="translate(5050.68,0)" d="M215 1493H418V170H1139V0H215Z"/><path transform="translate(6734.24,0)" d="M215 1493H418V170H1139V0H215Z"/><path transform="translate(8417.80,0)" d="M616 1315 403 551H829ZM494 1493H739L1196 0H987L877 389H354L246 0H37Z"/></g></svg>