<svg xmlns="http://www.w3.org/2000/svg" viewBox="0 0 120 120" width="64" height="64">
<defs><linearGradient id="nebula" x1="20" y1="23" x2="100" y2="103" gradientUnits="userSpaceOnUse"><stop offset="0" stop-color="#FF6D4D"/><stop offset=".55" stop-color="#F5487F"/><stop offset="1" stop-color="#A24BEA"/></linearGradient></defs>
  <line x1="60" y1="20" x2="60" y2="12" stroke="url(#nebula)" stroke-width="4" stroke-linecap="round"/>
  <circle cx="60" cy="9.5" r="3.4" fill="#FFC24D"/>
  <rect x="40" y="94" width="40" height="16" rx="7" fill="url(#nebula)"/>
  <circle class="ch-glass" cx="60" cy="63" r="40" fill="#241833" fill-opacity="1"/>
  <g fill="#DE8F55">
    <rect x="34.5" y="40" width="14" height="37" rx="7" transform="rotate(16 41.5 58)"/>
    <rect x="71.5" y="40" width="14" height="37" rx="7" transform="rotate(-16 78.5 58)"/>
  </g>
  <circle cx="60" cy="64" r="24" fill="#F2BD79"/>
  <ellipse cx="60" cy="71.5" rx="12.5" ry="10" fill="#F9EDDC"/>
  <circle cx="51" cy="60" r="4" fill="#2A1A35"/>
  <circle cx="69" cy="60" r="4" fill="#2A1A35"/>
  <ellipse cx="60" cy="69.5" rx="5.4" ry="4.2" fill="#2A1A35"/>
  <path class="" d="M60 72.5 L60 76.5 M60 76.5 C57 79.6 54 78.6 53 76.4 M60 76.5 C63 79.6 66 78.6 67 76.4" fill="none" stroke="#2A1A35" stroke-width="2.4" stroke-linecap="round"/>
  <path d="M31 43 A 34 34 0 0 1 46 29" fill="none" stroke="#FFF6E9" stroke-opacity="0.4" stroke-width="4" stroke-linecap="round"/>
  <circle cx="60" cy="63" r="40" fill="none" stroke="url(#nebula)" stroke-width="7"/>
  <path d="M 75.5 27 L 78.74 32.76 L 84.5 36 L 78.74 39.24 L 75.5 45 L 72.26 39.24 L 66.5 36 L 72.26 32.76 Z" fill="#FFC24D"/>
  
</svg>
