<svg xmlns="http://www.w3.org/2000/svg" viewBox="0 0 1320 2868" width="1320" height="2868">
<style>@media (prefers-color-scheme: dark){.ch-glass{fill:#FFF6E9;fill-opacity:.07}.ch-text{stroke:#FFF6E9}.ch-bg{fill:url(#bgDark)}.ch-dot{fill:#FFF6E9;opacity:.9}.ch-wash{opacity:.5}}</style><defs>
    <linearGradient id="nebula" x1="20" y1="23" x2="100" y2="103" gradientUnits="userSpaceOnUse"><stop offset="0" stop-color="#FF6D4D"/><stop offset=".55" stop-color="#F5487F"/><stop offset="1" stop-color="#A24BEA"/></linearGradient>
    <linearGradient id="bgLight" x1="0" y1="0" x2="0" y2="2868" gradientUnits="userSpaceOnUse"><stop offset="0" stop-color="#FFFAF0"/><stop offset="1" stop-color="#F9F0E1"/></linearGradient>
    <linearGradient id="bgDark" x1="0" y1="0" x2="0" y2="2868" gradientUnits="userSpaceOnUse"><stop offset="0" stop-color="#0E0916"/><stop offset="1" stop-color="#171021"/></linearGradient>
    <radialGradient id="spWash1" cx="0.15" cy="0.1" r="0.8"><stop offset="0" stop-color="#FF6D4D" stop-opacity=".26"/><stop offset="1" stop-color="#FF6D4D" stop-opacity="0"/></radialGradient>
    <radialGradient id="spWash2" cx="0.9" cy="0.95" r="0.9"><stop offset="0" stop-color="#A24BEA" stop-opacity=".3"/><stop offset="1" stop-color="#A24BEA" stop-opacity="0"/></radialGradient>
    <radialGradient id="spWash3" cx="0.85" cy="0.12" r="0.6"><stop offset="0" stop-color="#F5487F" stop-opacity=".18"/><stop offset="1" stop-color="#F5487F" stop-opacity="0"/></radialGradient>
  </defs><rect class="ch-bg" width="1320" height="2868" fill="url(#bgLight)"/><g class="ch-wash" opacity="0.35">
    <rect width="1320" height="2868" fill="url(#spWash1)"/>
    <rect width="1320" height="2868" fill="url(#spWash2)"/>
    <rect width="1320" height="2868" fill="url(#spWash3)"/>
  </g><g><circle class="ch-dot" cx="1165.41" cy="1482.9" r="1.83" fill="#2A1A35" opacity="0.21"/><circle class="ch-dot" cx="755.14" cy="1724.15" r="1.86" fill="#2A1A35" opacity="0.34"/><circle class="ch-dot" cx="810" cy="1089.11" r="2.33" fill="#2A1A35" opacity="0.29"/><circle class="ch-dot" cx="294.38" cy="1199.08" r="0.79" fill="#2A1A35" opacity="0.11"/><circle class="ch-dot" cx="1056.9" cy="1663.01" r="2.1" fill="#2A1A35" opacity="0.15"/><circle class="ch-dot" cx="214.85" cy="1478.35" r="0.85" fill="#2A1A35" opacity="0.2"/><circle class="ch-dot" cx="966.6" cy="1537.45" r="2.38" fill="#2A1A35" opacity="0.17"/><circle class="ch-dot" cx="639.21" cy="299.05" r="0.94" fill="#2A1A35" opacity="0.1"/><circle class="ch-dot" cx="160.79" cy="509.95" r="2.35" fill="#2A1A35" opacity="0.25"/><circle class="ch-dot" cx="1161.13" cy="1359.01" r="1.19" fill="#2A1A35" opacity="0.14"/><circle class="ch-dot" cx="1009.32" cy="826.66" r="1.38" fill="#2A1A35" opacity="0.25"/><circle class="ch-dot" cx="14.07" cy="218.65" r="1.02" fill="#2A1A35" opacity="0.11"/><circle class="ch-dot" cx="409.23" cy="2528.69" r="1.34" fill="#2A1A35" opacity="0.1"/><circle class="ch-dot" cx="811.78" cy="1913.08" r="1.71" fill="#2A1A35" opacity="0.15"/><circle class="ch-dot" cx="529.59" cy="1134.5" r="1.73" fill="#2A1A35" opacity="0.14"/><circle class="ch-dot" cx="832.91" cy="166.99" r="1.57" fill="#2A1A35" opacity="0.22"/><circle class="ch-dot" cx="663.41" cy="1000.01" r="1.69" fill="#2A1A35" opacity="0.16"/><circle class="ch-dot" cx="235.87" cy="1737.83" r="1.73" fill="#2A1A35" opacity="0.29"/><circle class="ch-dot" cx="1043.51" cy="1939.21" r="1.67" fill="#2A1A35" opacity="0.12"/><circle class="ch-dot" cx="138.83" cy="106.92" r="1.58" fill="#2A1A35" opacity="0.15"/><circle class="ch-dot" cx="77.37" cy="1061.53" r="1.42" fill="#2A1A35" opacity="0.19"/><circle class="ch-dot" cx="420.14" cy="2165.9" r="1.85" fill="#2A1A35" opacity="0.09"/><circle class="ch-dot" cx="860.33" cy="940.14" r="1.16" fill="#2A1A35" opacity="0.2"/><circle class="ch-dot" cx="533.83" cy="421.67" r="1.36" fill="#2A1A35" opacity="0.33"/><circle class="ch-dot" cx="375.5" cy="2740.08" r="1.99" fill="#2A1A35" opacity="0.2"/><circle class="ch-dot" cx="282.74" cy="1212.7" r="0.71" fill="#2A1A35" opacity="0.19"/><circle class="ch-dot" cx="962.71" cy="2308.47" r="1.87" fill="#2A1A35" opacity="0.13"/><circle class="ch-dot" cx="1121.98" cy="494.38" r="1.86" fill="#2A1A35" opacity="0.31"/><circle class="ch-dot" cx="878.25" cy="1752" r="1.38" fill="#2A1A35" opacity="0.3"/><circle class="ch-dot" cx="780.38" cy="1940.79" r="1.03" fill="#2A1A35" opacity="0.3"/><circle class="ch-dot" cx="914.57" cy="1266.4" r="1.26" fill="#2A1A35" opacity="0.13"/><circle class="ch-dot" cx="309.66" cy="2098.7" r="0.99" fill="#2A1A35" opacity="0.22"/><circle class="ch-dot" cx="1287.33" cy="2577.13" r="1.83" fill="#2A1A35" opacity="0.21"/><circle class="ch-dot" cx="366.65" cy="2647.77" r="1.22" fill="#2A1A35" opacity="0.34"/><circle class="ch-dot" cx="973.38" cy="1007.7" r="1.28" fill="#2A1A35" opacity="0.15"/><circle class="ch-dot" cx="478.07" cy="946.39" r="1.96" fill="#2A1A35" opacity="0.1"/><circle class="ch-dot" cx="1254.83" cy="2060.11" r="2.19" fill="#2A1A35" opacity="0.25"/><circle class="ch-dot" cx="450.75" cy="44.23" r="1.39" fill="#2A1A35" opacity="0.15"/><circle class="ch-dot" cx="1083.43" cy="2249.02" r="1.68" fill="#2A1A35" opacity="0.14"/><circle class="ch-dot" cx="309.07" cy="210.63" r="2.04" fill="#2A1A35" opacity="0.12"/><circle class="ch-dot" cx="157.95" cy="2115" r="1.74" fill="#2A1A35" opacity="0.12"/><circle class="ch-dot" cx="702.22" cy="437.42" r="1.4" fill="#2A1A35" opacity="0.21"/><circle class="ch-dot" cx="1177.36" cy="2313.07" r="1.57" fill="#2A1A35" opacity="0.12"/><circle class="ch-dot" cx="774.91" cy="465.54" r="1.22" fill="#2A1A35" opacity="0.3"/><circle class="ch-dot" cx="145.47" cy="1903.91" r="2.26" fill="#2A1A35" opacity="0.18"/><circle class="ch-dot" cx="1192.42" cy="2121.45" r="1.34" fill="#2A1A35" opacity="0.35"/><circle class="ch-dot" cx="951.23" cy="578.3" r="1.98" fill="#2A1A35" opacity="0.21"/><circle class="ch-dot" cx="1071.3" cy="1918.12" r="1.71" fill="#2A1A35" opacity="0.32"/><circle class="ch-dot" cx="383.52" cy="481.38" r="1.34" fill="#2A1A35" opacity="0.21"/><circle class="ch-dot" cx="1018.4" cy="1223.88" r="1.41" fill="#2A1A35" opacity="0.28"/><circle class="ch-dot" cx="1282.33" cy="1377.09" r="1.54" fill="#2A1A35" opacity="0.34"/><circle class="ch-dot" cx="1094.45" cy="1825.3" r="1.89" fill="#2A1A35" opacity="0.1"/><circle class="ch-dot" cx="2.35" cy="47.17" r="1.86" fill="#2A1A35" opacity="0.18"/><circle class="ch-dot" cx="149.37" cy="287.27" r="1.47" fill="#2A1A35" opacity="0.34"/><circle class="ch-dot" cx="502.85" cy="2674.11" r="2.11" fill="#2A1A35" opacity="0.13"/><circle class="ch-dot" cx="1277.49" cy="446.84" r="1.87" fill="#2A1A35" opacity="0.31"/><circle class="ch-dot" cx="1126.42" cy="2488.77" r="2.01" fill="#2A1A35" opacity="0.23"/><circle class="ch-dot" cx="1128.04" cy="2581.1" r="2.26" fill="#2A1A35" opacity="0.31"/><circle class="ch-dot" cx="311.98" cy="1244.14" r="1.01" fill="#2A1A35" opacity="0.25"/><circle class="ch-dot" cx="878.32" cy="2160.15" r="2.08" fill="#2A1A35" opacity="0.34"/><circle class="ch-dot" cx="400.77" cy="2585.12" r="1.8" fill="#2A1A35" opacity="0.23"/><circle class="ch-dot" cx="1053.84" cy="784.45" r="2.16" fill="#2A1A35" opacity="0.32"/><circle class="ch-dot" cx="303.31" cy="374.81" r="1.81" fill="#2A1A35" opacity="0.14"/><circle class="ch-dot" cx="1102.05" cy="1909.52" r="2.32" fill="#2A1A35" opacity="0.2"/><circle class="ch-dot" cx="620.46" cy="574.82" r="1.22" fill="#2A1A35" opacity="0.33"/><circle class="ch-dot" cx="789.25" cy="719.06" r="1.34" fill="#2A1A35" opacity="0.11"/><circle class="ch-dot" cx="662.48" cy="1618.21" r="1.42" fill="#2A1A35" opacity="0.23"/><circle class="ch-dot" cx="815.65" cy="667" r="0.92" fill="#2A1A35" opacity="0.23"/><circle class="ch-dot" cx="139.93" cy="417.12" r="0.73" fill="#2A1A35" opacity="0.26"/><circle class="ch-dot" cx="344.81" cy="2759.18" r="1.25" fill="#2A1A35" opacity="0.13"/><circle class="ch-dot" cx="143.93" cy="577.08" r="1.88" fill="#2A1A35" opacity="0.14"/><circle class="ch-dot" cx="1015.06" cy="1844.76" r="0.88" fill="#2A1A35" opacity="0.32"/><circle class="ch-dot" cx="536.42" cy="758.81" r="2.03" fill="#2A1A35" opacity="0.27"/><circle class="ch-dot" cx="1053.77" cy="994.26" r="0.71" fill="#2A1A35" opacity="0.31"/><circle class="ch-dot" cx="804" cy="1823.19" r="2.02" fill="#2A1A35" opacity="0.23"/><circle class="ch-dot" cx="71.96" cy="961.94" r="0.96" fill="#2A1A35" opacity="0.3"/><circle class="ch-dot" cx="1009.37" cy="2487.49" r="0.78" fill="#2A1A35" opacity="0.21"/><circle class="ch-dot" cx="17.96" cy="374.59" r="1.48" fill="#2A1A35" opacity="0.33"/><circle class="ch-dot" cx="1229.14" cy="2477.41" r="0.96" fill="#2A1A35" opacity="0.11"/><circle class="ch-dot" cx="429.25" cy="844.25" r="2.31" fill="#2A1A35" opacity="0.23"/><circle class="ch-dot" cx="110.65" cy="1210.42" r="1.07" fill="#2A1A35" opacity="0.16"/><circle class="ch-dot" cx="926.6" cy="1940.76" r="1.3" fill="#2A1A35" opacity="0.34"/><circle class="ch-dot" cx="1294.75" cy="1844.73" r="1.97" fill="#2A1A35" opacity="0.24"/><circle class="ch-dot" cx="506.26" cy="1103.32" r="1.08" fill="#2A1A35" opacity="0.18"/><circle class="ch-dot" cx="62.05" cy="1626.74" r="1.16" fill="#2A1A35" opacity="0.17"/><circle class="ch-dot" cx="597.65" cy="505.43" r="1.33" fill="#2A1A35" opacity="0.34"/><circle class="ch-dot" cx="1096.62" cy="22.22" r="1.75" fill="#2A1A35" opacity="0.17"/><circle class="ch-dot" cx="417.39" cy="2530.98" r="2.24" fill="#2A1A35" opacity="0.12"/><circle class="ch-dot" cx="917.56" cy="2215.23" r="1.62" fill="#2A1A35" opacity="0.23"/><circle class="ch-dot" cx="1123.12" cy="2452.93" r="1.77" fill="#2A1A35" opacity="0.26"/><circle class="ch-dot" cx="899.46" cy="2467.44" r="0.8" fill="#2A1A35" opacity="0.11"/><circle class="ch-dot" cx="66.92" cy="2348.61" r="1.73" fill="#2A1A35" opacity="0.29"/><circle class="ch-dot" cx="576.7" cy="740.8" r="1.07" fill="#2A1A35" opacity="0.11"/><circle class="ch-dot" cx="1165.59" cy="338.35" r="2.37" fill="#2A1A35" opacity="0.17"/><circle class="ch-dot" cx="624.41" cy="2409.22" r="0.86" fill="#2A1A35" opacity="0.21"/><circle class="ch-dot" cx="672.76" cy="2789.41" r="2.38" fill="#2A1A35" opacity="0.34"/><circle class="ch-dot" cx="5.57" cy="1099.59" r="2.04" fill="#2A1A35" opacity="0.32"/><circle class="ch-dot" cx="281.37" cy="1490.59" r="0.72" fill="#2A1A35" opacity="0.23"/><circle class="ch-dot" cx="164.94" cy="816.23" r="1.09" fill="#2A1A35" opacity="0.19"/><circle class="ch-dot" cx="883.32" cy="1262.41" r="0.76" fill="#2A1A35" opacity="0.17"/><circle class="ch-dot" cx="171.89" cy="1073.32" r="1.43" fill="#2A1A35" opacity="0.32"/><circle class="ch-dot" cx="1085.65" cy="2693.95" r="1.59" fill="#2A1A35" opacity="0.19"/><circle class="ch-dot" cx="1221.9" cy="1267.79" r="2.35" fill="#2A1A35" opacity="0.18"/><circle class="ch-dot" cx="284.42" cy="1958.37" r="1.42" fill="#2A1A35" opacity="0.25"/><circle class="ch-dot" cx="113.5" cy="1592.42" r="1.94" fill="#2A1A35" opacity="0.15"/><circle class="ch-dot" cx="1275.99" cy="2607.54" r="2.28" fill="#2A1A35" opacity="0.24"/><circle class="ch-dot" cx="1017.65" cy="877.91" r="0.87" fill="#2A1A35" opacity="0.22"/><circle class="ch-dot" cx="1145.25" cy="2497.04" r="1.96" fill="#2A1A35" opacity="0.22"/><circle class="ch-dot" cx="1048.37" cy="193.49" r="2.04" fill="#2A1A35" opacity="0.34"/><circle class="ch-dot" cx="4.81" cy="1626.34" r="1.98" fill="#2A1A35" opacity="0.2"/><circle class="ch-dot" cx="962.73" cy="1994.66" r="1.26" fill="#2A1A35" opacity="0.14"/><circle class="ch-dot" cx="1073.6" cy="295.21" r="2.37" fill="#2A1A35" opacity="0.25"/><circle class="ch-dot" cx="499.26" cy="882.83" r="0.98" fill="#2A1A35" opacity="0.1"/><circle class="ch-dot" cx="404.73" cy="376.1" r="2.02" fill="#2A1A35" opacity="0.25"/><circle class="ch-dot" cx="685.47" cy="1547.98" r="1.96" fill="#2A1A35" opacity="0.27"/><circle class="ch-dot" cx="184.83" cy="2037.43" r="0.8" fill="#2A1A35" opacity="0.24"/><circle class="ch-dot" cx="1276.37" cy="1824.22" r="1.4" fill="#2A1A35" opacity="0.24"/><circle class="ch-dot" cx="331.44" cy="203.62" r="0.88" fill="#2A1A35" opacity="0.35"/><circle class="ch-dot" cx="577.12" cy="130.58" r="1.95" fill="#2A1A35" opacity="0.32"/><circle class="ch-dot" cx="862.59" cy="2542.82" r="1.62" fill="#2A1A35" opacity="0.25"/><circle class="ch-dot" cx="872.88" cy="725.92" r="0.81" fill="#2A1A35" opacity="0.13"/><circle class="ch-dot" cx="817.67" cy="2804.03" r="0.84" fill="#2A1A35" opacity="0.25"/><circle class="ch-dot" cx="1280.1" cy="691.1" r="1.82" fill="#2A1A35" opacity="0.29"/><circle class="ch-dot" cx="178.33" cy="2021.41" r="1.23" fill="#2A1A35" opacity="0.11"/><circle class="ch-dot" cx="606.7" cy="1151.89" r="0.78" fill="#2A1A35" opacity="0.14"/><circle class="ch-dot" cx="10.29" cy="1631.53" r="2.26" fill="#2A1A35" opacity="0.18"/><circle class="ch-dot" cx="685.61" cy="568.32" r="1.7" fill="#2A1A35" opacity="0.12"/><circle class="ch-dot" cx="597.38" cy="2620.81" r="1.06" fill="#2A1A35" opacity="0.12"/><circle class="ch-dot" cx="396.04" cy="1902.48" r="2.16" fill="#2A1A35" opacity="0.27"/><circle class="ch-dot" cx="979.7" cy="2359.14" r="1.74" fill="#2A1A35" opacity="0.18"/><circle class="ch-dot" cx="1263.24" cy="1720.43" r="1.04" fill="#2A1A35" opacity="0.22"/><circle class="ch-dot" cx="197.79" cy="1282.46" r="2.22" fill="#2A1A35" opacity="0.25"/><circle class="ch-dot" cx="204.33" cy="2634.93" r="1.51" fill="#2A1A35" opacity="0.21"/><circle class="ch-dot" cx="630.52" cy="602.33" r="1.63" fill="#2A1A35" opacity="0.19"/><circle class="ch-dot" cx="1242.2" cy="932.02" r="0.79" fill="#2A1A35" opacity="0.3"/><path class="ch-dot" d="M 913.03 1207.3 L 914.81 1210.46 L 917.97 1212.24 L 914.81 1214.02 L 913.03 1217.18 L 911.25 1214.02 L 908.09 1212.24 L 911.25 1210.46 Z" fill="#FFC24D" opacity="0.83"/><path class="ch-dot" d="M 371.58 1494.28 L 374.15 1498.86 L 378.73 1501.43 L 374.15 1504 L 371.58 1508.58 L 369.01 1504 L 364.43 1501.43 L 369.01 1498.86 Z" fill="#FFC24D" opacity="0.75"/><path class="ch-dot" d="M 1271.69 2687.22 L 1274.21 2691.7 L 1278.69 2694.22 L 1274.21 2696.74 L 1271.69 2701.22 L 1269.17 2696.74 L 1264.69 2694.22 L 1269.17 2691.7 Z" fill="#FFC24D" opacity="0.64"/><path class="ch-dot" d="M 696.29 1596.54 L 698.03 1599.64 L 701.13 1601.38 L 698.03 1603.12 L 696.29 1606.22 L 694.55 1603.12 L 691.45 1601.38 L 694.55 1599.64 Z" fill="#FFC24D" opacity="0.64"/><path class="ch-dot" d="M 1295.48 716.58 L 1298.11 721.26 L 1302.79 723.89 L 1298.11 726.52 L 1295.48 731.2 L 1292.85 726.52 L 1288.17 723.89 L 1292.85 721.26 Z" fill="#FFC24D" opacity="0.88"/><path class="ch-dot" d="M 1095.49 328.21 L 1098.03 332.73 L 1102.55 335.27 L 1098.03 337.81 L 1095.49 342.33 L 1092.95 337.81 L 1088.43 335.27 L 1092.95 332.73 Z" fill="#2A1A35" opacity="0.76"/><path class="ch-dot" d="M 537.83 1629.8 L 539.34 1632.49 L 542.03 1634 L 539.34 1635.51 L 537.83 1638.2 L 536.32 1635.51 L 533.63 1634 L 536.32 1632.49 Z" fill="#2A1A35" opacity="0.96"/><path class="ch-dot" d="M 884.18 829.51 L 886.3 833.29 L 890.08 835.41 L 886.3 837.53 L 884.18 841.31 L 882.06 837.53 L 878.28 835.41 L 882.06 833.29 Z" fill="#FFC24D" opacity="0.79"/><path class="ch-dot" d="M 1258.43 1958.38 L 1260.92 1962.82 L 1265.36 1965.31 L 1260.92 1967.8 L 1258.43 1972.24 L 1255.94 1967.8 L 1251.5 1965.31 L 1255.94 1962.82 Z" fill="#2A1A35" opacity="0.94"/><path class="ch-dot" d="M 1305.4 1409.94 L 1306.99 1412.78 L 1309.83 1414.37 L 1306.99 1415.96 L 1305.4 1418.8 L 1303.81 1415.96 L 1300.97 1414.37 L 1303.81 1412.78 Z" fill="#FFC24D" opacity="0.56"/><path class="ch-dot" d="M 901.1 1674.87 L 903.54 1679.22 L 907.89 1681.66 L 903.54 1684.1 L 901.1 1688.45 L 898.66 1684.1 L 894.31 1681.66 L 898.66 1679.22 Z" fill="#2A1A35" opacity="0.54"/></g><g transform="translate(282.86 852.56) scale(2.36)"><g transform="translate(100 0)">
  <line x1="60" y1="20" x2="60" y2="12" stroke="url(#nebula)" stroke-width="4" stroke-linecap="round"/>
  <circle cx="60" cy="9.5" r="3.4" fill="#FFC24D"/>
  <rect x="40" y="94" width="40" height="16" rx="7" fill="url(#nebula)"/>
  <circle class="ch-glass" cx="60" cy="63" r="40" fill="#241833" fill-opacity="1"/>
  <g fill="#DE8F55">
    <rect x="34.5" y="40" width="14" height="37" rx="7" transform="rotate(16 41.5 58)"/>
    <rect x="71.5" y="40" width="14" height="37" rx="7" transform="rotate(-16 78.5 58)"/>
  </g>
  <circle cx="60" cy="64" r="24" fill="#F2BD79"/>
  <ellipse cx="60" cy="71.5" rx="11.5" ry="9" fill="#F9EDDC"/>
  <circle cx="51" cy="60" r="3.3" fill="#2A1A35"/>
  <circle cx="69" cy="60" r="3.3" fill="#2A1A35"/>
  <ellipse cx="60" cy="69.5" rx="4.6" ry="3.6" fill="#2A1A35"/>
  <path class="" d="M60 72.5 L60 76.5 M60 76.5 C57 79.6 54 78.6 53 76.4 M60 76.5 C63 79.6 66 78.6 67 76.4" fill="none" stroke="#2A1A35" stroke-width="1.8" stroke-linecap="round"/>
  <path d="M31 43 A 34 34 0 0 1 46 29" fill="none" stroke="#FFF6E9" stroke-opacity="0.4" stroke-width="4" stroke-linecap="round"/>
  <circle cx="60" cy="63" r="40" fill="none" stroke="url(#nebula)" stroke-width="7"/>
  <path d="M 75.5 28.5 L 78.2 33.3 L 83 36 L 78.2 38.7 L 75.5 43.5 L 72.8 38.7 L 68 36 L 72.8 33.3 Z" fill="#FFC24D"/>
  <circle cx="38" cy="86" r="1.8" fill="#FFC24D"/></g><g transform="translate(40 130) scale(0.75)"><g class="ch-text" fill="none" stroke="#2A1A35" stroke-width="13" stroke-linecap="round" stroke-linejoin="round">
    <path d="M50 54 C46.5 49 37 47.5 31 51.5 C25.5 55.5 26.5 63 33.5 66 L43.5 70 C50.5 73 51.5 81 46 85 C40 89.5 29.5 88 25 82.5"/>
    <path d="M76 26 L76 79 A 15 15 0 0 0 91 94"/>
    <path d="M64 44 L89 44"/>
    <path d="M107 68 L143 68 A 18 18 0 1 0 138 81"/>
    <path d="M160 26 L160 79 A 15 15 0 0 0 175 94"/>
    <path d="M193 26 L193 79 A 15 15 0 0 0 208 94"/>
    <circle cx="243" cy="68" r="19"/>
    <path d="M262 52 L262 94"/>
  </g><path class="ch-star" d="M 285 26.5 L 289.3 35.2 L 298 39.5 L 289.3 43.8 L 285 52.5 L 280.7 43.8 L 272 39.5 L 280.7 35.2 Z" fill="#FFC24D"/></g></g><g>
    <circle class="ch-dot" cx="634" cy="2351.76" r="6" fill="#2A1A35" opacity="0.35"/>
    <circle cx="660" cy="2351.76" r="6" fill="#FFC24D"/>
    <circle class="ch-dot" cx="686" cy="2351.76" r="6" fill="#2A1A35" opacity="0.35"/>
  </g>
</svg>
