<svg xmlns="http://www.w3.org/2000/svg" viewBox="0 0 2880 1800" width="2880" height="1800">
<style>@media (prefers-color-scheme: dark){.ch-glass{fill:#FFF6E9;fill-opacity:.07}.ch-text{stroke:#FFF6E9}.ch-bg{fill:url(#bgDark)}.ch-dot{fill:#FFF6E9;opacity:.9}.ch-wash{opacity:.5}}</style><defs>
    <linearGradient id="nebula" x1="20" y1="23" x2="100" y2="103" gradientUnits="userSpaceOnUse"><stop offset="0" stop-color="#FF6D4D"/><stop offset=".55" stop-color="#F5487F"/><stop offset="1" stop-color="#A24BEA"/></linearGradient>
    <linearGradient id="bgLight" x1="0" y1="0" x2="0" y2="1800" gradientUnits="userSpaceOnUse"><stop offset="0" stop-color="#FFFAF0"/><stop offset="1" stop-color="#F9F0E1"/></linearGradient>
    <linearGradient id="bgDark" x1="0" y1="0" x2="0" y2="1800" gradientUnits="userSpaceOnUse"><stop offset="0" stop-color="#0E0916"/><stop offset="1" stop-color="#171021"/></linearGradient>
    <radialGradient id="spWash1" cx="0.15" cy="0.1" r="0.8"><stop offset="0" stop-color="#FF6D4D" stop-opacity=".26"/><stop offset="1" stop-color="#FF6D4D" stop-opacity="0"/></radialGradient>
    <radialGradient id="spWash2" cx="0.9" cy="0.95" r="0.9"><stop offset="0" stop-color="#A24BEA" stop-opacity=".3"/><stop offset="1" stop-color="#A24BEA" stop-opacity="0"/></radialGradient>
    <radialGradient id="spWash3" cx="0.85" cy="0.12" r="0.6"><stop offset="0" stop-color="#F5487F" stop-opacity=".18"/><stop offset="1" stop-color="#F5487F" stop-opacity="0"/></radialGradient>
  </defs><rect class="ch-bg" width="2880" height="1800" fill="url(#bgLight)"/><g class="ch-wash" opacity="0.35">
    <rect width="2880" height="1800" fill="url(#spWash1)"/>
    <rect width="2880" height="1800" fill="url(#spWash2)"/>
    <rect width="2880" height="1800" fill="url(#spWash3)"/>
  </g><g><circle class="ch-dot" cx="2542.71" cy="930.69" r="1.83" fill="#2A1A35" opacity="0.21"/><circle class="ch-dot" cx="1647.58" cy="1082.1" r="1.86" fill="#2A1A35" opacity="0.34"/><circle class="ch-dot" cx="1767.28" cy="683.54" r="2.33" fill="#2A1A35" opacity="0.29"/><circle class="ch-dot" cx="642.28" cy="752.56" r="0.79" fill="#2A1A35" opacity="0.11"/><circle class="ch-dot" cx="2305.96" cy="1043.73" r="2.1" fill="#2A1A35" opacity="0.15"/><circle class="ch-dot" cx="468.75" cy="927.84" r="0.85" fill="#2A1A35" opacity="0.2"/><circle class="ch-dot" cx="2108.94" cy="964.92" r="2.38" fill="#2A1A35" opacity="0.17"/><circle class="ch-dot" cx="1394.64" cy="187.69" r="0.94" fill="#2A1A35" opacity="0.1"/><circle class="ch-dot" cx="350.8" cy="320.05" r="2.35" fill="#2A1A35" opacity="0.25"/><circle class="ch-dot" cx="2533.38" cy="852.93" r="1.19" fill="#2A1A35" opacity="0.14"/><circle class="ch-dot" cx="2202.16" cy="518.83" r="1.38" fill="#2A1A35" opacity="0.25"/><circle class="ch-dot" cx="30.7" cy="137.23" r="1.02" fill="#2A1A35" opacity="0.11"/><circle class="ch-dot" cx="892.87" cy="1587.04" r="1.34" fill="#2A1A35" opacity="0.1"/><circle class="ch-dot" cx="1771.16" cy="1200.68" r="1.71" fill="#2A1A35" opacity="0.15"/><circle class="ch-dot" cx="1155.47" cy="712.03" r="1.73" fill="#2A1A35" opacity="0.14"/><circle class="ch-dot" cx="1817.27" cy="104.8" r="1.57" fill="#2A1A35" opacity="0.22"/><circle class="ch-dot" cx="1447.43" cy="627.62" r="1.69" fill="#2A1A35" opacity="0.16"/><circle class="ch-dot" cx="514.62" cy="1090.69" r="1.73" fill="#2A1A35" opacity="0.29"/><circle class="ch-dot" cx="2276.76" cy="1217.08" r="1.67" fill="#2A1A35" opacity="0.12"/><circle class="ch-dot" cx="302.91" cy="67.1" r="1.58" fill="#2A1A35" opacity="0.15"/><circle class="ch-dot" cx="168.81" cy="666.23" r="1.42" fill="#2A1A35" opacity="0.19"/><circle class="ch-dot" cx="916.67" cy="1359.35" r="1.85" fill="#2A1A35" opacity="0.09"/><circle class="ch-dot" cx="1877.07" cy="590.04" r="1.16" fill="#2A1A35" opacity="0.2"/><circle class="ch-dot" cx="1164.73" cy="264.65" r="1.36" fill="#2A1A35" opacity="0.33"/><circle class="ch-dot" cx="819.27" cy="1719.71" r="1.99" fill="#2A1A35" opacity="0.2"/><circle class="ch-dot" cx="616.9" cy="761.11" r="0.71" fill="#2A1A35" opacity="0.19"/><circle class="ch-dot" cx="2100.46" cy="1448.83" r="1.87" fill="#2A1A35" opacity="0.13"/><circle class="ch-dot" cx="2447.95" cy="310.28" r="1.86" fill="#2A1A35" opacity="0.31"/><circle class="ch-dot" cx="1916.19" cy="1099.58" r="1.38" fill="#2A1A35" opacity="0.3"/><circle class="ch-dot" cx="1702.65" cy="1218.07" r="1.03" fill="#2A1A35" opacity="0.3"/><circle class="ch-dot" cx="1995.44" cy="794.81" r="1.26" fill="#2A1A35" opacity="0.13"/><circle class="ch-dot" cx="675.62" cy="1317.17" r="0.99" fill="#2A1A35" opacity="0.22"/><circle class="ch-dot" cx="2808.72" cy="1617.45" r="1.83" fill="#2A1A35" opacity="0.21"/><circle class="ch-dot" cx="799.97" cy="1661.78" r="1.22" fill="#2A1A35" opacity="0.34"/><circle class="ch-dot" cx="2123.74" cy="632.45" r="1.28" fill="#2A1A35" opacity="0.15"/><circle class="ch-dot" cx="1043.06" cy="593.97" r="1.96" fill="#2A1A35" opacity="0.1"/><circle class="ch-dot" cx="2737.81" cy="1292.96" r="2.19" fill="#2A1A35" opacity="0.25"/><circle class="ch-dot" cx="983.46" cy="27.76" r="1.39" fill="#2A1A35" opacity="0.15"/><circle class="ch-dot" cx="2363.84" cy="1411.52" r="1.68" fill="#2A1A35" opacity="0.14"/><circle class="ch-dot" cx="674.33" cy="132.2" r="2.04" fill="#2A1A35" opacity="0.12"/><circle class="ch-dot" cx="344.62" cy="1327.41" r="1.74" fill="#2A1A35" opacity="0.12"/><circle class="ch-dot" cx="1532.11" cy="274.53" r="1.4" fill="#2A1A35" opacity="0.21"/><circle class="ch-dot" cx="2568.79" cy="1451.72" r="1.57" fill="#2A1A35" opacity="0.12"/><circle class="ch-dot" cx="1690.71" cy="292.18" r="1.22" fill="#2A1A35" opacity="0.3"/><circle class="ch-dot" cx="317.39" cy="1194.92" r="2.26" fill="#2A1A35" opacity="0.18"/><circle class="ch-dot" cx="2601.65" cy="1331.45" r="1.34" fill="#2A1A35" opacity="0.35"/><circle class="ch-dot" cx="2075.41" cy="362.95" r="1.98" fill="#2A1A35" opacity="0.21"/><circle class="ch-dot" cx="2337.39" cy="1203.84" r="1.71" fill="#2A1A35" opacity="0.32"/><circle class="ch-dot" cx="836.76" cy="302.12" r="1.34" fill="#2A1A35" opacity="0.21"/><circle class="ch-dot" cx="2221.97" cy="768.12" r="1.41" fill="#2A1A35" opacity="0.28"/><circle class="ch-dot" cx="2797.81" cy="864.28" r="1.54" fill="#2A1A35" opacity="0.34"/><circle class="ch-dot" cx="2387.89" cy="1145.58" r="1.89" fill="#2A1A35" opacity="0.1"/><circle class="ch-dot" cx="5.13" cy="29.6" r="1.86" fill="#2A1A35" opacity="0.18"/><circle class="ch-dot" cx="325.89" cy="180.29" r="1.47" fill="#2A1A35" opacity="0.34"/><circle class="ch-dot" cx="1097.12" cy="1678.31" r="2.11" fill="#2A1A35" opacity="0.13"/><circle class="ch-dot" cx="2787.24" cy="280.44" r="1.87" fill="#2A1A35" opacity="0.31"/><circle class="ch-dot" cx="2457.65" cy="1561.99" r="2.01" fill="#2A1A35" opacity="0.23"/><circle class="ch-dot" cx="2461.17" cy="1619.94" r="2.26" fill="#2A1A35" opacity="0.31"/><circle class="ch-dot" cx="680.69" cy="780.84" r="1.01" fill="#2A1A35" opacity="0.25"/><circle class="ch-dot" cx="1916.34" cy="1355.74" r="2.08" fill="#2A1A35" opacity="0.34"/><circle class="ch-dot" cx="874.41" cy="1622.46" r="1.8" fill="#2A1A35" opacity="0.23"/><circle class="ch-dot" cx="2299.28" cy="492.33" r="2.16" fill="#2A1A35" opacity="0.32"/><circle class="ch-dot" cx="661.77" cy="235.24" r="1.81" fill="#2A1A35" opacity="0.14"/><circle class="ch-dot" cx="2404.47" cy="1198.44" r="2.32" fill="#2A1A35" opacity="0.2"/><circle class="ch-dot" cx="1353.73" cy="360.76" r="1.22" fill="#2A1A35" opacity="0.33"/><circle class="ch-dot" cx="1722" cy="451.29" r="1.34" fill="#2A1A35" opacity="0.11"/><circle class="ch-dot" cx="1445.4" cy="1015.62" r="1.42" fill="#2A1A35" opacity="0.23"/><circle class="ch-dot" cx="1779.6" cy="418.62" r="0.92" fill="#2A1A35" opacity="0.23"/><circle class="ch-dot" cx="305.31" cy="261.79" r="0.73" fill="#2A1A35" opacity="0.26"/><circle class="ch-dot" cx="752.31" cy="1731.7" r="1.25" fill="#2A1A35" opacity="0.13"/><circle class="ch-dot" cx="314.02" cy="362.18" r="1.88" fill="#2A1A35" opacity="0.14"/><circle class="ch-dot" cx="2214.67" cy="1157.8" r="0.88" fill="#2A1A35" opacity="0.32"/><circle class="ch-dot" cx="1170.37" cy="476.24" r="2.03" fill="#2A1A35" opacity="0.27"/><circle class="ch-dot" cx="2299.14" cy="624.01" r="0.71" fill="#2A1A35" opacity="0.31"/><circle class="ch-dot" cx="1754.18" cy="1144.26" r="2.02" fill="#2A1A35" opacity="0.23"/><circle class="ch-dot" cx="157" cy="603.73" r="0.96" fill="#2A1A35" opacity="0.3"/><circle class="ch-dot" cx="2202.27" cy="1561.18" r="0.78" fill="#2A1A35" opacity="0.21"/><circle class="ch-dot" cx="39.19" cy="235.1" r="1.48" fill="#2A1A35" opacity="0.33"/><circle class="ch-dot" cx="2681.75" cy="1554.86" r="0.96" fill="#2A1A35" opacity="0.11"/><circle class="ch-dot" cx="936.55" cy="529.86" r="2.31" fill="#2A1A35" opacity="0.23"/><circle class="ch-dot" cx="241.41" cy="759.68" r="1.07" fill="#2A1A35" opacity="0.16"/><circle class="ch-dot" cx="2021.67" cy="1218.05" r="1.3" fill="#2A1A35" opacity="0.34"/><circle class="ch-dot" cx="2824.91" cy="1157.78" r="1.97" fill="#2A1A35" opacity="0.24"/><circle class="ch-dot" cx="1104.56" cy="692.46" r="1.08" fill="#2A1A35" opacity="0.18"/><circle class="ch-dot" cx="135.39" cy="1020.96" r="1.16" fill="#2A1A35" opacity="0.17"/><circle class="ch-dot" cx="1303.97" cy="317.22" r="1.33" fill="#2A1A35" opacity="0.34"/><circle class="ch-dot" cx="2392.63" cy="13.95" r="1.75" fill="#2A1A35" opacity="0.17"/><circle class="ch-dot" cx="910.68" cy="1588.48" r="2.24" fill="#2A1A35" opacity="0.12"/><circle class="ch-dot" cx="2001.96" cy="1390.31" r="1.62" fill="#2A1A35" opacity="0.23"/><circle class="ch-dot" cx="2450.45" cy="1539.5" r="1.77" fill="#2A1A35" opacity="0.26"/><circle class="ch-dot" cx="1962.45" cy="1548.6" r="0.8" fill="#2A1A35" opacity="0.11"/><circle class="ch-dot" cx="146" cy="1474.02" r="1.73" fill="#2A1A35" opacity="0.29"/><circle class="ch-dot" cx="1258.26" cy="464.94" r="1.07" fill="#2A1A35" opacity="0.11"/><circle class="ch-dot" cx="2543.1" cy="212.35" r="2.37" fill="#2A1A35" opacity="0.17"/><circle class="ch-dot" cx="1362.35" cy="1512.06" r="0.86" fill="#2A1A35" opacity="0.21"/><circle class="ch-dot" cx="1467.84" cy="1750.68" r="2.38" fill="#2A1A35" opacity="0.34"/><circle class="ch-dot" cx="12.16" cy="690.12" r="2.04" fill="#2A1A35" opacity="0.32"/><circle class="ch-dot" cx="613.91" cy="935.52" r="0.72" fill="#2A1A35" opacity="0.23"/><circle class="ch-dot" cx="359.88" cy="512.28" r="1.09" fill="#2A1A35" opacity="0.19"/><circle class="ch-dot" cx="1927.25" cy="792.3" r="0.76" fill="#2A1A35" opacity="0.17"/><circle class="ch-dot" cx="375.04" cy="673.63" r="1.43" fill="#2A1A35" opacity="0.32"/><circle class="ch-dot" cx="2368.68" cy="1690.77" r="1.59" fill="#2A1A35" opacity="0.19"/><circle class="ch-dot" cx="2665.97" cy="795.68" r="2.35" fill="#2A1A35" opacity="0.18"/><circle class="ch-dot" cx="620.56" cy="1229.1" r="1.42" fill="#2A1A35" opacity="0.25"/><circle class="ch-dot" cx="247.64" cy="999.43" r="1.94" fill="#2A1A35" opacity="0.15"/><circle class="ch-dot" cx="2783.98" cy="1636.53" r="2.28" fill="#2A1A35" opacity="0.24"/><circle class="ch-dot" cx="2220.33" cy="550.99" r="0.87" fill="#2A1A35" opacity="0.22"/><circle class="ch-dot" cx="2498.73" cy="1567.18" r="1.96" fill="#2A1A35" opacity="0.22"/><circle class="ch-dot" cx="2287.35" cy="121.44" r="2.04" fill="#2A1A35" opacity="0.34"/><circle class="ch-dot" cx="10.5" cy="1020.72" r="1.98" fill="#2A1A35" opacity="0.2"/><circle class="ch-dot" cx="2100.49" cy="1251.88" r="1.26" fill="#2A1A35" opacity="0.14"/><circle class="ch-dot" cx="2342.4" cy="185.28" r="2.37" fill="#2A1A35" opacity="0.25"/><circle class="ch-dot" cx="1089.3" cy="554.08" r="0.98" fill="#2A1A35" opacity="0.1"/><circle class="ch-dot" cx="883.04" cy="236.05" r="2.02" fill="#2A1A35" opacity="0.25"/><circle class="ch-dot" cx="1495.56" cy="971.54" r="1.96" fill="#2A1A35" opacity="0.27"/><circle class="ch-dot" cx="403.28" cy="1278.72" r="0.8" fill="#2A1A35" opacity="0.24"/><circle class="ch-dot" cx="2784.81" cy="1144.91" r="1.4" fill="#2A1A35" opacity="0.24"/><circle class="ch-dot" cx="723.15" cy="127.8" r="0.88" fill="#2A1A35" opacity="0.35"/><circle class="ch-dot" cx="1259.16" cy="81.95" r="1.95" fill="#2A1A35" opacity="0.32"/><circle class="ch-dot" cx="1882.02" cy="1595.91" r="1.62" fill="#2A1A35" opacity="0.25"/><circle class="ch-dot" cx="1904.47" cy="455.6" r="0.81" fill="#2A1A35" opacity="0.13"/><circle class="ch-dot" cx="1784" cy="1759.85" r="0.84" fill="#2A1A35" opacity="0.25"/><circle class="ch-dot" cx="2792.95" cy="433.75" r="1.82" fill="#2A1A35" opacity="0.29"/><circle class="ch-dot" cx="389.09" cy="1268.67" r="1.23" fill="#2A1A35" opacity="0.11"/><circle class="ch-dot" cx="1323.7" cy="722.95" r="0.78" fill="#2A1A35" opacity="0.14"/><circle class="ch-dot" cx="22.46" cy="1023.97" r="2.26" fill="#2A1A35" opacity="0.18"/><circle class="ch-dot" cx="1495.88" cy="356.69" r="1.7" fill="#2A1A35" opacity="0.12"/><circle class="ch-dot" cx="1303.38" cy="1644.86" r="1.06" fill="#2A1A35" opacity="0.12"/><circle class="ch-dot" cx="864.1" cy="1194.02" r="2.16" fill="#2A1A35" opacity="0.27"/><circle class="ch-dot" cx="2137.54" cy="1480.63" r="1.74" fill="#2A1A35" opacity="0.18"/><circle class="ch-dot" cx="2756.16" cy="1079.77" r="1.04" fill="#2A1A35" opacity="0.22"/><circle class="ch-dot" cx="431.54" cy="804.89" r="2.22" fill="#2A1A35" opacity="0.25"/><circle class="ch-dot" cx="445.81" cy="1653.72" r="1.51" fill="#2A1A35" opacity="0.21"/><circle class="ch-dot" cx="1375.69" cy="378.03" r="1.63" fill="#2A1A35" opacity="0.19"/><circle class="ch-dot" cx="2710.25" cy="584.95" r="0.79" fill="#2A1A35" opacity="0.3"/><circle class="ch-dot" cx="2038.62" cy="1208.77" r="0.85" fill="#2A1A35" opacity="0.29"/><circle class="ch-dot" cx="422.63" cy="263.01" r="1.25" fill="#2A1A35" opacity="0.12"/><circle class="ch-dot" cx="2034.3" cy="1567.09" r="1.18" fill="#2A1A35" opacity="0.3"/><circle class="ch-dot" cx="35.03" cy="1137.2" r="2.25" fill="#2A1A35" opacity="0.2"/><circle class="ch-dot" cx="969.42" cy="759.43" r="1.44" fill="#2A1A35" opacity="0.15"/><circle class="ch-dot" cx="2290.15" cy="1629.51" r="1.78" fill="#2A1A35" opacity="0.27"/><circle class="ch-dot" cx="1197.8" cy="41.37" r="1.65" fill="#2A1A35" opacity="0.14"/><circle class="ch-dot" cx="967.32" cy="1432.39" r="1.6" fill="#2A1A35" opacity="0.26"/><circle class="ch-dot" cx="346.01" cy="302.33" r="0.97" fill="#2A1A35" opacity="0.17"/><circle class="ch-dot" cx="2491.75" cy="496.08" r="2.3" fill="#2A1A35" opacity="0.23"/><circle class="ch-dot" cx="930" cy="1193.3" r="1.36" fill="#2A1A35" opacity="0.11"/><circle class="ch-dot" cx="2600.49" cy="648.52" r="1.23" fill="#2A1A35" opacity="0.14"/><circle class="ch-dot" cx="1870.07" cy="746.76" r="1.85" fill="#2A1A35" opacity="0.25"/><circle class="ch-dot" cx="125.25" cy="748.89" r="2.07" fill="#2A1A35" opacity="0.32"/><circle class="ch-dot" cx="331.63" cy="750.25" r="1.84" fill="#2A1A35" opacity="0.13"/><circle class="ch-dot" cx="2444.64" cy="1587.67" r="2.16" fill="#2A1A35" opacity="0.24"/><circle class="ch-dot" cx="65.73" cy="342.03" r="1.99" fill="#2A1A35" opacity="0.09"/><circle class="ch-dot" cx="2461.81" cy="232.69" r="1.92" fill="#2A1A35" opacity="0.23"/><circle class="ch-dot" cx="2191.14" cy="429.6" r="1.63" fill="#2A1A35" opacity="0.14"/><circle class="ch-dot" cx="908.12" cy="1781.86" r="2.26" fill="#2A1A35" opacity="0.24"/><circle class="ch-dot" cx="1733.89" cy="374.11" r="2.21" fill="#2A1A35" opacity="0.32"/><circle class="ch-dot" cx="297.29" cy="1602.11" r="2.35" fill="#2A1A35" opacity="0.28"/><circle class="ch-dot" cx="1340.92" cy="93.81" r="1.42" fill="#2A1A35" opacity="0.22"/><circle class="ch-dot" cx="920.39" cy="1316.36" r="1.86" fill="#2A1A35" opacity="0.3"/><circle class="ch-dot" cx="733.86" cy="1701.35" r="1.71" fill="#2A1A35" opacity="0.32"/><circle class="ch-dot" cx="992.68" cy="1509.03" r="0.88" fill="#2A1A35" opacity="0.18"/><circle class="ch-dot" cx="1259.95" cy="930.76" r="2.13" fill="#2A1A35" opacity="0.3"/><circle class="ch-dot" cx="166.03" cy="57.68" r="1.82" fill="#2A1A35" opacity="0.14"/><circle class="ch-dot" cx="2167.3" cy="1217.44" r="1.01" fill="#2A1A35" opacity="0.25"/><circle class="ch-dot" cx="2815.27" cy="1175.73" r="0.89" fill="#2A1A35" opacity="0.33"/><circle class="ch-dot" cx="2294.97" cy="1414.41" r="0.85" fill="#2A1A35" opacity="0.17"/><circle class="ch-dot" cx="2632.07" cy="518.57" r="2.08" fill="#2A1A35" opacity="0.22"/><circle class="ch-dot" cx="211.1" cy="1237.46" r="0.98" fill="#2A1A35" opacity="0.13"/><circle class="ch-dot" cx="337" cy="405.37" r="2.29" fill="#2A1A35" opacity="0.09"/><circle class="ch-dot" cx="1519.57" cy="651.84" r="1.92" fill="#2A1A35" opacity="0.24"/><circle class="ch-dot" cx="1415.71" cy="231.28" r="0.78" fill="#2A1A35" opacity="0.22"/><circle class="ch-dot" cx="961.52" cy="404.5" r="1.91" fill="#2A1A35" opacity="0.14"/><circle class="ch-dot" cx="204.21" cy="1373.36" r="1.93" fill="#2A1A35" opacity="0.1"/><circle class="ch-dot" cx="695.65" cy="847.21" r="2.27" fill="#2A1A35" opacity="0.32"/><circle class="ch-dot" cx="1686.51" cy="934.22" r="0.78" fill="#2A1A35" opacity="0.13"/><circle class="ch-dot" cx="2842.19" cy="460.48" r="1.38" fill="#2A1A35" opacity="0.32"/><circle class="ch-dot" cx="2460.65" cy="413.13" r="0.87" fill="#2A1A35" opacity="0.14"/><circle class="ch-dot" cx="2003.47" cy="1524.73" r="1.09" fill="#2A1A35" opacity="0.27"/><circle class="ch-dot" cx="19.98" cy="532.55" r="0.77" fill="#2A1A35" opacity="0.1"/><circle class="ch-dot" cx="2613.38" cy="211.3" r="1.71" fill="#2A1A35" opacity="0.25"/><circle class="ch-dot" cx="2308.24" cy="1204.27" r="1.05" fill="#2A1A35" opacity="0.25"/><circle class="ch-dot" cx="2404.69" cy="1225.37" r="1.76" fill="#2A1A35" opacity="0.21"/><circle class="ch-dot" cx="1235.48" cy="597.18" r="2.09" fill="#2A1A35" opacity="0.11"/><circle class="ch-dot" cx="2366.55" cy="1605.89" r="1.59" fill="#2A1A35" opacity="0.22"/><path class="ch-dot" d="M 1992.07 755.88 L 1993.85 759.04 L 1997.01 760.82 L 1993.85 762.6 L 1992.07 765.76 L 1990.29 762.6 L 1987.13 760.82 L 1990.29 759.04 Z" fill="#FFC24D" opacity="0.83"/><path class="ch-dot" d="M 810.72 935.17 L 813.29 939.75 L 817.87 942.32 L 813.29 944.89 L 810.72 949.47 L 808.15 944.89 L 803.57 942.32 L 808.15 939.75 Z" fill="#FFC24D" opacity="0.75"/><path class="ch-dot" d="M 2774.59 1683.93 L 2777.11 1688.41 L 2781.59 1690.93 L 2777.11 1693.45 L 2774.59 1697.93 L 2772.07 1693.45 L 2767.59 1690.93 L 2772.07 1688.41 Z" fill="#FFC24D" opacity="0.64"/><path class="ch-dot" d="M 1519.18 1000.21 L 1520.92 1003.31 L 1524.02 1005.05 L 1520.92 1006.79 L 1519.18 1009.89 L 1517.44 1006.79 L 1514.34 1005.05 L 1517.44 1003.31 Z" fill="#FFC24D" opacity="0.64"/><path class="ch-dot" d="M 2826.5 447.01 L 2829.13 451.69 L 2833.81 454.32 L 2829.13 456.95 L 2826.5 461.63 L 2823.87 456.95 L 2819.19 454.32 L 2823.87 451.69 Z" fill="#FFC24D" opacity="0.88"/><path class="ch-dot" d="M 2390.16 203.36 L 2392.7 207.88 L 2397.22 210.42 L 2392.7 212.96 L 2390.16 217.48 L 2387.62 212.96 L 2383.1 210.42 L 2387.62 207.88 Z" fill="#2A1A35" opacity="0.76"/><path class="ch-dot" d="M 1173.44 1021.32 L 1174.95 1024.01 L 1177.64 1025.52 L 1174.95 1027.03 L 1173.44 1029.72 L 1171.93 1027.03 L 1169.24 1025.52 L 1171.93 1024.01 Z" fill="#2A1A35" opacity="0.96"/><path class="ch-dot" d="M 1929.12 518.42 L 1931.24 522.2 L 1935.02 524.32 L 1931.24 526.44 L 1929.12 530.22 L 1927 526.44 L 1923.22 524.32 L 1927 522.2 Z" fill="#FFC24D" opacity="0.79"/><path class="ch-dot" d="M 2745.67 1226.53 L 2748.16 1230.97 L 2752.6 1233.46 L 2748.16 1235.95 L 2745.67 1240.39 L 2743.18 1235.95 L 2738.74 1233.46 L 2743.18 1230.97 Z" fill="#2A1A35" opacity="0.94"/><path class="ch-dot" d="M 2848.14 883.25 L 2849.73 886.09 L 2852.57 887.68 L 2849.73 889.27 L 2848.14 892.11 L 2846.55 889.27 L 2843.71 887.68 L 2846.55 886.09 Z" fill="#FFC24D" opacity="0.56"/><path class="ch-dot" d="M 1966.03 1048.64 L 1968.47 1052.99 L 1972.82 1055.43 L 1968.47 1057.87 L 1966.03 1062.22 L 1963.59 1057.87 L 1959.24 1055.43 L 1963.59 1052.99 Z" fill="#2A1A35" opacity="0.54"/><path class="ch-dot" d="M 2710.78 1715.27 L 2712.66 1718.61 L 2716 1720.49 L 2712.66 1722.37 L 2710.78 1725.71 L 2708.9 1722.37 L 2705.56 1720.49 L 2708.9 1718.61 Z" fill="#2A1A35" opacity="0.62"/><path class="ch-dot" d="M 2345.22 843.61 L 2346.54 845.96 L 2348.89 847.28 L 2346.54 848.6 L 2345.22 850.95 L 2343.9 848.6 L 2341.55 847.28 L 2343.9 845.96 Z" fill="#2A1A35" opacity="0.94"/><path class="ch-dot" d="M 2854.7 1422.54 L 2856.17 1425.15 L 2858.78 1426.62 L 2856.17 1428.09 L 2854.7 1430.7 L 2853.23 1428.09 L 2850.62 1426.62 L 2853.23 1425.15 Z" fill="#2A1A35" opacity="0.88"/><path class="ch-dot" d="M 2176.36 685.75 L 2177.86 688.41 L 2180.52 689.91 L 2177.86 691.41 L 2176.36 694.07 L 2174.86 691.41 L 2172.2 689.91 L 2174.86 688.41 Z" fill="#2A1A35" opacity="0.9"/></g><g transform="translate(990 440.44) scale(2.81)"><g transform="translate(100 0)">
  <line x1="60" y1="20" x2="60" y2="12" stroke="url(#nebula)" stroke-width="4" stroke-linecap="round"/>
  <circle cx="60" cy="9.5" r="3.4" fill="#FFC24D"/>
  <rect x="40" y="94" width="40" height="16" rx="7" fill="url(#nebula)"/>
  <circle class="ch-glass" cx="60" cy="63" r="40" fill="#241833" fill-opacity="1"/>
  <g fill="#DE8F55">
    <rect x="34.5" y="40" width="14" height="37" rx="7" transform="rotate(16 41.5 58)"/>
    <rect x="71.5" y="40" width="14" height="37" rx="7" transform="rotate(-16 78.5 58)"/>
  </g>
  <circle cx="60" cy="64" r="24" fill="#F2BD79"/>
  <ellipse cx="60" cy="71.5" rx="11.5" ry="9" fill="#F9EDDC"/>
  <circle cx="51" cy="60" r="3.3" fill="#2A1A35"/>
  <circle cx="69" cy="60" r="3.3" fill="#2A1A35"/>
  <ellipse cx="60" cy="69.5" rx="4.6" ry="3.6" fill="#2A1A35"/>
  <path class="" d="M60 72.5 L60 76.5 M60 76.5 C57 79.6 54 78.6 53 76.4 M60 76.5 C63 79.6 66 78.6 67 76.4" fill="none" stroke="#2A1A35" stroke-width="1.8" stroke-linecap="round"/>
  <path d="M31 43 A 34 34 0 0 1 46 29" fill="none" stroke="#FFF6E9" stroke-opacity="0.4" stroke-width="4" stroke-linecap="round"/>
  <circle cx="60" cy="63" r="40" fill="none" stroke="url(#nebula)" stroke-width="7"/>
  <path d="M 75.5 28.5 L 78.2 33.3 L 83 36 L 78.2 38.7 L 75.5 43.5 L 72.8 38.7 L 68 36 L 72.8 33.3 Z" fill="#FFC24D"/>
  <circle cx="38" cy="86" r="1.8" fill="#FFC24D"/></g><g transform="translate(40 130) scale(0.75)"><g class="ch-text" fill="none" stroke="#2A1A35" stroke-width="13" stroke-linecap="round" stroke-linejoin="round">
    <path d="M50 54 C46.5 49 37 47.5 31 51.5 C25.5 55.5 26.5 63 33.5 66 L43.5 70 C50.5 73 51.5 81 46 85 C40 89.5 29.5 88 25 82.5"/>
    <path d="M76 26 L76 79 A 15 15 0 0 0 91 94"/>
    <path d="M64 44 L89 44"/>
    <path d="M107 68 L143 68 A 18 18 0 1 0 138 81"/>
    <path d="M160 26 L160 79 A 15 15 0 0 0 175 94"/>
    <path d="M193 26 L193 79 A 15 15 0 0 0 208 94"/>
    <circle cx="243" cy="68" r="19"/>
    <path d="M262 52 L262 94"/>
  </g><path class="ch-star" d="M 285 26.5 L 289.3 35.2 L 298 39.5 L 289.3 43.8 L 285 52.5 L 280.7 43.8 L 272 39.5 L 280.7 35.2 Z" fill="#FFC24D"/></g></g><g>
    <circle class="ch-dot" cx="1414" cy="1512" r="6" fill="#2A1A35" opacity="0.35"/>
    <circle cx="1440" cy="1512" r="6" fill="#FFC24D"/>
    <circle class="ch-dot" cx="1466" cy="1512" r="6" fill="#2A1A35" opacity="0.35"/>
  </g>
</svg>
