<svg xmlns="http://www.w3.org/2000/svg" viewBox="0 0 551.73 120.00" width="552" height="120"><defs><linearGradient id="g" x1="24" y1="18" x2="120" y2="80" gradientUnits="userSpaceOnUse"><stop offset="0" stop-color="#FFD97A"/><stop offset=".5" stop-color="#F5B33C"/><stop offset="1" stop-color="#E08A20"/></linearGradient></defs><g transform="translate(-28.77,-18.90) scale(1.64384)"><path d="M30 24 L54 48 L30 72" fill="none" stroke="url(#g)" stroke-width="9.0" stroke-linecap="round" stroke-linejoin="round"/><circle cx="78" cy="28" r="6.2" fill="url(#g)"/><circle cx="78" cy="48" r="6.2" fill="url(#g)"/><circle cx="78" cy="68" r="6.2" fill="url(#g)"/><circle cx="98" cy="28" r="6.2" fill="url(#g)"/><circle cx="98" cy="48" r="6.2" fill="url(#g)"/><circle cx="98" cy="68" r="6.2" fill="url(#g)"/><circle cx="118" cy="28" r="6.2" fill="url(#g)"/><circle cx="118" cy="48" r="6.2" fill="url(#g)"/><circle cx="118" cy="68" r="6.2" fill="url(#g)"/></g><g transform="translate(217.35,26.40) scale(0.04492)"><g fill="#15120C" transform="translate(-163.00,1475.00) scale(1,-1)"><path transform="translate(0.00,0)" d="M557 93Q691 93 767.5 144.5Q844 196 844 280Q844 332 827.5 370.5Q811 409 756.5 439.5Q702 470 589 497Q476 525 393.5 559.0Q311 593 266.0 648.0Q221 703 221 794Q221 881 270.5 942.5Q320 1004 406.5 1036.5Q493 1069 602 1069Q725 1069 816.5 1036.0Q908 1003 970 956L912 864Q854 905 783.0 932.0Q712 959 603 959Q464 959 408.0 915.0Q352 871 352 804Q352 752 379.5 718.5Q407 685 470.0 659.5Q533 634 640 605Q743 578 820.0 540.0Q897 502 940.0 441.0Q983 380 983 283Q983 172 920.5 105.5Q858 39 760.0 9.5Q662 -20 556 -20Q417 -20 321.5 21.0Q226 62 163 117L240 208Q302 156 383.0 124.5Q464 93 557 93Z"/><path transform="translate(1317.00,0)" d="M1020 50Q968 16 894.0 -2.0Q820 -20 757 -20Q599 -20 509.5 64.0Q420 148 420 275V946H172V1050H420V1292L544 1307V1050H914L897 946H544V278Q544 187 593.5 137.5Q643 88 760 88Q820 88 871.0 102.0Q922 116 966 139Z"/><path transform="translate(2634.00,0)" d="M309 475Q312 343 356.5 258.5Q401 174 474.0 134.0Q547 94 633 94Q716 94 780.5 118.0Q845 142 916 191L981 98Q908 42 816.5 11.0Q725 -20 638 -20Q493 -20 389.5 48.0Q286 116 231.0 238.5Q176 361 176 524Q176 684 232.0 807.0Q288 930 387.5 999.5Q487 1069 619 1069Q747 1069 838.0 1007.0Q929 945 977.5 831.5Q1026 718 1026 561Q1026 534 1025.0 512.5Q1024 491 1023 475ZM622 953Q495 953 408.5 863.0Q322 773 311 587H908Q904 772 825.0 862.5Q746 953 622 953Z"/><path transform="translate(3951.00,0)" d="M586 1475V238Q586 156 638.5 122.0Q691 88 771 88Q821 88 865.5 98.0Q910 108 956 126L992 30Q953 11 893.0 -4.5Q833 -20 759 -20Q635 -20 548.5 47.5Q462 115 462 238V1367H136V1475Z"/><path transform="translate(5268.00,0)" d="M586 1475V238Q586 156 638.5 122.0Q691 88 771 88Q821 88 865.5 98.0Q910 108 956 126L992 30Q953 11 893.0 -4.5Q833 -20 759 -20Q635 -20 548.5 47.5Q462 115 462 238V1367H136V1475Z"/><path transform="translate(6585.00,0)" d="M932 207Q932 143 954.0 113.5Q976 84 1022 70L988 -21Q928 -12 881.0 23.0Q834 58 815 130Q760 57 677.5 18.5Q595 -20 491 -20Q335 -20 246.0 68.0Q157 156 157 303Q157 463 281.5 548.0Q406 633 644 633H803V735Q803 858 732.5 907.5Q662 957 540 957Q487 957 420.0 945.0Q353 933 271 904L235 1006Q330 1041 407.5 1055.0Q485 1069 558 1069Q743 1069 837.5 978.5Q932 888 932 739ZM515 79Q601 79 676.0 121.0Q751 163 803 238V538H629Q442 538 368.0 472.5Q294 407 294 299Q294 190 348.0 134.5Q402 79 515 79Z"/></g></g></svg>