<svg xmlns="http://www.w3.org/2000/svg" viewBox="0 0 2560 1440" width="2560" height="1440">
<defs>
    <linearGradient id="nebula" x1="20" y1="23" x2="100" y2="103" gradientUnits="userSpaceOnUse"><stop offset="0" stop-color="#FF6D4D"/><stop offset=".55" stop-color="#F5487F"/><stop offset="1" stop-color="#A24BEA"/></linearGradient>
    <linearGradient id="bgLight" x1="0" y1="0" x2="768" y2="1440" gradientUnits="userSpaceOnUse"><stop offset="0" stop-color="#FFFAF0"/><stop offset=".6" stop-color="#F9F0E1"/><stop offset="1" stop-color="#EFE2CC"/></linearGradient>
    <linearGradient id="bgDark" x1="0" y1="0" x2="768" y2="1440" gradientUnits="userSpaceOnUse"><stop offset="0" stop-color="#0E0916"/><stop offset=".55" stop-color="#171021"/><stop offset="1" stop-color="#221232"/></linearGradient>
    <radialGradient id="wpWash1" cx="0.18" cy="0.14" r="0.7"><stop offset="0" stop-color="#FF6D4D" stop-opacity=".3"/><stop offset="1" stop-color="#FF6D4D" stop-opacity="0"/></radialGradient>
    <radialGradient id="wpWash2" cx="0.78" cy="0.72" r="0.85"><stop offset="0" stop-color="#A24BEA" stop-opacity=".34"/><stop offset="1" stop-color="#A24BEA" stop-opacity="0"/></radialGradient>
    <radialGradient id="wpWash3" cx="0.6" cy="0.35" r="0.55"><stop offset="0" stop-color="#F5487F" stop-opacity=".2"/><stop offset="1" stop-color="#F5487F" stop-opacity="0"/></radialGradient>
  </defs><rect class="ch-bg" width="2560" height="1440" fill="url(#bgDark)"/><g class="ch-wash" opacity="0.5">
    <rect width="2560" height="1440" fill="url(#wpWash1)"/>
    <rect width="2560" height="1440" fill="url(#wpWash2)"/>
    <rect width="2560" height="1440" fill="url(#wpWash3)"/>
  </g><g><circle class="" cx="1038.14" cy="671.37" r="1.11" fill="#FFF6E9" opacity="0.51"/><circle class="" cx="1868.34" cy="371.25" r="0.97" fill="#FFF6E9" opacity="0.63"/><circle class="" cx="1327.11" cy="283.88" r="1.33" fill="#FFF6E9" opacity="0.36"/><circle class="" cx="1368.93" cy="426.72" r="2.36" fill="#FFF6E9" opacity="0.33"/><circle class="" cx="2247.12" cy="274.74" r="0.94" fill="#FFF6E9" opacity="0.28"/><circle class="" cx="744.84" cy="788.98" r="2" fill="#FFF6E9" opacity="0.23"/><circle class="" cx="2337.13" cy="797.34" r="1.76" fill="#FFF6E9" opacity="0.58"/><circle class="" cx="2472.93" cy="899.11" r="2.27" fill="#FFF6E9" opacity="0.67"/><circle class="" cx="102.34" cy="251.92" r="1.31" fill="#FFF6E9" opacity="0.44"/><circle class="" cx="51.65" cy="126.87" r="2.01" fill="#FFF6E9" opacity="0.4"/><circle class="" cx="1092.39" cy="674.87" r="2.31" fill="#FFF6E9" opacity="0.59"/><circle class="" cx="1762.04" cy="476.13" r="1.31" fill="#FFF6E9" opacity="0.27"/><circle class="" cx="341.23" cy="1314.77" r="1.25" fill="#FFF6E9" opacity="0.3"/><circle class="" cx="1618.45" cy="484.95" r="0.77" fill="#FFF6E9" opacity="0.58"/><circle class="" cx="2358.71" cy="788.94" r="2.11" fill="#FFF6E9" opacity="0.57"/><circle class="" cx="2354.89" cy="168.54" r="1.6" fill="#FFF6E9" opacity="0.56"/><circle class="" cx="2476.82" cy="789.94" r="2.09" fill="#FFF6E9" opacity="0.19"/><circle class="" cx="1321.15" cy="472.4" r="1.93" fill="#FFF6E9" opacity="0.51"/><circle class="" cx="1933.87" cy="1406.78" r="1.65" fill="#FFF6E9" opacity="0.66"/><circle class="" cx="1100.78" cy="924.99" r="1.96" fill="#FFF6E9" opacity="0.51"/><circle class="" cx="799.7" cy="341.04" r="0.72" fill="#FFF6E9" opacity="0.21"/><circle class="" cx="2415.1" cy="1200.05" r="1.77" fill="#FFF6E9" opacity="0.2"/><circle class="" cx="1584.37" cy="856.65" r="1.92" fill="#FFF6E9" opacity="0.76"/><circle class="" cx="711.67" cy="1420.24" r="1.8" fill="#FFF6E9" opacity="0.65"/><circle class="" cx="1598.46" cy="1195.4" r="0.94" fill="#FFF6E9" opacity="0.76"/><circle class="" cx="1297.75" cy="816.32" r="0.97" fill="#FFF6E9" opacity="0.42"/><circle class="" cx="539.31" cy="1171.5" r="2.16" fill="#FFF6E9" opacity="0.61"/><circle class="" cx="1685.65" cy="1425.95" r="1.74" fill="#FFF6E9" opacity="0.61"/><circle class="" cx="2445.79" cy="704.48" r="1.09" fill="#FFF6E9" opacity="0.53"/><circle class="" cx="2036.95" cy="1229.64" r="1.02" fill="#FFF6E9" opacity="0.51"/><circle class="" cx="1222.92" cy="756.93" r="1.01" fill="#FFF6E9" opacity="0.34"/><circle class="" cx="1123.75" cy="687.62" r="0.99" fill="#FFF6E9" opacity="0.19"/><circle class="" cx="153.91" cy="251.21" r="1.39" fill="#FFF6E9" opacity="0.48"/><circle class="" cx="1874.78" cy="530.28" r="1.31" fill="#FFF6E9" opacity="0.65"/><circle class="" cx="1819.48" cy="1152.16" r="1.6" fill="#FFF6E9" opacity="0.65"/><circle class="" cx="1055.14" cy="810.2" r="1.2" fill="#FFF6E9" opacity="0.49"/><circle class="" cx="1987.8" cy="115.22" r="1.13" fill="#FFF6E9" opacity="0.67"/><circle class="" cx="2118.08" cy="1115.53" r="1.43" fill="#FFF6E9" opacity="0.4"/><circle class="" cx="2356.04" cy="361.92" r="1.31" fill="#FFF6E9" opacity="0.46"/><circle class="" cx="2125.59" cy="581.81" r="2.36" fill="#FFF6E9" opacity="0.51"/><circle class="" cx="1116.97" cy="487.53" r="1.61" fill="#FFF6E9" opacity="0.36"/><circle class="" cx="2263.53" cy="824.05" r="2.38" fill="#FFF6E9" opacity="0.67"/><circle class="" cx="1268.83" cy="629" r="1.89" fill="#FFF6E9" opacity="0.73"/><circle class="" cx="1409.68" cy="946.61" r="0.98" fill="#FFF6E9" opacity="0.59"/><circle class="" cx="1000.45" cy="877.99" r="2.16" fill="#FFF6E9" opacity="0.41"/><circle class="" cx="756.18" cy="130.35" r="1.86" fill="#FFF6E9" opacity="0.61"/><circle class="" cx="2469.45" cy="457.08" r="1.14" fill="#FFF6E9" opacity="0.23"/><circle class="" cx="1844.11" cy="1333.71" r="2.03" fill="#FFF6E9" opacity="0.67"/><circle class="" cx="1001.2" cy="1027.52" r="1.99" fill="#FFF6E9" opacity="0.55"/><circle class="" cx="1857.34" cy="894.97" r="1.71" fill="#FFF6E9" opacity="0.35"/><circle class="" cx="2129.78" cy="694.94" r="0.94" fill="#FFF6E9" opacity="0.61"/><circle class="" cx="1187.57" cy="805.73" r="1.64" fill="#FFF6E9" opacity="0.7"/><circle class="" cx="2439.76" cy="220.75" r="0.87" fill="#FFF6E9" opacity="0.36"/><circle class="" cx="1341.1" cy="565.57" r="2.25" fill="#FFF6E9" opacity="0.68"/><circle class="" cx="1357.09" cy="1307.46" r="1.17" fill="#FFF6E9" opacity="0.47"/><circle class="" cx="2370.4" cy="973.34" r="2.05" fill="#FFF6E9" opacity="0.38"/><circle class="" cx="2328.5" cy="1396.25" r="2.13" fill="#FFF6E9" opacity="0.19"/><circle class="" cx="428.75" cy="1083.78" r="0.88" fill="#FFF6E9" opacity="0.24"/><circle class="" cx="2334.27" cy="390.63" r="1.7" fill="#FFF6E9" opacity="0.34"/><circle class="" cx="2032.42" cy="1036.2" r="0.8" fill="#FFF6E9" opacity="0.45"/><circle class="" cx="2507.54" cy="118.62" r="0.85" fill="#FFF6E9" opacity="0.41"/><circle class="" cx="2020.41" cy="995.49" r="1.16" fill="#FFF6E9" opacity="0.48"/><circle class="" cx="272.27" cy="695.06" r="1.44" fill="#FFF6E9" opacity="0.5"/><circle class="" cx="430.09" cy="1112.07" r="1.22" fill="#FFF6E9" opacity="0.59"/><circle class="" cx="721.64" cy="1209.38" r="1.8" fill="#FFF6E9" opacity="0.38"/><circle class="" cx="242.62" cy="153.7" r="2.38" fill="#FFF6E9" opacity="0.59"/><circle class="" cx="659.88" cy="745.83" r="0.82" fill="#FFF6E9" opacity="0.49"/><circle class="" cx="1091.8" cy="1122.05" r="0.98" fill="#FFF6E9" opacity="0.62"/><circle class="" cx="436.37" cy="343.98" r="1.05" fill="#FFF6E9" opacity="0.7"/><circle class="" cx="78.86" cy="48.15" r="2.3" fill="#FFF6E9" opacity="0.72"/><circle class="" cx="1238.37" cy="828.94" r="1.9" fill="#FFF6E9" opacity="0.29"/><circle class="" cx="1326.28" cy="107.27" r="1.71" fill="#FFF6E9" opacity="0.61"/><circle class="" cx="2163.71" cy="100.44" r="1.67" fill="#FFF6E9" opacity="0.4"/><circle class="" cx="142.83" cy="1325.43" r="1.16" fill="#FFF6E9" opacity="0.28"/><circle class="" cx="725.78" cy="500.51" r="2.05" fill="#FFF6E9" opacity="0.66"/><circle class="" cx="2217.04" cy="1113.94" r="1.9" fill="#FFF6E9" opacity="0.69"/><circle class="" cx="1632.27" cy="1010.96" r="1.87" fill="#FFF6E9" opacity="0.37"/><circle class="" cx="1032.52" cy="950.23" r="1.26" fill="#FFF6E9" opacity="0.33"/><circle class="" cx="1271.07" cy="861.43" r="1.85" fill="#FFF6E9" opacity="0.44"/><circle class="" cx="1820.62" cy="347.9" r="1.95" fill="#FFF6E9" opacity="0.49"/><circle class="" cx="1382.98" cy="949.67" r="1.77" fill="#FFF6E9" opacity="0.24"/><circle class="" cx="1072.18" cy="1361.15" r="1.91" fill="#FFF6E9" opacity="0.48"/><circle class="" cx="1779.85" cy="455.54" r="2.36" fill="#FFF6E9" opacity="0.23"/><circle class="" cx="1952.37" cy="643.07" r="1.08" fill="#FFF6E9" opacity="0.47"/><circle class="" cx="577.12" cy="1230.94" r="2.4" fill="#FFF6E9" opacity="0.5"/><circle class="" cx="2418.58" cy="239.76" r="1.52" fill="#FFF6E9" opacity="0.29"/><circle class="" cx="109.47" cy="1010.09" r="2" fill="#FFF6E9" opacity="0.32"/><circle class="" cx="16.8" cy="694.01" r="1.83" fill="#FFF6E9" opacity="0.37"/><circle class="" cx="1372.1" cy="1354.03" r="1.2" fill="#FFF6E9" opacity="0.51"/><circle class="" cx="1779.57" cy="432.08" r="0.88" fill="#FFF6E9" opacity="0.56"/><circle class="" cx="304.77" cy="787.4" r="1.47" fill="#FFF6E9" opacity="0.58"/><circle class="" cx="2096.31" cy="1067.37" r="1.68" fill="#FFF6E9" opacity="0.64"/><circle class="" cx="1349.2" cy="1083.8" r="1.74" fill="#FFF6E9" opacity="0.54"/><circle class="" cx="1534.29" cy="972.22" r="2" fill="#FFF6E9" opacity="0.61"/><circle class="" cx="2243.88" cy="1237.39" r="1.85" fill="#FFF6E9" opacity="0.55"/><circle class="" cx="384.53" cy="367.17" r="2.39" fill="#FFF6E9" opacity="0.31"/><circle class="" cx="694.57" cy="263.57" r="1.26" fill="#FFF6E9" opacity="0.59"/><circle class="" cx="1653.35" cy="472.6" r="0.88" fill="#FFF6E9" opacity="0.37"/><circle class="" cx="2402.27" cy="136.23" r="0.96" fill="#FFF6E9" opacity="0.34"/><circle class="" cx="1876.07" cy="0.76" r="1.91" fill="#FFF6E9" opacity="0.19"/><circle class="" cx="2499.35" cy="731.26" r="2.35" fill="#FFF6E9" opacity="0.54"/><circle class="" cx="988.36" cy="1109.07" r="1.17" fill="#FFF6E9" opacity="0.4"/><circle class="" cx="1693.64" cy="1101.61" r="1.62" fill="#FFF6E9" opacity="0.61"/><circle class="" cx="973.07" cy="884.43" r="1.12" fill="#FFF6E9" opacity="0.23"/><circle class="" cx="1020.62" cy="324.18" r="2" fill="#FFF6E9" opacity="0.28"/><circle class="" cx="829.77" cy="140.54" r="1.27" fill="#FFF6E9" opacity="0.73"/><circle class="" cx="2273.52" cy="840.72" r="1.94" fill="#FFF6E9" opacity="0.69"/><circle class="" cx="39.78" cy="283.24" r="1.05" fill="#FFF6E9" opacity="0.43"/><circle class="" cx="1180.45" cy="219.87" r="1.48" fill="#FFF6E9" opacity="0.4"/><circle class="" cx="23.05" cy="8.98" r="1.78" fill="#FFF6E9" opacity="0.44"/><circle class="" cx="771.08" cy="61.97" r="1.45" fill="#FFF6E9" opacity="0.63"/><circle class="" cx="2215.01" cy="779.83" r="1.92" fill="#FFF6E9" opacity="0.76"/><circle class="" cx="2397.57" cy="1000.56" r="1.9" fill="#FFF6E9" opacity="0.38"/><circle class="" cx="775.69" cy="1145.37" r="1.28" fill="#FFF6E9" opacity="0.63"/><circle class="" cx="157.76" cy="828.87" r="1.68" fill="#FFF6E9" opacity="0.33"/><circle class="" cx="1174.25" cy="954.73" r="2.24" fill="#FFF6E9" opacity="0.36"/><circle class="" cx="35.91" cy="828.15" r="1.52" fill="#FFF6E9" opacity="0.22"/><circle class="" cx="128.44" cy="579.23" r="1.01" fill="#FFF6E9" opacity="0.58"/><circle class="" cx="1877.4" cy="1149.37" r="2.01" fill="#FFF6E9" opacity="0.64"/><circle class="" cx="1288.82" cy="1338.04" r="2.25" fill="#FFF6E9" opacity="0.49"/><circle class="" cx="2420.71" cy="1330.5" r="1.28" fill="#FFF6E9" opacity="0.71"/><circle class="" cx="2036.17" cy="712.86" r="1.38" fill="#FFF6E9" opacity="0.35"/><circle class="" cx="1271.8" cy="1380.23" r="1.95" fill="#FFF6E9" opacity="0.39"/><circle class="" cx="1948.28" cy="1079.2" r="1.78" fill="#FFF6E9" opacity="0.61"/><circle class="" cx="1588.19" cy="1182.14" r="0.84" fill="#FFF6E9" opacity="0.64"/><circle class="" cx="2349.93" cy="257.45" r="1.39" fill="#FFF6E9" opacity="0.62"/><circle class="" cx="1990.16" cy="735.62" r="1.42" fill="#FFF6E9" opacity="0.73"/><circle class="" cx="2535.28" cy="216.9" r="1.82" fill="#FFF6E9" opacity="0.33"/><circle class="" cx="1554.14" cy="1207.59" r="0.87" fill="#FFF6E9" opacity="0.3"/><circle class="" cx="2203.57" cy="104.18" r="2.09" fill="#FFF6E9" opacity="0.37"/><circle class="" cx="1643.11" cy="498.03" r="2.08" fill="#FFF6E9" opacity="0.32"/><circle class="" cx="375.22" cy="673.25" r="1.73" fill="#FFF6E9" opacity="0.25"/><circle class="" cx="2487.02" cy="91.61" r="1.76" fill="#FFF6E9" opacity="0.49"/><circle class="" cx="441.93" cy="1156.99" r="2.28" fill="#FFF6E9" opacity="0.58"/><circle class="" cx="82.68" cy="266.08" r="1.7" fill="#FFF6E9" opacity="0.32"/><circle class="" cx="780.76" cy="626.25" r="0.99" fill="#FFF6E9" opacity="0.25"/><circle class="" cx="1224.67" cy="991.3" r="2.31" fill="#FFF6E9" opacity="0.57"/><circle class="" cx="1690.11" cy="676.1" r="1.3" fill="#FFF6E9" opacity="0.24"/><circle class="" cx="825.12" cy="823.56" r="1.75" fill="#FFF6E9" opacity="0.7"/><circle class="" cx="189.89" cy="368.38" r="0.82" fill="#FFF6E9" opacity="0.47"/><circle class="" cx="1818.87" cy="1344.03" r="0.84" fill="#FFF6E9" opacity="0.63"/><circle class="" cx="2441.59" cy="647.66" r="2.2" fill="#FFF6E9" opacity="0.67"/><circle class="" cx="1187.1" cy="76.3" r="1.11" fill="#FFF6E9" opacity="0.66"/><circle class="" cx="370.01" cy="529.11" r="2.05" fill="#FFF6E9" opacity="0.58"/><circle class="" cx="738.66" cy="267.26" r="2.31" fill="#FFF6E9" opacity="0.67"/><circle class="" cx="947.15" cy="712.93" r="1.75" fill="#FFF6E9" opacity="0.67"/><circle class="" cx="249.41" cy="79.58" r="1.15" fill="#FFF6E9" opacity="0.7"/><circle class="" cx="2117.74" cy="1392.97" r="2.04" fill="#FFF6E9" opacity="0.45"/><circle class="" cx="839.38" cy="537.28" r="0.86" fill="#FFF6E9" opacity="0.46"/><circle class="" cx="497.95" cy="163.87" r="1.27" fill="#FFF6E9" opacity="0.5"/><circle class="" cx="665.4" cy="912.48" r="2.31" fill="#FFF6E9" opacity="0.76"/><circle class="" cx="193.43" cy="1333.3" r="2.12" fill="#FFF6E9" opacity="0.6"/><circle class="" cx="2239.6" cy="647.06" r="2.04" fill="#FFF6E9" opacity="0.72"/><circle class="" cx="2124.67" cy="489.47" r="0.93" fill="#FFF6E9" opacity="0.42"/><circle class="" cx="152.2" cy="33.71" r="2.03" fill="#FFF6E9" opacity="0.24"/><circle class="" cx="552" cy="619.78" r="1.11" fill="#FFF6E9" opacity="0.73"/><circle class="" cx="1811.32" cy="509.91" r="2.37" fill="#FFF6E9" opacity="0.38"/><circle class="" cx="646.82" cy="852.79" r="1.55" fill="#FFF6E9" opacity="0.74"/><circle class="" cx="2080.16" cy="63.63" r="2.18" fill="#FFF6E9" opacity="0.74"/><circle class="" cx="2041.55" cy="15.56" r="1.49" fill="#FFF6E9" opacity="0.32"/><circle class="" cx="372.16" cy="803.42" r="2.21" fill="#FFF6E9" opacity="0.45"/><circle class="" cx="2253.63" cy="1333.67" r="1.29" fill="#FFF6E9" opacity="0.19"/><circle class="" cx="91.73" cy="666.54" r="2.32" fill="#FFF6E9" opacity="0.69"/><circle class="" cx="1217.3" cy="738.01" r="1.91" fill="#FFF6E9" opacity="0.63"/><circle class="" cx="1016.45" cy="103.25" r="1.84" fill="#FFF6E9" opacity="0.28"/><circle class="" cx="362.8" cy="705.59" r="1.65" fill="#FFF6E9" opacity="0.19"/><circle class="" cx="640.89" cy="1421.86" r="1.68" fill="#FFF6E9" opacity="0.64"/><circle class="" cx="2256.18" cy="971.97" r="1.42" fill="#FFF6E9" opacity="0.68"/><circle class="" cx="1177.29" cy="1106.08" r="1.38" fill="#FFF6E9" opacity="0.24"/><circle class="" cx="2114.18" cy="210.32" r="0.92" fill="#FFF6E9" opacity="0.31"/><circle class="" cx="595.11" cy="1162.77" r="0.73" fill="#FFF6E9" opacity="0.5"/><circle class="" cx="882.59" cy="806.64" r="0.89" fill="#FFF6E9" opacity="0.24"/><circle class="" cx="107.77" cy="1059.54" r="1.15" fill="#FFF6E9" opacity="0.35"/><circle class="" cx="1702.19" cy="826.06" r="1.17" fill="#FFF6E9" opacity="0.46"/><circle class="" cx="999.97" cy="251.88" r="2.26" fill="#FFF6E9" opacity="0.36"/><circle class="" cx="1968.67" cy="677.06" r="1.82" fill="#FFF6E9" opacity="0.69"/><circle class="" cx="2547.29" cy="1145.96" r="1.77" fill="#FFF6E9" opacity="0.41"/><circle class="" cx="2.85" cy="1177.9" r="2.21" fill="#FFF6E9" opacity="0.66"/><circle class="" cx="694.83" cy="853.69" r="1.55" fill="#FFF6E9" opacity="0.34"/><circle class="" cx="916.02" cy="596.22" r="2.3" fill="#FFF6E9" opacity="0.72"/><circle class="" cx="1407.84" cy="1077.17" r="1.33" fill="#FFF6E9" opacity="0.51"/><circle class="" cx="228.08" cy="254.74" r="1.86" fill="#FFF6E9" opacity="0.39"/><circle class="" cx="1435.2" cy="1044" r="1.02" fill="#FFF6E9" opacity="0.61"/><circle class="" cx="82.4" cy="1398.4" r="1.6" fill="#FFF6E9" opacity="0.41"/><circle class="" cx="1494.5" cy="1073.81" r="1.36" fill="#FFF6E9" opacity="0.58"/><circle class="" cx="1150.56" cy="284.72" r="1.31" fill="#FFF6E9" opacity="0.45"/><circle class="" cx="296.44" cy="285.23" r="1.71" fill="#FFF6E9" opacity="0.6"/><circle class="" cx="859.82" cy="127.73" r="2.01" fill="#FFF6E9" opacity="0.73"/><circle class="" cx="371.38" cy="817.83" r="0.94" fill="#FFF6E9" opacity="0.62"/><circle class="" cx="431.47" cy="1206.77" r="1.35" fill="#FFF6E9" opacity="0.76"/><circle class="" cx="1195.08" cy="846.09" r="1.24" fill="#FFF6E9" opacity="0.48"/><circle class="" cx="1640.25" cy="791.45" r="2.21" fill="#FFF6E9" opacity="0.27"/><circle class="" cx="6.3" cy="847.29" r="2.31" fill="#FFF6E9" opacity="0.54"/><circle class="" cx="2518.35" cy="75.42" r="1.81" fill="#FFF6E9" opacity="0.36"/><circle class="" cx="2269.47" cy="1057.45" r="0.79" fill="#FFF6E9" opacity="0.29"/><circle class="" cx="2538.05" cy="1092.62" r="1.94" fill="#FFF6E9" opacity="0.65"/><circle class="" cx="1096.32" cy="1330.94" r="1.81" fill="#FFF6E9" opacity="0.44"/><circle class="" cx="1527.2" cy="1065.8" r="1.79" fill="#FFF6E9" opacity="0.26"/><circle class="" cx="2424.2" cy="1256.99" r="2.25" fill="#FFF6E9" opacity="0.35"/><circle class="" cx="1761.36" cy="1313.94" r="1.46" fill="#FFF6E9" opacity="0.46"/><circle class="" cx="1101.96" cy="699.03" r="1.73" fill="#FFF6E9" opacity="0.39"/><circle class="" cx="1320.51" cy="1338.21" r="0.97" fill="#FFF6E9" opacity="0.52"/><circle class="" cx="188.54" cy="531.83" r="1.61" fill="#FFF6E9" opacity="0.51"/><circle class="" cx="2499.18" cy="1113.23" r="2.01" fill="#FFF6E9" opacity="0.59"/><circle class="" cx="1157.69" cy="1118.57" r="2.21" fill="#FFF6E9" opacity="0.46"/><circle class="" cx="410.18" cy="398.67" r="2.19" fill="#FFF6E9" opacity="0.51"/><circle class="" cx="1962.78" cy="1373.39" r="1.5" fill="#FFF6E9" opacity="0.38"/><circle class="" cx="1126.47" cy="884.25" r="0.71" fill="#FFF6E9" opacity="0.47"/><circle class="" cx="1402.76" cy="787.3" r="0.93" fill="#FFF6E9" opacity="0.29"/><path class="" d="M 29.96 81.34 L 32.8 86.38 L 37.84 89.22 L 32.8 92.06 L 29.96 97.1 L 27.12 92.06 L 22.08 89.22 L 27.12 86.38 Z" fill="#FFF6E9" opacity="0.76"/><path class="" d="M 2281.13 1375.93 L 2283.72 1380.53 L 2288.32 1383.12 L 2283.72 1385.71 L 2281.13 1390.31 L 2278.54 1385.71 L 2273.94 1383.12 L 2278.54 1380.53 Z" fill="#FFF6E9" opacity="0.98"/><path class="" d="M 443.27 31.17 L 444.54 33.44 L 446.81 34.71 L 444.54 35.98 L 443.27 38.25 L 442 35.98 L 439.73 34.71 L 442 33.44 Z" fill="#FFF6E9" opacity="0.99"/><path class="" d="M 2464.61 318.29 L 2467.45 323.34 L 2472.5 326.18 L 2467.45 329.02 L 2464.61 334.07 L 2461.77 329.02 L 2456.72 326.18 L 2461.77 323.34 Z" fill="#FFC24D" opacity="0.77"/><path class="" d="M 2131.13 49.29 L 2132.54 51.79 L 2135.04 53.2 L 2132.54 54.61 L 2131.13 57.11 L 2129.72 54.61 L 2127.22 53.2 L 2129.72 51.79 Z" fill="#FFF6E9" opacity="0.95"/><path class="" d="M 1126.79 556.96 L 1129.34 561.49 L 1133.87 564.04 L 1129.34 566.59 L 1126.79 571.12 L 1124.24 566.59 L 1119.71 564.04 L 1124.24 561.49 Z" fill="#FFC24D" opacity="0.78"/><path class="" d="M 2319.21 47.59 L 2321.64 51.9 L 2325.95 54.33 L 2321.64 56.76 L 2319.21 61.07 L 2316.78 56.76 L 2312.47 54.33 L 2316.78 51.9 Z" fill="#FFC24D" opacity="0.91"/><path class="" d="M 2461.85 472.76 L 2464.49 477.45 L 2469.18 480.09 L 2464.49 482.73 L 2461.85 487.42 L 2459.21 482.73 L 2454.52 480.09 L 2459.21 477.45 Z" fill="#FFF6E9" opacity="0.9"/><path class="" d="M 1459.51 671.29 L 1461.57 674.95 L 1465.23 677.01 L 1461.57 679.07 L 1459.51 682.73 L 1457.45 679.07 L 1453.79 677.01 L 1457.45 674.95 Z" fill="#FFC24D" opacity="0.84"/><path class="" d="M 1051.38 725.99 L 1053.86 730.41 L 1058.28 732.89 L 1053.86 735.37 L 1051.38 739.79 L 1048.9 735.37 L 1044.48 732.89 L 1048.9 730.41 Z" fill="#FFF6E9" opacity="0.83"/><path class="" d="M 1306.54 79.23 L 1307.9 81.66 L 1310.33 83.02 L 1307.9 84.38 L 1306.54 86.81 L 1305.18 84.38 L 1302.75 83.02 L 1305.18 81.66 Z" fill="#FFF6E9" opacity="0.57"/><path class="" d="M 2236.93 447 L 2239.38 451.35 L 2243.73 453.8 L 2239.38 456.25 L 2236.93 460.6 L 2234.48 456.25 L 2230.13 453.8 L 2234.48 451.35 Z" fill="#FFF6E9" opacity="0.83"/><path class="" d="M 330.26 508.35 L 331.57 510.68 L 333.9 511.99 L 331.57 513.3 L 330.26 515.63 L 328.95 513.3 L 326.62 511.99 L 328.95 510.68 Z" fill="#FFC24D" opacity="0.69"/><path class="" d="M 1595.65 241.78 L 1597.27 244.65 L 1600.14 246.27 L 1597.27 247.89 L 1595.65 250.76 L 1594.03 247.89 L 1591.16 246.27 L 1594.03 244.65 Z" fill="#FFF6E9" opacity="0.54"/></g><g opacity="0.75" transform="translate(409.6 316.8) scale(12.1) rotate(-12)">
    <line x1="0" y1="6.4" x2="-9.12" y2="-3.84" stroke="#FFF6E9" stroke-opacity="0.3" stroke-width="0.22"/><line x1="0" y1="6.4" x2="-3.2" y2="-8.32" stroke="#FFF6E9" stroke-opacity="0.3" stroke-width="0.22"/><line x1="0" y1="6.4" x2="3.2" y2="-8.32" stroke="#FFF6E9" stroke-opacity="0.3" stroke-width="0.22"/><line x1="0" y1="6.4" x2="9.12" y2="-3.84" stroke="#FFF6E9" stroke-opacity="0.3" stroke-width="0.22"/>
    <path d="M 0 4.3 L 0.78 5.62 L 2.1 6.4 L 0.78 7.18 L 0 8.5 L -0.78 7.18 L -2.1 6.4 L -0.78 5.62 Z" fill="#FFC24D"/><path d="M -9.12 -5.34 L -8.57 -4.39 L -7.62 -3.84 L -8.57 -3.29 L -9.12 -2.34 L -9.67 -3.29 L -10.62 -3.84 L -9.67 -4.39 Z" fill="#FFF6E9"/><path d="M -3.2 -9.82 L -2.65 -8.87 L -1.7 -8.32 L -2.65 -7.77 L -3.2 -6.82 L -3.75 -7.77 L -4.7 -8.32 L -3.75 -8.87 Z" fill="#FFF6E9"/><path d="M 3.2 -9.82 L 3.75 -8.87 L 4.7 -8.32 L 3.75 -7.77 L 3.2 -6.82 L 2.65 -7.77 L 1.7 -8.32 L 2.65 -8.87 Z" fill="#FFF6E9"/><path d="M 9.12 -5.34 L 9.67 -4.39 L 10.62 -3.84 L 9.67 -3.29 L 9.12 -2.34 L 8.57 -3.29 L 7.62 -3.84 L 8.57 -4.39 Z" fill="#FFF6E9"/>
  </g><g opacity="0.55">
    <ellipse cx="1992" cy="700.11" rx="695.52" ry="229.82"
      transform="rotate(-16 1992 700.11)" fill="none"
      stroke="#FFF6E9" stroke-opacity="0.5"
      stroke-width="7.26" stroke-dasharray="2 30.24" stroke-linecap="round"/>
    <circle cx="2631.88" cy="573.71" r="18.14" fill="#FFC24D"/>
  </g><g transform="translate(1689.6 397.71) scale(5.04) rotate(-6 60 63)">
  <line x1="60" y1="20" x2="60" y2="12" stroke="url(#nebula)" stroke-width="4" stroke-linecap="round"/>
  <circle cx="60" cy="9.5" r="3.4" fill="#FFC24D"/>
  <rect x="40" y="94" width="40" height="16" rx="7" fill="url(#nebula)"/>
  <circle class="ch-glass" cx="60" cy="63" r="40" fill="#FFF6E9" fill-opacity="0.07"/>
  <g fill="#DE8F55">
    <rect x="34.5" y="40" width="14" height="37" rx="7" transform="rotate(16 41.5 58)"/>
    <rect x="71.5" y="40" width="14" height="37" rx="7" transform="rotate(-16 78.5 58)"/>
  </g>
  <circle cx="60" cy="64" r="24" fill="#F2BD79"/>
  <ellipse cx="60" cy="71.5" rx="11.5" ry="9" fill="#F9EDDC"/>
  <circle cx="51" cy="60" r="3.3" fill="#2A1A35"/>
  <circle cx="69" cy="60" r="3.3" fill="#2A1A35"/>
  <ellipse cx="60" cy="69.5" rx="4.6" ry="3.6" fill="#2A1A35"/>
  <path class="" d="M60 72.5 L60 76.5 M60 76.5 C57 79.6 54 78.6 53 76.4 M60 76.5 C63 79.6 66 78.6 67 76.4" fill="none" stroke="#2A1A35" stroke-width="1.8" stroke-linecap="round"/>
  <path d="M31 43 A 34 34 0 0 1 46 29" fill="none" stroke="#FFF6E9" stroke-opacity="0.4" stroke-width="4" stroke-linecap="round"/>
  <circle cx="60" cy="63" r="40" fill="none" stroke="url(#nebula)" stroke-width="7"/>
  <path d="M 75.5 28.5 L 78.2 33.3 L 83 36 L 78.2 38.7 L 75.5 43.5 L 72.8 38.7 L 68 36 L 72.8 33.3 Z" fill="#FFC24D"/>
  <circle cx="38" cy="86" r="1.8" fill="#FFC24D"/></g>
</svg>
