<svg xmlns="http://www.w3.org/2000/svg" viewBox="0 0 2560 1440" width="2560" height="1440">
<defs>
    <linearGradient id="nebula" x1="20" y1="23" x2="100" y2="103" gradientUnits="userSpaceOnUse"><stop offset="0" stop-color="#FF6D4D"/><stop offset=".55" stop-color="#F5487F"/><stop offset="1" stop-color="#A24BEA"/></linearGradient>
    <linearGradient id="bgLight" x1="0" y1="0" x2="768" y2="1440" gradientUnits="userSpaceOnUse"><stop offset="0" stop-color="#FFFAF0"/><stop offset=".6" stop-color="#F9F0E1"/><stop offset="1" stop-color="#EFE2CC"/></linearGradient>
    <linearGradient id="bgDark" x1="0" y1="0" x2="768" y2="1440" gradientUnits="userSpaceOnUse"><stop offset="0" stop-color="#0E0916"/><stop offset=".55" stop-color="#171021"/><stop offset="1" stop-color="#221232"/></linearGradient>
    <radialGradient id="wpWash1" cx="0.18" cy="0.14" r="0.7"><stop offset="0" stop-color="#FF6D4D" stop-opacity=".3"/><stop offset="1" stop-color="#FF6D4D" stop-opacity="0"/></radialGradient>
    <radialGradient id="wpWash2" cx="0.78" cy="0.72" r="0.85"><stop offset="0" stop-color="#A24BEA" stop-opacity=".34"/><stop offset="1" stop-color="#A24BEA" stop-opacity="0"/></radialGradient>
    <radialGradient id="wpWash3" cx="0.6" cy="0.35" r="0.55"><stop offset="0" stop-color="#F5487F" stop-opacity=".2"/><stop offset="1" stop-color="#F5487F" stop-opacity="0"/></radialGradient>
  </defs><rect class="ch-bg" width="2560" height="1440" fill="url(#bgLight)"/><g class="ch-wash" opacity="0.35">
    <rect width="2560" height="1440" fill="url(#wpWash1)"/>
    <rect width="2560" height="1440" fill="url(#wpWash2)"/>
    <rect width="2560" height="1440" fill="url(#wpWash3)"/>
  </g><g><circle class="" cx="1150.46" cy="1179.01" r="1.11" fill="#2A1A35" opacity="0.16"/><circle class="" cx="153.95" cy="740.42" r="0.82" fill="#2A1A35" opacity="0.17"/><circle class="" cx="564.12" cy="231.19" r="2.32" fill="#2A1A35" opacity="0.19"/><circle class="" cx="232.95" cy="184.04" r="0.77" fill="#2A1A35" opacity="0.17"/><circle class="" cx="1136.89" cy="1083.91" r="2.02" fill="#2A1A35" opacity="0.07"/><circle class="" cx="1162.11" cy="516.4" r="1.55" fill="#2A1A35" opacity="0.12"/><circle class="" cx="1327.5" cy="179.47" r="2.16" fill="#2A1A35" opacity="0.12"/><circle class="" cx="1876.77" cy="1295.53" r="1.57" fill="#2A1A35" opacity="0.19"/><circle class="" cx="1931.32" cy="934.9" r="1.22" fill="#2A1A35" opacity="0.11"/><circle class="" cx="266.47" cy="446.61" r="2.4" fill="#2A1A35" opacity="0.17"/><circle class="" cx="1032.77" cy="68.99" r="1.45" fill="#2A1A35" opacity="0.21"/><circle class="" cx="2554.43" cy="359.94" r="2.16" fill="#2A1A35" opacity="0.08"/><circle class="" cx="1399.99" cy="771.79" r="1" fill="#2A1A35" opacity="0.14"/><circle class="" cx="294.83" cy="154.31" r="2.39" fill="#2A1A35" opacity="0.22"/><circle class="" cx="488.51" cy="32.6" r="2.33" fill="#2A1A35" opacity="0.18"/><circle class="" cx="2033.35" cy="576.13" r="1.46" fill="#2A1A35" opacity="0.07"/><circle class="" cx="958.46" cy="369.13" r="2.37" fill="#2A1A35" opacity="0.23"/><circle class="" cx="2153.06" cy="847.24" r="1.84" fill="#2A1A35" opacity="0.24"/><circle class="" cx="794.05" cy="136.41" r="1.69" fill="#2A1A35" opacity="0.14"/><circle class="" cx="861.82" cy="1285.05" r="1.25" fill="#2A1A35" opacity="0.17"/><circle class="" cx="728.34" cy="1042.13" r="1.61" fill="#2A1A35" opacity="0.14"/><circle class="" cx="1893.99" cy="746.82" r="1.92" fill="#2A1A35" opacity="0.22"/><circle class="" cx="930.66" cy="383.04" r="2.36" fill="#2A1A35" opacity="0.07"/><circle class="" cx="234.45" cy="984.64" r="1.24" fill="#2A1A35" opacity="0.24"/><circle class="" cx="79.27" cy="833.8" r="1.31" fill="#2A1A35" opacity="0.19"/><circle class="" cx="306.38" cy="274.61" r="1.14" fill="#2A1A35" opacity="0.2"/><circle class="" cx="1926.53" cy="158.55" r="1.61" fill="#2A1A35" opacity="0.15"/><circle class="" cx="1574.08" cy="383.87" r="1.15" fill="#2A1A35" opacity="0.16"/><circle class="" cx="669.39" cy="146.02" r="1.5" fill="#2A1A35" opacity="0.1"/><circle class="" cx="1326.49" cy="145.07" r="0.75" fill="#2A1A35" opacity="0.2"/><circle class="" cx="181.15" cy="705.03" r="2.18" fill="#2A1A35" opacity="0.18"/><circle class="" cx="1091.86" cy="906.64" r="1.14" fill="#2A1A35" opacity="0.08"/><circle class="" cx="2161.24" cy="1274.22" r="1.66" fill="#2A1A35" opacity="0.19"/><circle class="" cx="528.4" cy="296.88" r="1.78" fill="#2A1A35" opacity="0.16"/><circle class="" cx="2011.09" cy="320.88" r="1.23" fill="#2A1A35" opacity="0.24"/><circle class="" cx="669.42" cy="1299" r="0.96" fill="#2A1A35" opacity="0.1"/><circle class="" cx="168.72" cy="661.35" r="1.1" fill="#2A1A35" opacity="0.12"/><circle class="" cx="2184.74" cy="6.08" r="0.72" fill="#2A1A35" opacity="0.17"/><circle class="" cx="1391.05" cy="1025.36" r="2.21" fill="#2A1A35" opacity="0.06"/><circle class="" cx="600.58" cy="426.33" r="1.19" fill="#2A1A35" opacity="0.18"/><circle class="" cx="2302.87" cy="352.17" r="1.28" fill="#2A1A35" opacity="0.23"/><circle class="" cx="2006.79" cy="24.1" r="1.37" fill="#2A1A35" opacity="0.13"/><circle class="" cx="1460.15" cy="938.37" r="1.79" fill="#2A1A35" opacity="0.23"/><circle class="" cx="1493.4" cy="166.56" r="1.01" fill="#2A1A35" opacity="0.24"/><circle class="" cx="2452.54" cy="194.72" r="1.18" fill="#2A1A35" opacity="0.17"/><circle class="" cx="2249" cy="829.67" r="2.15" fill="#2A1A35" opacity="0.19"/><circle class="" cx="857.02" cy="536.41" r="1.78" fill="#2A1A35" opacity="0.1"/><circle class="" cx="2042.49" cy="1115.04" r="1.9" fill="#2A1A35" opacity="0.24"/><circle class="" cx="1786.71" cy="1155.92" r="1.96" fill="#2A1A35" opacity="0.19"/><circle class="" cx="133.62" cy="777.45" r="1.65" fill="#2A1A35" opacity="0.14"/><circle class="" cx="2099.13" cy="1042.03" r="1.38" fill="#2A1A35" opacity="0.17"/><circle class="" cx="2306.59" cy="87.15" r="1.02" fill="#2A1A35" opacity="0.08"/><circle class="" cx="751.01" cy="322.4" r="1.01" fill="#2A1A35" opacity="0.11"/><circle class="" cx="1115.08" cy="989.53" r="2.07" fill="#2A1A35" opacity="0.15"/><circle class="" cx="1775.56" cy="1424.94" r="1.22" fill="#2A1A35" opacity="0.07"/><circle class="" cx="2041.05" cy="855.38" r="1.15" fill="#2A1A35" opacity="0.09"/><circle class="" cx="204.98" cy="946.12" r="0.75" fill="#2A1A35" opacity="0.18"/><circle class="" cx="2078.81" cy="257.15" r="1.85" fill="#2A1A35" opacity="0.21"/><circle class="" cx="1323.82" cy="1122.77" r="2.38" fill="#2A1A35" opacity="0.17"/><circle class="" cx="519.14" cy="466.26" r="2.22" fill="#2A1A35" opacity="0.21"/><circle class="" cx="2046.4" cy="1053.63" r="0.88" fill="#2A1A35" opacity="0.19"/><circle class="" cx="369.08" cy="1049.15" r="1.81" fill="#2A1A35" opacity="0.07"/><circle class="" cx="744.14" cy="281.6" r="1.37" fill="#2A1A35" opacity="0.22"/><circle class="" cx="1109.96" cy="1347.12" r="1.42" fill="#2A1A35" opacity="0.15"/><circle class="" cx="1075.2" cy="101.11" r="2.27" fill="#2A1A35" opacity="0.07"/><circle class="" cx="1747.82" cy="686.05" r="2.03" fill="#2A1A35" opacity="0.12"/><circle class="" cx="602.31" cy="1062.58" r="1.03" fill="#2A1A35" opacity="0.1"/><circle class="" cx="1149.45" cy="1170.83" r="0.8" fill="#2A1A35" opacity="0.24"/><circle class="" cx="331.74" cy="95.46" r="1.7" fill="#2A1A35" opacity="0.13"/><circle class="" cx="1102.55" cy="377.41" r="0.78" fill="#2A1A35" opacity="0.2"/><circle class="" cx="1756.94" cy="26.78" r="2.07" fill="#2A1A35" opacity="0.22"/><circle class="" cx="2245.94" cy="1143.19" r="0.89" fill="#2A1A35" opacity="0.14"/><circle class="" cx="2347.6" cy="1108.31" r="1.11" fill="#2A1A35" opacity="0.25"/><circle class="" cx="1388.09" cy="439.51" r="2.29" fill="#2A1A35" opacity="0.23"/><circle class="" cx="1611" cy="448.43" r="1.79" fill="#2A1A35" opacity="0.2"/><circle class="" cx="685.35" cy="1230.78" r="2.36" fill="#2A1A35" opacity="0.24"/><circle class="" cx="1144.08" cy="720.1" r="2.13" fill="#2A1A35" opacity="0.15"/><circle class="" cx="1624.3" cy="988.67" r="1.16" fill="#2A1A35" opacity="0.08"/><circle class="" cx="2058.55" cy="205.78" r="1.55" fill="#2A1A35" opacity="0.17"/><circle class="" cx="1173.33" cy="1135.44" r="2.27" fill="#2A1A35" opacity="0.14"/><circle class="" cx="2402.9" cy="522.9" r="1.68" fill="#2A1A35" opacity="0.09"/><circle class="" cx="1673.36" cy="691.95" r="0.77" fill="#2A1A35" opacity="0.08"/><circle class="" cx="307.93" cy="409.86" r="1.13" fill="#2A1A35" opacity="0.17"/><circle class="" cx="2199.59" cy="460.19" r="1.67" fill="#2A1A35" opacity="0.22"/><circle class="" cx="2173.87" cy="87.3" r="1.95" fill="#2A1A35" opacity="0.09"/><circle class="" cx="503.1" cy="88.74" r="2.14" fill="#2A1A35" opacity="0.16"/><circle class="" cx="2227.35" cy="630.77" r="1.5" fill="#2A1A35" opacity="0.24"/><circle class="" cx="2352.72" cy="239.88" r="1.46" fill="#2A1A35" opacity="0.17"/><circle class="" cx="1320.25" cy="90.31" r="1.41" fill="#2A1A35" opacity="0.12"/><circle class="" cx="306.53" cy="772.67" r="1.53" fill="#2A1A35" opacity="0.12"/><circle class="" cx="1765.58" cy="633.54" r="1.51" fill="#2A1A35" opacity="0.15"/><circle class="" cx="1429.37" cy="1372.96" r="1.21" fill="#2A1A35" opacity="0.16"/><circle class="" cx="71.74" cy="1375.84" r="1.62" fill="#2A1A35" opacity="0.19"/><circle class="" cx="604.77" cy="999.96" r="0.73" fill="#2A1A35" opacity="0.2"/><circle class="" cx="1961.54" cy="1214.14" r="1.23" fill="#2A1A35" opacity="0.24"/><circle class="" cx="617.32" cy="945.28" r="1.76" fill="#2A1A35" opacity="0.16"/><circle class="" cx="31.01" cy="326.29" r="2.01" fill="#2A1A35" opacity="0.09"/><circle class="" cx="320.99" cy="239.93" r="0.71" fill="#2A1A35" opacity="0.23"/><circle class="" cx="318.92" cy="782.7" r="2.25" fill="#2A1A35" opacity="0.16"/><circle class="" cx="1879.78" cy="1332.09" r="0.87" fill="#2A1A35" opacity="0.24"/><circle class="" cx="575.67" cy="950.35" r="1.66" fill="#2A1A35" opacity="0.14"/><circle class="" cx="1074.65" cy="1227.23" r="0.71" fill="#2A1A35" opacity="0.19"/><circle class="" cx="1584.43" cy="1260.96" r="1.41" fill="#2A1A35" opacity="0.15"/><circle class="" cx="1617.85" cy="881.34" r="0.98" fill="#2A1A35" opacity="0.23"/><circle class="" cx="389.36" cy="854.68" r="2.05" fill="#2A1A35" opacity="0.13"/><circle class="" cx="645.33" cy="146.46" r="1.86" fill="#2A1A35" opacity="0.22"/><circle class="" cx="780.56" cy="1259.42" r="0.77" fill="#2A1A35" opacity="0.07"/><circle class="" cx="1707.59" cy="581.69" r="1.67" fill="#2A1A35" opacity="0.12"/><circle class="" cx="158.46" cy="656.32" r="1.17" fill="#2A1A35" opacity="0.15"/><circle class="" cx="1093.83" cy="1046.23" r="1.14" fill="#2A1A35" opacity="0.24"/><circle class="" cx="1917.78" cy="535.85" r="0.82" fill="#2A1A35" opacity="0.24"/><circle class="" cx="1026.5" cy="1410.96" r="1.45" fill="#2A1A35" opacity="0.08"/><circle class="" cx="448.24" cy="335.59" r="0.91" fill="#2A1A35" opacity="0.12"/><circle class="" cx="1468.57" cy="176" r="2.35" fill="#2A1A35" opacity="0.16"/><circle class="" cx="1795.78" cy="795.16" r="1.67" fill="#2A1A35" opacity="0.2"/><circle class="" cx="2140.13" cy="408.84" r="1.71" fill="#2A1A35" opacity="0.14"/><circle class="" cx="2505.55" cy="931.14" r="2.03" fill="#2A1A35" opacity="0.22"/><circle class="" cx="816.44" cy="1034.51" r="1.53" fill="#2A1A35" opacity="0.23"/><circle class="" cx="1725.06" cy="1266.73" r="1.33" fill="#2A1A35" opacity="0.19"/><circle class="" cx="138.85" cy="500.51" r="0.86" fill="#2A1A35" opacity="0.2"/><circle class="" cx="854.73" cy="805.92" r="0.85" fill="#2A1A35" opacity="0.25"/><circle class="" cx="1687.91" cy="535.55" r="1.61" fill="#2A1A35" opacity="0.24"/><circle class="" cx="1052.94" cy="707.36" r="2.31" fill="#2A1A35" opacity="0.17"/><circle class="" cx="2095.93" cy="561.49" r="0.96" fill="#2A1A35" opacity="0.21"/><circle class="" cx="1070.29" cy="758.43" r="2.27" fill="#2A1A35" opacity="0.08"/><circle class="" cx="342.92" cy="293.26" r="2.24" fill="#2A1A35" opacity="0.1"/><circle class="" cx="12.75" cy="1034.96" r="2.11" fill="#2A1A35" opacity="0.08"/><circle class="" cx="2074.76" cy="1282.51" r="1.42" fill="#2A1A35" opacity="0.18"/><circle class="" cx="2130.42" cy="793.49" r="1.45" fill="#2A1A35" opacity="0.17"/><circle class="" cx="355.03" cy="23.16" r="1.4" fill="#2A1A35" opacity="0.08"/><circle class="" cx="2425.47" cy="1325.08" r="1.48" fill="#2A1A35" opacity="0.11"/><circle class="" cx="1739.36" cy="163.75" r="0.81" fill="#2A1A35" opacity="0.24"/><circle class="" cx="1889" cy="1104.94" r="0.99" fill="#2A1A35" opacity="0.24"/><circle class="" cx="1178.02" cy="1042.21" r="1.8" fill="#2A1A35" opacity="0.17"/><circle class="" cx="2489.66" cy="1021.97" r="1.55" fill="#2A1A35" opacity="0.2"/><circle class="" cx="580.97" cy="226.07" r="0.88" fill="#2A1A35" opacity="0.18"/><circle class="" cx="1668.45" cy="928.13" r="2.38" fill="#2A1A35" opacity="0.07"/><circle class="" cx="1764.24" cy="252.08" r="1.5" fill="#2A1A35" opacity="0.25"/><circle class="" cx="929.33" cy="697.31" r="1.39" fill="#2A1A35" opacity="0.24"/><circle class="" cx="363.15" cy="1349.39" r="2.02" fill="#2A1A35" opacity="0.1"/><circle class="" cx="589.69" cy="1254.55" r="0.9" fill="#2A1A35" opacity="0.12"/><circle class="" cx="981.95" cy="276.08" r="2.36" fill="#2A1A35" opacity="0.18"/><circle class="" cx="1557.49" cy="699.25" r="1.66" fill="#2A1A35" opacity="0.14"/><circle class="" cx="1842.54" cy="836.02" r="2.36" fill="#2A1A35" opacity="0.23"/><circle class="" cx="2014.08" cy="645.49" r="2.06" fill="#2A1A35" opacity="0.1"/><circle class="" cx="1097.4" cy="1229.53" r="2.37" fill="#2A1A35" opacity="0.21"/><circle class="" cx="1807.56" cy="580.99" r="1.24" fill="#2A1A35" opacity="0.08"/><circle class="" cx="2117.39" cy="894.9" r="2.19" fill="#2A1A35" opacity="0.2"/><circle class="" cx="1922.75" cy="745.81" r="2.34" fill="#2A1A35" opacity="0.21"/><circle class="" cx="682.09" cy="532.23" r="1.98" fill="#2A1A35" opacity="0.09"/><circle class="" cx="172.64" cy="617.56" r="1.53" fill="#2A1A35" opacity="0.21"/><circle class="" cx="2188.7" cy="618.27" r="1.93" fill="#2A1A35" opacity="0.08"/><circle class="" cx="2492.29" cy="724.8" r="2.2" fill="#2A1A35" opacity="0.21"/><circle class="" cx="702.83" cy="493.46" r="2.28" fill="#2A1A35" opacity="0.16"/><circle class="" cx="1111.86" cy="1090.52" r="1.54" fill="#2A1A35" opacity="0.2"/><circle class="" cx="796.54" cy="85.38" r="1.84" fill="#2A1A35" opacity="0.17"/><circle class="" cx="1137.1" cy="1424.87" r="2.18" fill="#2A1A35" opacity="0.08"/><circle class="" cx="2452.47" cy="364.34" r="2.08" fill="#2A1A35" opacity="0.09"/><circle class="" cx="1407.77" cy="283.47" r="1.79" fill="#2A1A35" opacity="0.24"/><circle class="" cx="573.36" cy="1408.53" r="0.78" fill="#2A1A35" opacity="0.14"/><circle class="" cx="936.25" cy="699.35" r="2.12" fill="#2A1A35" opacity="0.15"/><circle class="" cx="206.24" cy="859.81" r="1.9" fill="#2A1A35" opacity="0.24"/><circle class="" cx="70.33" cy="1030.81" r="0.71" fill="#2A1A35" opacity="0.22"/><circle class="" cx="586.33" cy="226.15" r="1.25" fill="#2A1A35" opacity="0.1"/><circle class="" cx="1272.13" cy="344.19" r="0.9" fill="#2A1A35" opacity="0.23"/><circle class="" cx="580.02" cy="832.71" r="1.85" fill="#2A1A35" opacity="0.22"/><circle class="" cx="2194.08" cy="558.41" r="2.28" fill="#2A1A35" opacity="0.17"/><circle class="" cx="2374.29" cy="127.94" r="0.89" fill="#2A1A35" opacity="0.2"/><circle class="" cx="1414.38" cy="235.03" r="0.75" fill="#2A1A35" opacity="0.1"/><circle class="" cx="2442.96" cy="1384.79" r="1.87" fill="#2A1A35" opacity="0.07"/><circle class="" cx="1208.05" cy="1031.51" r="2.35" fill="#2A1A35" opacity="0.18"/><circle class="" cx="1899.11" cy="1289.1" r="1.44" fill="#2A1A35" opacity="0.12"/><circle class="" cx="1204.41" cy="1233.8" r="0.83" fill="#2A1A35" opacity="0.11"/><circle class="" cx="1839.37" cy="1250.13" r="0.81" fill="#2A1A35" opacity="0.22"/><circle class="" cx="1631.66" cy="702.76" r="0.7" fill="#2A1A35" opacity="0.22"/><circle class="" cx="1600.93" cy="1296.72" r="2.07" fill="#2A1A35" opacity="0.09"/><circle class="" cx="116.34" cy="404.5" r="0.75" fill="#2A1A35" opacity="0.18"/><circle class="" cx="587.12" cy="388.68" r="1.83" fill="#2A1A35" opacity="0.23"/><circle class="" cx="1492.99" cy="525.59" r="1.93" fill="#2A1A35" opacity="0.07"/><circle class="" cx="1621.7" cy="303.44" r="0.72" fill="#2A1A35" opacity="0.09"/><circle class="" cx="2067.38" cy="482.03" r="1.77" fill="#2A1A35" opacity="0.15"/><circle class="" cx="1906.04" cy="691.3" r="1.12" fill="#2A1A35" opacity="0.16"/><circle class="" cx="1706.73" cy="812.39" r="2.24" fill="#2A1A35" opacity="0.15"/><circle class="" cx="815.39" cy="1074.89" r="2.09" fill="#2A1A35" opacity="0.09"/><circle class="" cx="1866.36" cy="967.96" r="1.42" fill="#2A1A35" opacity="0.1"/><circle class="" cx="1179.79" cy="822.07" r="0.98" fill="#2A1A35" opacity="0.1"/><circle class="" cx="942.05" cy="1129.94" r="1.99" fill="#2A1A35" opacity="0.24"/><circle class="" cx="1367.91" cy="18.61" r="2.23" fill="#2A1A35" opacity="0.2"/><circle class="" cx="443.18" cy="564.74" r="2.19" fill="#2A1A35" opacity="0.18"/><circle class="" cx="2544.95" cy="177.22" r="0.94" fill="#2A1A35" opacity="0.24"/><circle class="" cx="19.05" cy="581.69" r="1.9" fill="#2A1A35" opacity="0.14"/><circle class="" cx="169.75" cy="858.95" r="1.19" fill="#2A1A35" opacity="0.21"/><circle class="" cx="814.62" cy="247.77" r="1.11" fill="#2A1A35" opacity="0.22"/><circle class="" cx="108.99" cy="432.48" r="1.56" fill="#2A1A35" opacity="0.18"/><circle class="" cx="1251.59" cy="411.42" r="1.74" fill="#2A1A35" opacity="0.18"/><circle class="" cx="215.06" cy="726.01" r="2.2" fill="#2A1A35" opacity="0.08"/><circle class="" cx="356.31" cy="687.36" r="2.3" fill="#2A1A35" opacity="0.23"/><circle class="" cx="1684.77" cy="1178.07" r="1.33" fill="#2A1A35" opacity="0.07"/><circle class="" cx="225.91" cy="1307.44" r="0.78" fill="#2A1A35" opacity="0.12"/><circle class="" cx="459.41" cy="256.06" r="1.15" fill="#2A1A35" opacity="0.06"/><circle class="" cx="2234.1" cy="241.34" r="1" fill="#2A1A35" opacity="0.06"/><circle class="" cx="1278.7" cy="389.19" r="1.51" fill="#2A1A35" opacity="0.23"/><circle class="" cx="974.2" cy="564.62" r="1.59" fill="#2A1A35" opacity="0.08"/><circle class="" cx="2099.63" cy="468.66" r="1.05" fill="#2A1A35" opacity="0.23"/><circle class="" cx="196.74" cy="1012.82" r="2.03" fill="#2A1A35" opacity="0.16"/><circle class="" cx="1103.49" cy="677.31" r="2.14" fill="#2A1A35" opacity="0.24"/><circle class="" cx="696.99" cy="24.65" r="1.39" fill="#2A1A35" opacity="0.09"/><circle class="" cx="1543.74" cy="709.44" r="1.04" fill="#2A1A35" opacity="0.22"/><circle class="" cx="2308.26" cy="744.08" r="2.2" fill="#2A1A35" opacity="0.1"/><path class="" d="M 400.12 895.78 L 401.74 898.66 L 404.62 900.28 L 401.74 901.9 L 400.12 904.78 L 398.5 901.9 L 395.62 900.28 L 398.5 898.66 Z" fill="#2A1A35" opacity="0.79"/><path class="" d="M 1067.88 425.53 L 1070.22 429.7 L 1074.39 432.04 L 1070.22 434.38 L 1067.88 438.55 L 1065.54 434.38 L 1061.37 432.04 L 1065.54 429.7 Z" fill="#FFC24D" opacity="0.88"/><path class="" d="M 1782.6 765.91 L 1785.33 770.76 L 1790.18 773.49 L 1785.33 776.22 L 1782.6 781.07 L 1779.87 776.22 L 1775.02 773.49 L 1779.87 770.76 Z" fill="#FFC24D" opacity="0.65"/><path class="" d="M 596.22 1326.88 L 597.59 1329.32 L 600.03 1330.69 L 597.59 1332.06 L 596.22 1334.5 L 594.85 1332.06 L 592.41 1330.69 L 594.85 1329.32 Z" fill="#FFC24D" opacity="0.93"/><path class="" d="M 1827.66 822.49 L 1829.05 824.95 L 1831.51 826.34 L 1829.05 827.73 L 1827.66 830.19 L 1826.27 827.73 L 1823.81 826.34 L 1826.27 824.95 Z" fill="#FFC24D" opacity="0.74"/><path class="" d="M 293.62 324.89 L 296.22 329.51 L 300.84 332.11 L 296.22 334.71 L 293.62 339.33 L 291.02 334.71 L 286.4 332.11 L 291.02 329.51 Z" fill="#2A1A35" opacity="0.72"/><path class="" d="M 2055.45 298.57 L 2057.64 302.45 L 2061.52 304.64 L 2057.64 306.83 L 2055.45 310.71 L 2053.26 306.83 L 2049.38 304.64 L 2053.26 302.45 Z" fill="#FFC24D" opacity="0.73"/><path class="" d="M 2467.22 571.95 L 2469.73 576.42 L 2474.2 578.93 L 2469.73 581.44 L 2467.22 585.91 L 2464.71 581.44 L 2460.24 578.93 L 2464.71 576.42 Z" fill="#FFC24D" opacity="0.79"/><path class="" d="M 331.89 1140.21 L 333.22 1142.58 L 335.59 1143.91 L 333.22 1145.24 L 331.89 1147.61 L 330.56 1145.24 L 328.19 1143.91 L 330.56 1142.58 Z" fill="#FFC24D" opacity="0.59"/><path class="" d="M 1496.89 327.29 L 1499.7 332.29 L 1504.7 335.1 L 1499.7 337.91 L 1496.89 342.91 L 1494.08 337.91 L 1489.08 335.1 L 1494.08 332.29 Z" fill="#2A1A35" opacity="0.54"/><path class="" d="M 1022.51 1308.03 L 1025.32 1313.03 L 1030.32 1315.84 L 1025.32 1318.65 L 1022.51 1323.65 L 1019.7 1318.65 L 1014.7 1315.84 L 1019.7 1313.03 Z" fill="#2A1A35" opacity="0.92"/><path class="" d="M 184.85 1380.68 L 186.17 1383.02 L 188.51 1384.34 L 186.17 1385.66 L 184.85 1388 L 183.53 1385.66 L 181.19 1384.34 L 183.53 1383.02 Z" fill="#FFC24D" opacity="0.65"/><path class="" d="M 1470.69 358.64 L 1472.88 362.54 L 1476.78 364.73 L 1472.88 366.92 L 1470.69 370.82 L 1468.5 366.92 L 1464.6 364.73 L 1468.5 362.54 Z" fill="#FFC24D" opacity="0.53"/><path class="" d="M 1811.03 1081.96 L 1813.1 1085.63 L 1816.77 1087.7 L 1813.1 1089.77 L 1811.03 1093.44 L 1808.96 1089.77 L 1805.29 1087.7 L 1808.96 1085.63 Z" fill="#2A1A35" opacity="0.83"/></g><g opacity="0.6" transform="translate(409.6 316.8) scale(12.1) rotate(-12)">
    <line x1="0" y1="6.4" x2="-9.12" y2="-3.84" stroke="#2A1A35" stroke-opacity="0.3" stroke-width="0.22"/><line x1="0" y1="6.4" x2="-3.2" y2="-8.32" stroke="#2A1A35" stroke-opacity="0.3" stroke-width="0.22"/><line x1="0" y1="6.4" x2="3.2" y2="-8.32" stroke="#2A1A35" stroke-opacity="0.3" stroke-width="0.22"/><line x1="0" y1="6.4" x2="9.12" y2="-3.84" stroke="#2A1A35" stroke-opacity="0.3" stroke-width="0.22"/>
    <path d="M 0 4.3 L 0.78 5.62 L 2.1 6.4 L 0.78 7.18 L 0 8.5 L -0.78 7.18 L -2.1 6.4 L -0.78 5.62 Z" fill="#FFC24D"/><path d="M -9.12 -5.34 L -8.57 -4.39 L -7.62 -3.84 L -8.57 -3.29 L -9.12 -2.34 L -9.67 -3.29 L -10.62 -3.84 L -9.67 -4.39 Z" fill="#2A1A35"/><path d="M -3.2 -9.82 L -2.65 -8.87 L -1.7 -8.32 L -2.65 -7.77 L -3.2 -6.82 L -3.75 -7.77 L -4.7 -8.32 L -3.75 -8.87 Z" fill="#2A1A35"/><path d="M 3.2 -9.82 L 3.75 -8.87 L 4.7 -8.32 L 3.75 -7.77 L 3.2 -6.82 L 2.65 -7.77 L 1.7 -8.32 L 2.65 -8.87 Z" fill="#2A1A35"/><path d="M 9.12 -5.34 L 9.67 -4.39 L 10.62 -3.84 L 9.67 -3.29 L 9.12 -2.34 L 8.57 -3.29 L 7.62 -3.84 L 8.57 -4.39 Z" fill="#2A1A35"/>
  </g><g opacity="0.55">
    <ellipse cx="1992" cy="700.11" rx="695.52" ry="229.82"
      transform="rotate(-16 1992 700.11)" fill="none"
      stroke="#2A1A35" stroke-opacity="0.4"
      stroke-width="7.26" stroke-dasharray="2 30.24" stroke-linecap="round"/>
    <circle cx="2631.88" cy="573.71" r="18.14" fill="#FFC24D"/>
  </g><g transform="translate(1689.6 397.71) scale(5.04) rotate(-6 60 63)">
  <line x1="60" y1="20" x2="60" y2="12" stroke="url(#nebula)" stroke-width="4" stroke-linecap="round"/>
  <circle cx="60" cy="9.5" r="3.4" fill="#FFC24D"/>
  <rect x="40" y="94" width="40" height="16" rx="7" fill="url(#nebula)"/>
  <circle class="ch-glass" cx="60" cy="63" r="40" fill="#241833" fill-opacity="1"/>
  <g fill="#DE8F55">
    <rect x="34.5" y="40" width="14" height="37" rx="7" transform="rotate(16 41.5 58)"/>
    <rect x="71.5" y="40" width="14" height="37" rx="7" transform="rotate(-16 78.5 58)"/>
  </g>
  <circle cx="60" cy="64" r="24" fill="#F2BD79"/>
  <ellipse cx="60" cy="71.5" rx="11.5" ry="9" fill="#F9EDDC"/>
  <circle cx="51" cy="60" r="3.3" fill="#2A1A35"/>
  <circle cx="69" cy="60" r="3.3" fill="#2A1A35"/>
  <ellipse cx="60" cy="69.5" rx="4.6" ry="3.6" fill="#2A1A35"/>
  <path class="" d="M60 72.5 L60 76.5 M60 76.5 C57 79.6 54 78.6 53 76.4 M60 76.5 C63 79.6 66 78.6 67 76.4" fill="none" stroke="#2A1A35" stroke-width="1.8" stroke-linecap="round"/>
  <path d="M31 43 A 34 34 0 0 1 46 29" fill="none" stroke="#FFF6E9" stroke-opacity="0.4" stroke-width="4" stroke-linecap="round"/>
  <circle cx="60" cy="63" r="40" fill="none" stroke="url(#nebula)" stroke-width="7"/>
  <path d="M 75.5 28.5 L 78.2 33.3 L 83 36 L 78.2 38.7 L 75.5 43.5 L 72.8 38.7 L 68 36 L 72.8 33.3 Z" fill="#FFC24D"/>
  <circle cx="38" cy="86" r="1.8" fill="#FFC24D"/></g>
</svg>
