<svg xmlns="http://www.w3.org/2000/svg" viewBox="0 0 1440 3120" width="1440" height="3120">
<defs>
    <linearGradient id="nebula" x1="20" y1="23" x2="100" y2="103" gradientUnits="userSpaceOnUse"><stop offset="0" stop-color="#FF6D4D"/><stop offset=".55" stop-color="#F5487F"/><stop offset="1" stop-color="#A24BEA"/></linearGradient>
    <linearGradient id="bgLight" x1="0" y1="0" x2="0" y2="3120" gradientUnits="userSpaceOnUse"><stop offset="0" stop-color="#FFFAF0"/><stop offset=".6" stop-color="#F9F0E1"/><stop offset="1" stop-color="#EFE2CC"/></linearGradient>
    <linearGradient id="bgDark" x1="0" y1="0" x2="0" y2="3120" gradientUnits="userSpaceOnUse"><stop offset="0" stop-color="#0E0916"/><stop offset=".55" stop-color="#171021"/><stop offset="1" stop-color="#221232"/></linearGradient>
    <radialGradient id="wpWash1" cx="0.18" cy="0.14" r="0.7"><stop offset="0" stop-color="#FF6D4D" stop-opacity=".3"/><stop offset="1" stop-color="#FF6D4D" stop-opacity="0"/></radialGradient>
    <radialGradient id="wpWash2" cx="0.85" cy="0.8" r="0.85"><stop offset="0" stop-color="#A24BEA" stop-opacity=".34"/><stop offset="1" stop-color="#A24BEA" stop-opacity="0"/></radialGradient>
    <radialGradient id="wpWash3" cx="0.6" cy="0.45" r="0.55"><stop offset="0" stop-color="#F5487F" stop-opacity=".2"/><stop offset="1" stop-color="#F5487F" stop-opacity="0"/></radialGradient>
  </defs><rect class="ch-bg" width="1440" height="3120" fill="url(#bgDark)"/><g class="ch-wash" opacity="0.5">
    <rect width="1440" height="3120" fill="url(#wpWash1)"/>
    <rect width="1440" height="3120" fill="url(#wpWash2)"/>
    <rect width="1440" height="3120" fill="url(#wpWash3)"/>
  </g><g><circle class="" cx="583.95" cy="1454.65" r="1.11" fill="#FFF6E9" opacity="0.51"/><circle class="" cx="1050.94" cy="804.38" r="0.97" fill="#FFF6E9" opacity="0.63"/><circle class="" cx="746.5" cy="615.07" r="1.33" fill="#FFF6E9" opacity="0.36"/><circle class="" cx="770.02" cy="924.55" r="2.36" fill="#FFF6E9" opacity="0.33"/><circle class="" cx="1264" cy="595.27" r="0.94" fill="#FFF6E9" opacity="0.28"/><circle class="" cx="418.97" cy="1709.45" r="2" fill="#FFF6E9" opacity="0.23"/><circle class="" cx="1314.63" cy="1727.58" r="1.76" fill="#FFF6E9" opacity="0.58"/><circle class="" cx="1391.03" cy="1948.07" r="2.27" fill="#FFF6E9" opacity="0.67"/><circle class="" cx="57.57" cy="545.82" r="1.31" fill="#FFF6E9" opacity="0.44"/><circle class="" cx="29.05" cy="274.89" r="2.01" fill="#FFF6E9" opacity="0.4"/><circle class="" cx="614.47" cy="1462.23" r="2.31" fill="#FFF6E9" opacity="0.59"/><circle class="" cx="991.15" cy="1031.62" r="1.31" fill="#FFF6E9" opacity="0.27"/><circle class="" cx="191.94" cy="2848.67" r="1.25" fill="#FFF6E9" opacity="0.3"/><circle class="" cx="910.38" cy="1050.73" r="0.77" fill="#FFF6E9" opacity="0.58"/><circle class="" cx="1326.78" cy="1709.36" r="2.11" fill="#FFF6E9" opacity="0.57"/><circle class="" cx="1324.62" cy="365.17" r="1.6" fill="#FFF6E9" opacity="0.56"/><circle class="" cx="1393.21" cy="1711.53" r="2.09" fill="#FFF6E9" opacity="0.19"/><circle class="" cx="743.15" cy="1023.54" r="1.93" fill="#FFF6E9" opacity="0.51"/><circle class="" cx="1087.8" cy="3048.03" r="1.65" fill="#FFF6E9" opacity="0.66"/><circle class="" cx="619.19" cy="2004.14" r="1.96" fill="#FFF6E9" opacity="0.51"/><circle class="" cx="449.83" cy="738.93" r="0.72" fill="#FFF6E9" opacity="0.21"/><circle class="" cx="1358.49" cy="2600.11" r="1.77" fill="#FFF6E9" opacity="0.2"/><circle class="" cx="891.21" cy="1856.08" r="1.92" fill="#FFF6E9" opacity="0.76"/><circle class="" cx="400.32" cy="3077.18" r="1.8" fill="#FFF6E9" opacity="0.65"/><circle class="" cx="899.13" cy="2590.03" r="0.94" fill="#FFF6E9" opacity="0.76"/><circle class="" cx="729.98" cy="1768.7" r="0.97" fill="#FFF6E9" opacity="0.42"/><circle class="" cx="303.36" cy="2538.25" r="2.16" fill="#FFF6E9" opacity="0.61"/><circle class="" cx="948.18" cy="3089.56" r="1.74" fill="#FFF6E9" opacity="0.61"/><circle class="" cx="1375.76" cy="1526.37" r="1.09" fill="#FFF6E9" opacity="0.53"/><circle class="" cx="1145.78" cy="2664.23" r="1.02" fill="#FFF6E9" opacity="0.51"/><circle class="" cx="687.9" cy="1640.01" r="1.01" fill="#FFF6E9" opacity="0.34"/><circle class="" cx="632.11" cy="1489.84" r="0.99" fill="#FFF6E9" opacity="0.19"/><circle class="" cx="86.57" cy="544.3" r="1.39" fill="#FFF6E9" opacity="0.48"/><circle class="" cx="1054.56" cy="1148.93" r="1.31" fill="#FFF6E9" opacity="0.65"/><circle class="" cx="1023.46" cy="2496.36" r="1.6" fill="#FFF6E9" opacity="0.65"/><circle class="" cx="593.52" cy="1755.43" r="1.2" fill="#FFF6E9" opacity="0.49"/><circle class="" cx="1118.14" cy="249.64" r="1.13" fill="#FFF6E9" opacity="0.67"/><circle class="" cx="1191.42" cy="2416.97" r="1.43" fill="#FFF6E9" opacity="0.4"/><circle class="" cx="1325.27" cy="784.16" r="1.31" fill="#FFF6E9" opacity="0.46"/><circle class="" cx="1195.64" cy="1260.6" r="2.36" fill="#FFF6E9" opacity="0.51"/><circle class="" cx="628.29" cy="1056.31" r="1.61" fill="#FFF6E9" opacity="0.36"/><circle class="" cx="1273.23" cy="1785.45" r="2.38" fill="#FFF6E9" opacity="0.67"/><circle class="" cx="713.72" cy="1362.84" r="1.89" fill="#FFF6E9" opacity="0.73"/><circle class="" cx="792.94" cy="2051" r="0.98" fill="#FFF6E9" opacity="0.59"/><circle class="" cx="562.76" cy="1902.3" r="2.16" fill="#FFF6E9" opacity="0.41"/><circle class="" cx="425.35" cy="282.43" r="1.86" fill="#FFF6E9" opacity="0.61"/><circle class="" cx="1389.07" cy="990.34" r="1.14" fill="#FFF6E9" opacity="0.23"/><circle class="" cx="1037.31" cy="2889.7" r="2.03" fill="#FFF6E9" opacity="0.67"/><circle class="" cx="563.18" cy="2226.3" r="1.99" fill="#FFF6E9" opacity="0.55"/><circle class="" cx="1044.75" cy="1939.09" r="1.71" fill="#FFF6E9" opacity="0.35"/><circle class="" cx="1198" cy="1505.71" r="0.94" fill="#FFF6E9" opacity="0.61"/><circle class="" cx="668.01" cy="1745.75" r="1.64" fill="#FFF6E9" opacity="0.7"/><circle class="" cx="1372.37" cy="478.28" r="0.87" fill="#FFF6E9" opacity="0.36"/><circle class="" cx="754.37" cy="1225.4" r="2.25" fill="#FFF6E9" opacity="0.68"/><circle class="" cx="763.36" cy="2832.83" r="1.17" fill="#FFF6E9" opacity="0.47"/><circle class="" cx="1333.35" cy="2108.9" r="2.05" fill="#FFF6E9" opacity="0.38"/><circle class="" cx="1309.78" cy="3025.21" r="2.13" fill="#FFF6E9" opacity="0.19"/><circle class="" cx="241.17" cy="2348.19" r="0.88" fill="#FFF6E9" opacity="0.24"/><circle class="" cx="1313.03" cy="846.36" r="1.7" fill="#FFF6E9" opacity="0.34"/><circle class="" cx="1143.23" cy="2245.09" r="0.8" fill="#FFF6E9" opacity="0.45"/><circle class="" cx="1410.49" cy="257.01" r="0.85" fill="#FFF6E9" opacity="0.41"/><circle class="" cx="1136.48" cy="2156.9" r="1.16" fill="#FFF6E9" opacity="0.48"/><circle class="" cx="153.15" cy="1505.97" r="1.44" fill="#FFF6E9" opacity="0.5"/><circle class="" cx="241.93" cy="2409.49" r="1.22" fill="#FFF6E9" opacity="0.59"/><circle class="" cx="405.92" cy="2620.33" r="1.8" fill="#FFF6E9" opacity="0.38"/><circle class="" cx="136.47" cy="333.02" r="2.38" fill="#FFF6E9" opacity="0.59"/><circle class="" cx="371.18" cy="1615.97" r="0.82" fill="#FFF6E9" opacity="0.49"/><circle class="" cx="614.14" cy="2431.1" r="0.98" fill="#FFF6E9" opacity="0.62"/><circle class="" cx="245.46" cy="745.29" r="1.05" fill="#FFF6E9" opacity="0.7"/><circle class="" cx="44.36" cy="104.33" r="2.3" fill="#FFF6E9" opacity="0.72"/><circle class="" cx="696.58" cy="1796.04" r="1.9" fill="#FFF6E9" opacity="0.29"/><circle class="" cx="746.03" cy="232.41" r="1.71" fill="#FFF6E9" opacity="0.61"/><circle class="" cx="1217.08" cy="217.62" r="1.67" fill="#FFF6E9" opacity="0.4"/><circle class="" cx="80.34" cy="2871.77" r="1.16" fill="#FFF6E9" opacity="0.28"/><circle class="" cx="408.25" cy="1084.44" r="2.05" fill="#FFF6E9" opacity="0.66"/><circle class="" cx="1247.09" cy="2413.53" r="1.9" fill="#FFF6E9" opacity="0.69"/><circle class="" cx="918.15" cy="2190.42" r="1.87" fill="#FFF6E9" opacity="0.37"/><circle class="" cx="580.79" cy="2058.82" r="1.26" fill="#FFF6E9" opacity="0.33"/><circle class="" cx="714.98" cy="1866.42" r="1.85" fill="#FFF6E9" opacity="0.44"/><circle class="" cx="1024.1" cy="753.79" r="1.95" fill="#FFF6E9" opacity="0.49"/><circle class="" cx="777.92" cy="2057.62" r="1.77" fill="#FFF6E9" opacity="0.24"/><circle class="" cx="603.1" cy="2949.16" r="1.91" fill="#FFF6E9" opacity="0.48"/><circle class="" cx="1001.17" cy="987.01" r="2.36" fill="#FFF6E9" opacity="0.23"/><circle class="" cx="1098.21" cy="1393.31" r="1.08" fill="#FFF6E9" opacity="0.47"/><circle class="" cx="324.63" cy="2667.04" r="2.4" fill="#FFF6E9" opacity="0.5"/><circle class="" cx="1360.45" cy="519.47" r="1.52" fill="#FFF6E9" opacity="0.29"/><circle class="" cx="61.58" cy="2188.53" r="2" fill="#FFF6E9" opacity="0.32"/><circle class="" cx="9.45" cy="1503.68" r="1.83" fill="#FFF6E9" opacity="0.37"/><circle class="" cx="771.81" cy="2933.72" r="1.2" fill="#FFF6E9" opacity="0.51"/><circle class="" cx="1001.01" cy="936.18" r="0.88" fill="#FFF6E9" opacity="0.56"/><circle class="" cx="171.43" cy="1706.03" r="1.47" fill="#FFF6E9" opacity="0.58"/><circle class="" cx="1179.17" cy="2312.63" r="1.68" fill="#FFF6E9" opacity="0.64"/><circle class="" cx="758.93" cy="2348.24" r="1.74" fill="#FFF6E9" opacity="0.54"/><circle class="" cx="863.04" cy="2106.47" r="2" fill="#FFF6E9" opacity="0.61"/><circle class="" cx="1262.18" cy="2681.01" r="1.85" fill="#FFF6E9" opacity="0.55"/><circle class="" cx="216.3" cy="795.53" r="2.39" fill="#FFF6E9" opacity="0.31"/><circle class="" cx="390.7" cy="571.07" r="1.26" fill="#FFF6E9" opacity="0.59"/><circle class="" cx="930.01" cy="1023.96" r="0.88" fill="#FFF6E9" opacity="0.37"/><circle class="" cx="1351.28" cy="295.16" r="0.96" fill="#FFF6E9" opacity="0.34"/><circle class="" cx="1055.29" cy="1.64" r="1.91" fill="#FFF6E9" opacity="0.19"/><circle class="" cx="1405.88" cy="1584.41" r="2.35" fill="#FFF6E9" opacity="0.54"/><circle class="" cx="555.95" cy="2402.98" r="1.17" fill="#FFF6E9" opacity="0.4"/><circle class="" cx="952.67" cy="2386.83" r="1.62" fill="#FFF6E9" opacity="0.61"/><circle class="" cx="547.35" cy="1916.27" r="1.12" fill="#FFF6E9" opacity="0.23"/><circle class="" cx="574.1" cy="702.39" r="2" fill="#FFF6E9" opacity="0.28"/><circle class="" cx="466.74" cy="304.5" r="1.27" fill="#FFF6E9" opacity="0.73"/><circle class="" cx="1278.86" cy="1821.56" r="1.94" fill="#FFF6E9" opacity="0.69"/><circle class="" cx="22.38" cy="613.68" r="1.05" fill="#FFF6E9" opacity="0.43"/><circle class="" cx="664" cy="476.39" r="1.48" fill="#FFF6E9" opacity="0.4"/><circle class="" cx="12.97" cy="19.47" r="1.78" fill="#FFF6E9" opacity="0.44"/><circle class="" cx="433.73" cy="134.28" r="1.45" fill="#FFF6E9" opacity="0.63"/><circle class="" cx="1245.94" cy="1689.64" r="1.92" fill="#FFF6E9" opacity="0.76"/><circle class="" cx="1348.63" cy="2167.89" r="1.9" fill="#FFF6E9" opacity="0.38"/><circle class="" cx="436.32" cy="2481.64" r="1.28" fill="#FFF6E9" opacity="0.63"/><circle class="" cx="88.74" cy="1795.89" r="1.68" fill="#FFF6E9" opacity="0.33"/><circle class="" cx="660.51" cy="2068.58" r="2.24" fill="#FFF6E9" opacity="0.36"/><circle class="" cx="20.2" cy="1794.32" r="1.52" fill="#FFF6E9" opacity="0.22"/><circle class="" cx="72.25" cy="1255.01" r="1.01" fill="#FFF6E9" opacity="0.58"/><circle class="" cx="1056.04" cy="2490.3" r="2.01" fill="#FFF6E9" opacity="0.64"/><circle class="" cx="724.96" cy="2899.08" r="2.25" fill="#FFF6E9" opacity="0.49"/><circle class="" cx="1361.65" cy="2882.74" r="1.28" fill="#FFF6E9" opacity="0.71"/><circle class="" cx="1145.34" cy="1544.53" r="1.38" fill="#FFF6E9" opacity="0.35"/><circle class="" cx="715.39" cy="2990.49" r="1.95" fill="#FFF6E9" opacity="0.39"/><circle class="" cx="1095.91" cy="2338.26" r="1.78" fill="#FFF6E9" opacity="0.61"/><circle class="" cx="893.36" cy="2561.3" r="0.84" fill="#FFF6E9" opacity="0.64"/><circle class="" cx="1321.84" cy="557.81" r="1.39" fill="#FFF6E9" opacity="0.62"/><circle class="" cx="1119.47" cy="1593.85" r="1.42" fill="#FFF6E9" opacity="0.73"/><circle class="" cx="1426.09" cy="469.96" r="1.82" fill="#FFF6E9" opacity="0.33"/><circle class="" cx="874.2" cy="2616.44" r="0.87" fill="#FFF6E9" opacity="0.3"/><circle class="" cx="1239.51" cy="225.72" r="2.09" fill="#FFF6E9" opacity="0.37"/><circle class="" cx="924.25" cy="1079.06" r="2.08" fill="#FFF6E9" opacity="0.32"/><circle class="" cx="211.06" cy="1458.71" r="1.73" fill="#FFF6E9" opacity="0.25"/><circle class="" cx="1398.95" cy="198.48" r="1.76" fill="#FFF6E9" opacity="0.49"/><circle class="" cx="248.59" cy="2506.82" r="2.28" fill="#FFF6E9" opacity="0.58"/><circle class="" cx="46.51" cy="576.51" r="1.7" fill="#FFF6E9" opacity="0.32"/><circle class="" cx="439.18" cy="1356.87" r="0.99" fill="#FFF6E9" opacity="0.25"/><circle class="" cx="688.88" cy="2147.81" r="2.31" fill="#FFF6E9" opacity="0.57"/><circle class="" cx="950.69" cy="1464.89" r="1.3" fill="#FFF6E9" opacity="0.24"/><circle class="" cx="464.13" cy="1784.39" r="1.75" fill="#FFF6E9" opacity="0.7"/><circle class="" cx="106.81" cy="798.16" r="0.82" fill="#FFF6E9" opacity="0.47"/><circle class="" cx="1023.11" cy="2912.06" r="0.84" fill="#FFF6E9" opacity="0.63"/><circle class="" cx="1373.39" cy="1403.26" r="2.2" fill="#FFF6E9" opacity="0.67"/><circle class="" cx="667.74" cy="165.31" r="1.11" fill="#FFF6E9" opacity="0.66"/><circle class="" cx="208.13" cy="1146.4" r="2.05" fill="#FFF6E9" opacity="0.58"/><circle class="" cx="415.5" cy="579.05" r="2.31" fill="#FFF6E9" opacity="0.67"/><circle class="" cx="532.77" cy="1544.67" r="1.75" fill="#FFF6E9" opacity="0.67"/><circle class="" cx="140.3" cy="172.43" r="1.15" fill="#FFF6E9" opacity="0.7"/><circle class="" cx="1191.23" cy="3018.1" r="2.04" fill="#FFF6E9" opacity="0.45"/><circle class="" cx="472.15" cy="1164.1" r="0.86" fill="#FFF6E9" opacity="0.46"/><circle class="" cx="280.1" cy="355.06" r="1.27" fill="#FFF6E9" opacity="0.5"/><circle class="" cx="374.29" cy="1977.04" r="2.31" fill="#FFF6E9" opacity="0.76"/><circle class="" cx="108.8" cy="2888.82" r="2.12" fill="#FFF6E9" opacity="0.6"/><circle class="" cx="1259.78" cy="1401.96" r="2.04" fill="#FFF6E9" opacity="0.72"/><circle class="" cx="1195.13" cy="1060.53" r="0.93" fill="#FFF6E9" opacity="0.42"/><circle class="" cx="85.61" cy="73.04" r="2.03" fill="#FFF6E9" opacity="0.24"/><circle class="" cx="310.5" cy="1342.86" r="1.11" fill="#FFF6E9" opacity="0.73"/><circle class="" cx="1018.87" cy="1104.8" r="2.37" fill="#FFF6E9" opacity="0.38"/><circle class="" cx="363.84" cy="1847.71" r="1.55" fill="#FFF6E9" opacity="0.74"/><circle class="" cx="1170.09" cy="137.87" r="2.18" fill="#FFF6E9" opacity="0.74"/><circle class="" cx="1148.37" cy="33.71" r="1.49" fill="#FFF6E9" opacity="0.32"/><circle class="" cx="209.34" cy="1740.75" r="2.21" fill="#FFF6E9" opacity="0.45"/><circle class="" cx="1267.67" cy="2889.62" r="1.29" fill="#FFF6E9" opacity="0.19"/><circle class="" cx="51.6" cy="1444.18" r="2.32" fill="#FFF6E9" opacity="0.69"/><circle class="" cx="684.73" cy="1599.01" r="1.91" fill="#FFF6E9" opacity="0.63"/><circle class="" cx="571.75" cy="223.72" r="1.84" fill="#FFF6E9" opacity="0.28"/><circle class="" cx="204.07" cy="1528.79" r="1.65" fill="#FFF6E9" opacity="0.19"/><circle class="" cx="360.5" cy="3080.69" r="1.68" fill="#FFF6E9" opacity="0.64"/><circle class="" cx="1269.1" cy="2105.94" r="1.42" fill="#FFF6E9" opacity="0.68"/><circle class="" cx="662.23" cy="2396.5" r="1.38" fill="#FFF6E9" opacity="0.24"/><circle class="" cx="1189.22" cy="455.69" r="0.92" fill="#FFF6E9" opacity="0.31"/><circle class="" cx="334.75" cy="2519.34" r="0.73" fill="#FFF6E9" opacity="0.5"/><circle class="" cx="496.46" cy="1747.71" r="0.89" fill="#FFF6E9" opacity="0.24"/><circle class="" cx="60.62" cy="2295.66" r="1.15" fill="#FFF6E9" opacity="0.35"/><circle class="" cx="957.48" cy="1789.79" r="1.17" fill="#FFF6E9" opacity="0.46"/><circle class="" cx="562.48" cy="545.74" r="2.26" fill="#FFF6E9" opacity="0.36"/><circle class="" cx="1107.38" cy="1466.96" r="1.82" fill="#FFF6E9" opacity="0.69"/><circle class="" cx="1432.85" cy="2482.92" r="1.77" fill="#FFF6E9" opacity="0.41"/><circle class="" cx="1.6" cy="2552.12" r="2.21" fill="#FFF6E9" opacity="0.66"/><circle class="" cx="390.84" cy="1849.66" r="1.55" fill="#FFF6E9" opacity="0.34"/><circle class="" cx="515.26" cy="1291.81" r="2.3" fill="#FFF6E9" opacity="0.72"/><circle class="" cx="791.91" cy="2333.87" r="1.33" fill="#FFF6E9" opacity="0.51"/><circle class="" cx="128.3" cy="551.93" r="1.86" fill="#FFF6E9" opacity="0.39"/><circle class="" cx="807.3" cy="2261.99" r="1.02" fill="#FFF6E9" opacity="0.61"/><circle class="" cx="46.35" cy="3029.87" r="1.6" fill="#FFF6E9" opacity="0.41"/><circle class="" cx="840.65" cy="2326.59" r="1.36" fill="#FFF6E9" opacity="0.58"/><circle class="" cx="647.19" cy="616.88" r="1.31" fill="#FFF6E9" opacity="0.45"/><circle class="" cx="166.75" cy="617.99" r="1.71" fill="#FFF6E9" opacity="0.6"/><circle class="" cx="483.65" cy="276.75" r="2.01" fill="#FFF6E9" opacity="0.73"/><circle class="" cx="208.9" cy="1771.96" r="0.94" fill="#FFF6E9" opacity="0.62"/><circle class="" cx="242.7" cy="2614.67" r="1.35" fill="#FFF6E9" opacity="0.76"/><circle class="" cx="672.23" cy="1833.19" r="1.24" fill="#FFF6E9" opacity="0.48"/><circle class="" cx="922.64" cy="1714.81" r="2.21" fill="#FFF6E9" opacity="0.27"/><circle class="" cx="3.54" cy="1835.79" r="2.31" fill="#FFF6E9" opacity="0.54"/><circle class="" cx="1416.57" cy="163.4" r="1.81" fill="#FFF6E9" opacity="0.36"/><circle class="" cx="1276.58" cy="2291.14" r="0.79" fill="#FFF6E9" opacity="0.29"/><circle class="" cx="1427.65" cy="2367.35" r="1.94" fill="#FFF6E9" opacity="0.65"/><circle class="" cx="616.68" cy="2883.69" r="1.81" fill="#FFF6E9" opacity="0.44"/><circle class="" cx="859.05" cy="2309.24" r="1.79" fill="#FFF6E9" opacity="0.26"/><circle class="" cx="1363.61" cy="2723.49" r="2.25" fill="#FFF6E9" opacity="0.35"/><circle class="" cx="990.77" cy="2846.87" r="1.46" fill="#FFF6E9" opacity="0.46"/><circle class="" cx="619.86" cy="1514.57" r="1.73" fill="#FFF6E9" opacity="0.39"/><circle class="" cx="742.79" cy="2899.46" r="0.97" fill="#FFF6E9" opacity="0.52"/><circle class="" cx="106.05" cy="1152.29" r="1.61" fill="#FFF6E9" opacity="0.51"/><circle class="" cx="1405.79" cy="2411.99" r="2.01" fill="#FFF6E9" opacity="0.59"/><circle class="" cx="651.2" cy="2423.57" r="2.21" fill="#FFF6E9" opacity="0.46"/><circle class="" cx="230.73" cy="863.79" r="2.19" fill="#FFF6E9" opacity="0.51"/><circle class="" cx="1104.07" cy="2975.68" r="1.5" fill="#FFF6E9" opacity="0.38"/><circle class="" cx="633.64" cy="1915.88" r="0.71" fill="#FFF6E9" opacity="0.47"/><circle class="" cx="789.05" cy="1705.82" r="0.93" fill="#FFF6E9" opacity="0.29"/><circle class="" cx="870.68" cy="2307.6" r="1.14" fill="#FFF6E9" opacity="0.43"/><circle class="" cx="1030.69" cy="307.98" r="1.34" fill="#FFF6E9" opacity="0.35"/><circle class="" cx="999.24" cy="2756.95" r="1.61" fill="#FFF6E9" opacity="0.49"/><circle class="" cx="263.24" cy="1695.16" r="2.06" fill="#FFF6E9" opacity="0.37"/><circle class="" cx="1378.71" cy="1798.63" r="1.15" fill="#FFF6E9" opacity="0.51"/><circle class="" cx="1285.35" cy="2876.21" r="2.4" fill="#FFF6E9" opacity="0.63"/><circle class="" cx="148.14" cy="1203.88" r="1.96" fill="#FFF6E9" opacity="0.65"/><circle class="" cx="303.31" cy="144.58" r="2.08" fill="#FFF6E9" opacity="0.35"/><circle class="" cx="244.55" cy="1633.54" r="0.92" fill="#FFF6E9" opacity="0.68"/><circle class="" cx="448.34" cy="1841.22" r="2.06" fill="#FFF6E9" opacity="0.58"/><circle class="" cx="1055.21" cy="710.75" r="1.4" fill="#FFF6E9" opacity="0.66"/><circle class="" cx="1278.99" cy="944.11" r="1.29" fill="#FFF6E9" opacity="0.57"/><circle class="" cx="81.73" cy="1811.78" r="2.26" fill="#FFF6E9" opacity="0.38"/><circle class="" cx="829.58" cy="765.87" r="1.99" fill="#FFF6E9" opacity="0.34"/><circle class="" cx="267.59" cy="495.37" r="1.24" fill="#FFF6E9" opacity="0.59"/><circle class="" cx="641.72" cy="629.17" r="1.27" fill="#FFF6E9" opacity="0.49"/><circle class="" cx="1027.42" cy="373.91" r="1.65" fill="#FFF6E9" opacity="0.75"/><circle class="" cx="743.85" cy="1827.52" r="2.29" fill="#FFF6E9" opacity="0.54"/><circle class="" cx="1285.2" cy="2386.41" r="0.88" fill="#FFF6E9" opacity="0.2"/><circle class="" cx="1326.01" cy="2050.93" r="1.2" fill="#FFF6E9" opacity="0.75"/><circle class="" cx="206.39" cy="3012.22" r="2.25" fill="#FFF6E9" opacity="0.74"/><circle class="" cx="212.87" cy="282.5" r="1.44" fill="#FFF6E9" opacity="0.62"/><circle class="" cx="751.99" cy="1734.59" r="1.52" fill="#FFF6E9" opacity="0.49"/><circle class="" cx="933.73" cy="2304.92" r="1.97" fill="#FFF6E9" opacity="0.62"/><circle class="" cx="773.41" cy="1279.02" r="1.22" fill="#FFF6E9" opacity="0.75"/><circle class="" cx="738.68" cy="363.05" r="2.15" fill="#FFF6E9" opacity="0.75"/><circle class="" cx="393.59" cy="1172.17" r="0.83" fill="#FFF6E9" opacity="0.48"/><circle class="" cx="662.13" cy="643.38" r="1.79" fill="#FFF6E9" opacity="0.43"/><circle class="" cx="1415.42" cy="1418.19" r="1.84" fill="#FFF6E9" opacity="0.72"/><circle class="" cx="120.45" cy="1596.76" r="1.22" fill="#FFF6E9" opacity="0.22"/><circle class="" cx="1297.54" cy="240.55" r="1.9" fill="#FFF6E9" opacity="0.3"/><circle class="" cx="447.89" cy="1832.63" r="1.11" fill="#FFF6E9" opacity="0.31"/><circle class="" cx="31.76" cy="378.56" r="2.02" fill="#FFF6E9" opacity="0.69"/><circle class="" cx="481.96" cy="2715.86" r="2.19" fill="#FFF6E9" opacity="0.61"/><circle class="" cx="336.22" cy="1993.66" r="0.72" fill="#FFF6E9" opacity="0.24"/><circle class="" cx="759.43" cy="840" r="1.05" fill="#FFF6E9" opacity="0.36"/><circle class="" cx="1121.63" cy="702.65" r="2" fill="#FFF6E9" opacity="0.3"/><circle class="" cx="867.88" cy="1012.48" r="1.94" fill="#FFF6E9" opacity="0.51"/><circle class="" cx="1218.97" cy="672.67" r="1.43" fill="#FFF6E9" opacity="0.44"/><circle class="" cx="284.57" cy="2718.56" r="1.79" fill="#FFF6E9" opacity="0.62"/><circle class="" cx="784.92" cy="87.61" r="2.35" fill="#FFF6E9" opacity="0.62"/><circle class="" cx="437.25" cy="1960.92" r="2.05" fill="#FFF6E9" opacity="0.37"/><circle class="" cx="412.31" cy="564.78" r="1.52" fill="#FFF6E9" opacity="0.72"/><circle class="" cx="1281.75" cy="665.98" r="1.65" fill="#FFF6E9" opacity="0.54"/><circle class="" cx="649.51" cy="1107.68" r="1.24" fill="#FFF6E9" opacity="0.67"/><circle class="" cx="838.71" cy="2849.66" r="1.92" fill="#FFF6E9" opacity="0.49"/><circle class="" cx="882.37" cy="400.51" r="1.94" fill="#FFF6E9" opacity="0.65"/><path class="" d="M 16.85 185.43 L 19.69 190.47 L 24.73 193.31 L 19.69 196.15 L 16.85 201.19 L 14.01 196.15 L 8.97 193.31 L 14.01 190.47 Z" fill="#FFF6E9" opacity="0.76"/><path class="" d="M 1283.13 2989.56 L 1285.72 2994.16 L 1290.32 2996.75 L 1285.72 2999.34 L 1283.13 3003.94 L 1280.54 2999.34 L 1275.94 2996.75 L 1280.54 2994.16 Z" fill="#FFF6E9" opacity="0.98"/><path class="" d="M 249.34 71.67 L 250.61 73.94 L 252.88 75.21 L 250.61 76.48 L 249.34 78.75 L 248.07 76.48 L 245.8 75.21 L 248.07 73.94 Z" fill="#FFF6E9" opacity="0.99"/><path class="" d="M 1386.34 698.82 L 1389.18 703.87 L 1394.23 706.71 L 1389.18 709.55 L 1386.34 714.6 L 1383.5 709.55 L 1378.45 706.71 L 1383.5 703.87 Z" fill="#FFC24D" opacity="0.77"/><path class="" d="M 1198.76 111.37 L 1200.17 113.87 L 1202.67 115.28 L 1200.17 116.69 L 1198.76 119.19 L 1197.35 116.69 L 1194.85 115.28 L 1197.35 113.87 Z" fill="#FFF6E9" opacity="0.95"/><path class="" d="M 633.82 1215.02 L 636.37 1219.55 L 640.9 1222.1 L 636.37 1224.65 L 633.82 1229.18 L 631.27 1224.65 L 626.74 1222.1 L 631.27 1219.55 Z" fill="#FFC24D" opacity="0.78"/><path class="" d="M 1304.55 110.97 L 1306.98 115.28 L 1311.29 117.71 L 1306.98 120.14 L 1304.55 124.45 L 1302.12 120.14 L 1297.81 117.71 L 1302.12 115.28 Z" fill="#FFC24D" opacity="0.91"/><path class="" d="M 1384.79 1032.86 L 1387.43 1037.55 L 1392.12 1040.19 L 1387.43 1042.83 L 1384.79 1047.52 L 1382.15 1042.83 L 1377.46 1040.19 L 1382.15 1037.55 Z" fill="#FFF6E9" opacity="0.9"/><path class="" d="M 820.98 1461.14 L 823.04 1464.8 L 826.7 1466.86 L 823.04 1468.92 L 820.98 1472.58 L 818.92 1468.92 L 815.26 1466.86 L 818.92 1464.8 Z" fill="#FFC24D" opacity="0.84"/><path class="" d="M 591.4 1581.02 L 593.88 1585.44 L 598.3 1587.92 L 593.88 1590.4 L 591.4 1594.82 L 588.92 1590.4 L 584.5 1587.92 L 588.92 1585.44 Z" fill="#FFF6E9" opacity="0.83"/><path class="" d="M 734.93 176.09 L 736.29 178.52 L 738.72 179.88 L 736.29 181.24 L 734.93 183.67 L 733.57 181.24 L 731.14 179.88 L 733.57 178.52 Z" fill="#FFF6E9" opacity="0.57"/><path class="" d="M 1258.28 976.44 L 1260.73 980.79 L 1265.08 983.24 L 1260.73 985.69 L 1258.28 990.04 L 1255.83 985.69 L 1251.48 983.24 L 1255.83 980.79 Z" fill="#FFF6E9" opacity="0.83"/><path class="" d="M 185.77 1105.67 L 187.08 1108 L 189.41 1109.31 L 187.08 1110.62 L 185.77 1112.95 L 184.46 1110.62 L 182.13 1109.31 L 184.46 1108 Z" fill="#FFC24D" opacity="0.69"/><path class="" d="M 897.55 529.1 L 899.17 531.97 L 902.04 533.59 L 899.17 535.21 L 897.55 538.08 L 895.93 535.21 L 893.06 533.59 L 895.93 531.97 Z" fill="#FFF6E9" opacity="0.54"/><path class="" d="M 756.47 1625 L 757.94 1627.61 L 760.55 1629.08 L 757.94 1630.55 L 756.47 1633.16 L 755 1630.55 L 752.39 1629.08 L 755 1627.61 Z" fill="#FFF6E9" opacity="0.9"/><path class="" d="M 892.69 172.86 L 895.47 177.81 L 900.42 180.59 L 895.47 183.37 L 892.69 188.32 L 889.91 183.37 L 884.96 180.59 L 889.91 177.81 Z" fill="#FFC24D" opacity="0.6"/></g><g opacity="0.75" transform="translate(316.8 468) scale(14.4) rotate(-12)">
    <line x1="0" y1="6.4" x2="-9.12" y2="-3.84" stroke="#FFF6E9" stroke-opacity="0.3" stroke-width="0.22"/><line x1="0" y1="6.4" x2="-3.2" y2="-8.32" stroke="#FFF6E9" stroke-opacity="0.3" stroke-width="0.22"/><line x1="0" y1="6.4" x2="3.2" y2="-8.32" stroke="#FFF6E9" stroke-opacity="0.3" stroke-width="0.22"/><line x1="0" y1="6.4" x2="9.12" y2="-3.84" stroke="#FFF6E9" stroke-opacity="0.3" stroke-width="0.22"/>
    <path d="M 0 4.3 L 0.78 5.62 L 2.1 6.4 L 0.78 7.18 L 0 8.5 L -0.78 7.18 L -2.1 6.4 L -0.78 5.62 Z" fill="#FFC24D"/><path d="M -9.12 -5.34 L -8.57 -4.39 L -7.62 -3.84 L -8.57 -3.29 L -9.12 -2.34 L -9.67 -3.29 L -10.62 -3.84 L -9.67 -4.39 Z" fill="#FFF6E9"/><path d="M -3.2 -9.82 L -2.65 -8.87 L -1.7 -8.32 L -2.65 -7.77 L -3.2 -6.82 L -3.75 -7.77 L -4.7 -8.32 L -3.75 -8.87 Z" fill="#FFF6E9"/><path d="M 3.2 -9.82 L 3.75 -8.87 L 4.7 -8.32 L 3.75 -7.77 L 3.2 -6.82 L 2.65 -7.77 L 1.7 -8.32 L 2.65 -8.87 Z" fill="#FFF6E9"/><path d="M 9.12 -5.34 L 9.67 -4.39 L 10.62 -3.84 L 9.67 -3.29 L 9.12 -2.34 L 8.57 -3.29 L 7.62 -3.84 L 8.57 -4.39 Z" fill="#FFF6E9"/>
  </g><g opacity="0.55">
    <ellipse cx="720" cy="2107.2" rx="828" ry="273.6"
      transform="rotate(-16 720 2107.2)" fill="none"
      stroke="#FFF6E9" stroke-opacity="0.5"
      stroke-width="8.64" stroke-dasharray="2 36" stroke-linecap="round"/>
    <circle cx="1481.76" cy="1956.72" r="21.6" fill="#FFC24D"/>
  </g><g transform="translate(360 1747.2) scale(6) rotate(-6 60 63)">
  <line x1="60" y1="20" x2="60" y2="12" stroke="url(#nebula)" stroke-width="4" stroke-linecap="round"/>
  <circle cx="60" cy="9.5" r="3.4" fill="#FFC24D"/>
  <rect x="40" y="94" width="40" height="16" rx="7" fill="url(#nebula)"/>
  <circle class="ch-glass" cx="60" cy="63" r="40" fill="#FFF6E9" fill-opacity="0.07"/>
  <g fill="#DE8F55">
    <rect x="34.5" y="40" width="14" height="37" rx="7" transform="rotate(16 41.5 58)"/>
    <rect x="71.5" y="40" width="14" height="37" rx="7" transform="rotate(-16 78.5 58)"/>
  </g>
  <circle cx="60" cy="64" r="24" fill="#F2BD79"/>
  <ellipse cx="60" cy="71.5" rx="11.5" ry="9" fill="#F9EDDC"/>
  <circle cx="51" cy="60" r="3.3" fill="#2A1A35"/>
  <circle cx="69" cy="60" r="3.3" fill="#2A1A35"/>
  <ellipse cx="60" cy="69.5" rx="4.6" ry="3.6" fill="#2A1A35"/>
  <path class="" d="M60 72.5 L60 76.5 M60 76.5 C57 79.6 54 78.6 53 76.4 M60 76.5 C63 79.6 66 78.6 67 76.4" fill="none" stroke="#2A1A35" stroke-width="1.8" stroke-linecap="round"/>
  <path d="M31 43 A 34 34 0 0 1 46 29" fill="none" stroke="#FFF6E9" stroke-opacity="0.4" stroke-width="4" stroke-linecap="round"/>
  <circle cx="60" cy="63" r="40" fill="none" stroke="url(#nebula)" stroke-width="7"/>
  <path d="M 75.5 28.5 L 78.2 33.3 L 83 36 L 78.2 38.7 L 75.5 43.5 L 72.8 38.7 L 68 36 L 72.8 33.3 Z" fill="#FFC24D"/>
  <circle cx="38" cy="86" r="1.8" fill="#FFC24D"/></g>
</svg>
