<svg xmlns="http://www.w3.org/2000/svg" viewBox="0 0 1440 3120" width="1440" height="3120">
<style>@media (prefers-color-scheme: dark){.ch-glass{fill:#FFF6E9;fill-opacity:.07}.ch-text{stroke:#FFF6E9}.ch-bg{fill:url(#bgDark)}.ch-dot{fill:#FFF6E9;opacity:.9}.ch-wash{opacity:.5}}</style><defs>
    <linearGradient id="nebula" x1="20" y1="23" x2="100" y2="103" gradientUnits="userSpaceOnUse"><stop offset="0" stop-color="#FF6D4D"/><stop offset=".55" stop-color="#F5487F"/><stop offset="1" stop-color="#A24BEA"/></linearGradient>
    <linearGradient id="bgLight" x1="0" y1="0" x2="0" y2="3120" gradientUnits="userSpaceOnUse"><stop offset="0" stop-color="#FFFAF0"/><stop offset=".6" stop-color="#F9F0E1"/><stop offset="1" stop-color="#EFE2CC"/></linearGradient>
    <linearGradient id="bgDark" x1="0" y1="0" x2="0" y2="3120" gradientUnits="userSpaceOnUse"><stop offset="0" stop-color="#0E0916"/><stop offset=".55" stop-color="#171021"/><stop offset="1" stop-color="#221232"/></linearGradient>
    <radialGradient id="wpWash1" cx="0.18" cy="0.14" r="0.7"><stop offset="0" stop-color="#FF6D4D" stop-opacity=".3"/><stop offset="1" stop-color="#FF6D4D" stop-opacity="0"/></radialGradient>
    <radialGradient id="wpWash2" cx="0.85" cy="0.8" r="0.85"><stop offset="0" stop-color="#A24BEA" stop-opacity=".34"/><stop offset="1" stop-color="#A24BEA" stop-opacity="0"/></radialGradient>
    <radialGradient id="wpWash3" cx="0.6" cy="0.45" r="0.55"><stop offset="0" stop-color="#F5487F" stop-opacity=".2"/><stop offset="1" stop-color="#F5487F" stop-opacity="0"/></radialGradient>
  </defs><rect class="ch-bg" width="1440" height="3120" fill="url(#bgLight)"/><g class="ch-wash" opacity="0.35">
    <rect width="1440" height="3120" fill="url(#wpWash1)"/>
    <rect width="1440" height="3120" fill="url(#wpWash2)"/>
    <rect width="1440" height="3120" fill="url(#wpWash3)"/>
  </g><g><circle class="" cx="647.13" cy="2554.53" r="1.11" fill="#2A1A35" opacity="0.16"/><circle class="" cx="86.6" cy="1604.25" r="0.82" fill="#2A1A35" opacity="0.17"/><circle class="" cx="317.32" cy="500.91" r="2.32" fill="#2A1A35" opacity="0.19"/><circle class="" cx="131.03" cy="398.76" r="0.77" fill="#2A1A35" opacity="0.17"/><circle class="" cx="639.5" cy="2348.48" r="2.02" fill="#2A1A35" opacity="0.07"/><circle class="" cx="653.69" cy="1118.88" r="1.55" fill="#2A1A35" opacity="0.12"/><circle class="" cx="746.72" cy="388.85" r="2.16" fill="#2A1A35" opacity="0.12"/><circle class="" cx="1055.68" cy="2806.97" r="1.57" fill="#2A1A35" opacity="0.19"/><circle class="" cx="1086.37" cy="2025.62" r="1.22" fill="#2A1A35" opacity="0.11"/><circle class="" cx="149.89" cy="967.66" r="2.4" fill="#2A1A35" opacity="0.17"/><circle class="" cx="580.93" cy="149.47" r="1.45" fill="#2A1A35" opacity="0.21"/><circle class="" cx="1436.87" cy="779.88" r="2.16" fill="#2A1A35" opacity="0.08"/><circle class="" cx="787.49" cy="1672.22" r="1" fill="#2A1A35" opacity="0.14"/><circle class="" cx="165.84" cy="334.33" r="2.39" fill="#2A1A35" opacity="0.22"/><circle class="" cx="274.79" cy="70.64" r="2.33" fill="#2A1A35" opacity="0.18"/><circle class="" cx="1143.76" cy="1248.29" r="1.46" fill="#2A1A35" opacity="0.07"/><circle class="" cx="539.13" cy="799.78" r="2.37" fill="#2A1A35" opacity="0.23"/><circle class="" cx="1211.1" cy="1835.7" r="1.84" fill="#2A1A35" opacity="0.24"/><circle class="" cx="446.65" cy="295.56" r="1.69" fill="#2A1A35" opacity="0.14"/><circle class="" cx="484.77" cy="2784.28" r="1.25" fill="#2A1A35" opacity="0.17"/><circle class="" cx="409.69" cy="2257.94" r="1.61" fill="#2A1A35" opacity="0.14"/><circle class="" cx="1065.37" cy="1618.12" r="1.92" fill="#2A1A35" opacity="0.22"/><circle class="" cx="523.5" cy="829.92" r="2.36" fill="#2A1A35" opacity="0.07"/><circle class="" cx="131.88" cy="2133.38" r="1.24" fill="#2A1A35" opacity="0.24"/><circle class="" cx="44.59" cy="1806.57" r="1.31" fill="#2A1A35" opacity="0.19"/><circle class="" cx="172.34" cy="595" r="1.14" fill="#2A1A35" opacity="0.2"/><circle class="" cx="1083.68" cy="343.53" r="1.61" fill="#2A1A35" opacity="0.15"/><circle class="" cx="885.42" cy="831.73" r="1.15" fill="#2A1A35" opacity="0.16"/><circle class="" cx="376.53" cy="316.38" r="1.5" fill="#2A1A35" opacity="0.1"/><circle class="" cx="746.15" cy="314.31" r="0.75" fill="#2A1A35" opacity="0.2"/><circle class="" cx="101.9" cy="1527.57" r="2.18" fill="#2A1A35" opacity="0.18"/><circle class="" cx="614.17" cy="1964.38" r="1.14" fill="#2A1A35" opacity="0.08"/><circle class="" cx="1215.7" cy="2760.82" r="1.66" fill="#2A1A35" opacity="0.19"/><circle class="" cx="297.23" cy="643.25" r="1.78" fill="#2A1A35" opacity="0.16"/><circle class="" cx="1131.24" cy="695.24" r="1.23" fill="#2A1A35" opacity="0.24"/><circle class="" cx="376.55" cy="2814.49" r="0.96" fill="#2A1A35" opacity="0.1"/><circle class="" cx="94.9" cy="1432.93" r="1.1" fill="#2A1A35" opacity="0.12"/><circle class="" cx="1228.92" cy="13.17" r="0.72" fill="#2A1A35" opacity="0.17"/><circle class="" cx="782.46" cy="2221.61" r="2.21" fill="#2A1A35" opacity="0.06"/><circle class="" cx="337.82" cy="923.72" r="1.19" fill="#2A1A35" opacity="0.18"/><circle class="" cx="1295.36" cy="763.03" r="1.28" fill="#2A1A35" opacity="0.23"/><circle class="" cx="1128.82" cy="52.23" r="1.37" fill="#2A1A35" opacity="0.13"/><circle class="" cx="821.33" cy="2033.14" r="1.79" fill="#2A1A35" opacity="0.23"/><circle class="" cx="840.04" cy="360.88" r="1.01" fill="#2A1A35" opacity="0.24"/><circle class="" cx="1379.55" cy="421.9" r="1.18" fill="#2A1A35" opacity="0.17"/><circle class="" cx="1265.06" cy="1797.62" r="2.15" fill="#2A1A35" opacity="0.19"/><circle class="" cx="482.07" cy="1162.23" r="1.78" fill="#2A1A35" opacity="0.1"/><circle class="" cx="1148.9" cy="2415.92" r="1.9" fill="#2A1A35" opacity="0.24"/><circle class="" cx="1005.03" cy="2504.49" r="1.96" fill="#2A1A35" opacity="0.19"/><circle class="" cx="75.16" cy="1684.48" r="1.65" fill="#2A1A35" opacity="0.14"/><circle class="" cx="1180.76" cy="2257.74" r="1.38" fill="#2A1A35" opacity="0.17"/><circle class="" cx="1297.46" cy="188.83" r="1.02" fill="#2A1A35" opacity="0.08"/><circle class="" cx="422.44" cy="698.52" r="1.01" fill="#2A1A35" opacity="0.11"/><circle class="" cx="627.23" cy="2143.99" r="2.07" fill="#2A1A35" opacity="0.15"/><circle class="" cx="998.75" cy="3087.37" r="1.22" fill="#2A1A35" opacity="0.07"/><circle class="" cx="1148.09" cy="1853.32" r="1.15" fill="#2A1A35" opacity="0.09"/><circle class="" cx="115.3" cy="2049.92" r="0.75" fill="#2A1A35" opacity="0.18"/><circle class="" cx="1169.33" cy="557.17" r="1.85" fill="#2A1A35" opacity="0.21"/><circle class="" cx="744.65" cy="2432.66" r="2.38" fill="#2A1A35" opacity="0.17"/><circle class="" cx="292.01" cy="1010.22" r="2.22" fill="#2A1A35" opacity="0.21"/><circle class="" cx="1151.1" cy="2282.86" r="0.88" fill="#2A1A35" opacity="0.19"/><circle class="" cx="207.61" cy="2273.15" r="1.81" fill="#2A1A35" opacity="0.07"/><circle class="" cx="418.58" cy="610.14" r="1.37" fill="#2A1A35" opacity="0.22"/><circle class="" cx="624.35" cy="2918.75" r="1.42" fill="#2A1A35" opacity="0.15"/><circle class="" cx="604.8" cy="219.08" r="2.27" fill="#2A1A35" opacity="0.07"/><circle class="" cx="983.15" cy="1486.45" r="2.03" fill="#2A1A35" opacity="0.12"/><circle class="" cx="338.8" cy="2302.25" r="1.03" fill="#2A1A35" opacity="0.1"/><circle class="" cx="646.57" cy="2536.81" r="0.8" fill="#2A1A35" opacity="0.24"/><circle class="" cx="186.61" cy="206.83" r="1.7" fill="#2A1A35" opacity="0.13"/><circle class="" cx="620.19" cy="817.73" r="0.78" fill="#2A1A35" opacity="0.2"/><circle class="" cx="988.28" cy="58.03" r="2.07" fill="#2A1A35" opacity="0.22"/><circle class="" cx="1263.34" cy="2476.92" r="0.89" fill="#2A1A35" opacity="0.14"/><circle class="" cx="1320.52" cy="2401.33" r="1.11" fill="#2A1A35" opacity="0.25"/><circle class="" cx="780.8" cy="952.28" r="2.29" fill="#2A1A35" opacity="0.23"/><circle class="" cx="906.19" cy="971.6" r="1.79" fill="#2A1A35" opacity="0.2"/><circle class="" cx="385.51" cy="2666.69" r="2.36" fill="#2A1A35" opacity="0.24"/><circle class="" cx="643.55" cy="1560.22" r="2.13" fill="#2A1A35" opacity="0.15"/><circle class="" cx="913.67" cy="2142.11" r="1.16" fill="#2A1A35" opacity="0.08"/><circle class="" cx="1157.93" cy="445.85" r="1.55" fill="#2A1A35" opacity="0.17"/><circle class="" cx="660" cy="2460.13" r="2.27" fill="#2A1A35" opacity="0.14"/><circle class="" cx="1351.63" cy="1132.95" r="1.68" fill="#2A1A35" opacity="0.09"/><circle class="" cx="941.26" cy="1499.22" r="0.77" fill="#2A1A35" opacity="0.08"/><circle class="" cx="173.21" cy="888.03" r="1.13" fill="#2A1A35" opacity="0.17"/><circle class="" cx="1237.27" cy="997.09" r="1.67" fill="#2A1A35" opacity="0.22"/><circle class="" cx="1222.8" cy="189.15" r="1.95" fill="#2A1A35" opacity="0.09"/><circle class="" cx="282.99" cy="192.27" r="2.14" fill="#2A1A35" opacity="0.16"/><circle class="" cx="1252.89" cy="1366.67" r="1.5" fill="#2A1A35" opacity="0.24"/><circle class="" cx="1323.4" cy="519.73" r="1.46" fill="#2A1A35" opacity="0.17"/><circle class="" cx="742.64" cy="195.68" r="1.41" fill="#2A1A35" opacity="0.12"/><circle class="" cx="172.42" cy="1674.11" r="1.53" fill="#2A1A35" opacity="0.12"/><circle class="" cx="993.14" cy="1372.67" r="1.51" fill="#2A1A35" opacity="0.15"/><circle class="" cx="804.02" cy="2974.74" r="1.21" fill="#2A1A35" opacity="0.16"/><circle class="" cx="40.36" cy="2980.99" r="1.62" fill="#2A1A35" opacity="0.19"/><circle class="" cx="340.18" cy="2166.59" r="0.73" fill="#2A1A35" opacity="0.2"/><circle class="" cx="1103.37" cy="2630.64" r="1.23" fill="#2A1A35" opacity="0.24"/><circle class="" cx="347.24" cy="2048.1" r="1.76" fill="#2A1A35" opacity="0.16"/><circle class="" cx="17.44" cy="706.96" r="2.01" fill="#2A1A35" opacity="0.09"/><circle class="" cx="180.56" cy="519.84" r="0.71" fill="#2A1A35" opacity="0.23"/><circle class="" cx="179.39" cy="1695.86" r="2.25" fill="#2A1A35" opacity="0.16"/><circle class="" cx="1057.38" cy="2886.19" r="0.87" fill="#2A1A35" opacity="0.24"/><circle class="" cx="323.82" cy="2059.1" r="1.66" fill="#2A1A35" opacity="0.14"/><circle class="" cx="604.49" cy="2659.01" r="0.71" fill="#2A1A35" opacity="0.19"/><circle class="" cx="891.24" cy="2732.07" r="1.41" fill="#2A1A35" opacity="0.15"/><circle class="" cx="910.04" cy="1909.57" r="0.98" fill="#2A1A35" opacity="0.23"/><circle class="" cx="219.02" cy="1851.81" r="2.05" fill="#2A1A35" opacity="0.13"/><circle class="" cx="363" cy="317.33" r="1.86" fill="#2A1A35" opacity="0.22"/><circle class="" cx="439.07" cy="2728.75" r="0.77" fill="#2A1A35" opacity="0.07"/><circle class="" cx="960.52" cy="1260.33" r="1.67" fill="#2A1A35" opacity="0.12"/><circle class="" cx="89.13" cy="1422.02" r="1.17" fill="#2A1A35" opacity="0.15"/><circle class="" cx="615.28" cy="2266.84" r="1.14" fill="#2A1A35" opacity="0.24"/><circle class="" cx="1078.75" cy="1161.01" r="0.82" fill="#2A1A35" opacity="0.24"/><circle class="" cx="577.4" cy="3057.09" r="1.45" fill="#2A1A35" opacity="0.08"/><circle class="" cx="252.13" cy="727.1" r="0.91" fill="#2A1A35" opacity="0.12"/><circle class="" cx="826.07" cy="381.32" r="2.35" fill="#2A1A35" opacity="0.16"/><circle class="" cx="1010.12" cy="1722.85" r="1.67" fill="#2A1A35" opacity="0.2"/><circle class="" cx="1203.83" cy="885.81" r="1.71" fill="#2A1A35" opacity="0.14"/><circle class="" cx="1409.37" cy="2017.48" r="2.03" fill="#2A1A35" opacity="0.22"/><circle class="" cx="459.25" cy="2241.44" r="1.53" fill="#2A1A35" opacity="0.23"/><circle class="" cx="970.35" cy="2744.57" r="1.33" fill="#2A1A35" opacity="0.19"/><circle class="" cx="78.1" cy="1084.43" r="0.86" fill="#2A1A35" opacity="0.2"/><circle class="" cx="480.78" cy="1746.16" r="0.85" fill="#2A1A35" opacity="0.25"/><circle class="" cx="949.45" cy="1160.36" r="1.61" fill="#2A1A35" opacity="0.24"/><circle class="" cx="592.28" cy="1532.61" r="2.31" fill="#2A1A35" opacity="0.17"/><circle class="" cx="1178.96" cy="1216.55" r="0.96" fill="#2A1A35" opacity="0.21"/><circle class="" cx="602.04" cy="1643.26" r="2.27" fill="#2A1A35" opacity="0.08"/><circle class="" cx="192.89" cy="635.41" r="2.24" fill="#2A1A35" opacity="0.1"/><circle class="" cx="7.17" cy="2242.4" r="2.11" fill="#2A1A35" opacity="0.08"/><circle class="" cx="1167.05" cy="2778.78" r="1.42" fill="#2A1A35" opacity="0.18"/><circle class="" cx="1198.36" cy="1719.24" r="1.45" fill="#2A1A35" opacity="0.17"/><circle class="" cx="199.71" cy="50.18" r="1.4" fill="#2A1A35" opacity="0.08"/><circle class="" cx="1364.33" cy="2871.01" r="1.48" fill="#2A1A35" opacity="0.11"/><circle class="" cx="978.39" cy="354.8" r="0.81" fill="#2A1A35" opacity="0.24"/><circle class="" cx="1062.56" cy="2394.05" r="0.99" fill="#2A1A35" opacity="0.24"/><circle class="" cx="662.64" cy="2258.13" r="1.8" fill="#2A1A35" opacity="0.17"/><circle class="" cx="1400.43" cy="2214.28" r="1.55" fill="#2A1A35" opacity="0.2"/><circle class="" cx="326.8" cy="489.82" r="0.88" fill="#2A1A35" opacity="0.18"/><circle class="" cx="938.5" cy="2010.94" r="2.38" fill="#2A1A35" opacity="0.07"/><circle class="" cx="992.39" cy="546.16" r="1.5" fill="#2A1A35" opacity="0.25"/><circle class="" cx="522.75" cy="1510.83" r="1.39" fill="#2A1A35" opacity="0.24"/><circle class="" cx="204.27" cy="2923.67" r="2.02" fill="#2A1A35" opacity="0.1"/><circle class="" cx="331.7" cy="2718.18" r="0.9" fill="#2A1A35" opacity="0.12"/><circle class="" cx="552.35" cy="598.18" r="2.36" fill="#2A1A35" opacity="0.18"/><circle class="" cx="876.09" cy="1515.04" r="1.66" fill="#2A1A35" opacity="0.14"/><circle class="" cx="1036.43" cy="1811.38" r="2.36" fill="#2A1A35" opacity="0.23"/><circle class="" cx="1132.92" cy="1398.57" r="2.06" fill="#2A1A35" opacity="0.1"/><circle class="" cx="617.29" cy="2663.99" r="2.37" fill="#2A1A35" opacity="0.21"/><circle class="" cx="1016.75" cy="1258.81" r="1.24" fill="#2A1A35" opacity="0.08"/><circle class="" cx="1191.03" cy="1938.95" r="2.19" fill="#2A1A35" opacity="0.2"/><circle class="" cx="1081.54" cy="1615.92" r="2.34" fill="#2A1A35" opacity="0.21"/><circle class="" cx="383.68" cy="1153.17" r="1.98" fill="#2A1A35" opacity="0.09"/><circle class="" cx="97.11" cy="1338.06" r="1.53" fill="#2A1A35" opacity="0.21"/><circle class="" cx="1231.15" cy="1339.58" r="1.93" fill="#2A1A35" opacity="0.08"/><circle class="" cx="1401.91" cy="1570.4" r="2.2" fill="#2A1A35" opacity="0.21"/><circle class="" cx="395.34" cy="1069.15" r="2.28" fill="#2A1A35" opacity="0.16"/><circle class="" cx="625.42" cy="2362.8" r="1.54" fill="#2A1A35" opacity="0.2"/><circle class="" cx="448.05" cy="184.99" r="1.84" fill="#2A1A35" opacity="0.17"/><circle class="" cx="639.62" cy="3087.21" r="2.18" fill="#2A1A35" opacity="0.08"/><circle class="" cx="1379.52" cy="789.4" r="2.08" fill="#2A1A35" opacity="0.09"/><circle class="" cx="791.87" cy="614.18" r="1.79" fill="#2A1A35" opacity="0.24"/><circle class="" cx="322.52" cy="3051.81" r="0.78" fill="#2A1A35" opacity="0.14"/><circle class="" cx="526.64" cy="1515.26" r="2.12" fill="#2A1A35" opacity="0.15"/><circle class="" cx="116.01" cy="1862.91" r="1.9" fill="#2A1A35" opacity="0.24"/><circle class="" cx="39.56" cy="2233.42" r="0.71" fill="#2A1A35" opacity="0.22"/><circle class="" cx="329.81" cy="489.99" r="1.25" fill="#2A1A35" opacity="0.1"/><circle class="" cx="715.57" cy="745.75" r="0.9" fill="#2A1A35" opacity="0.23"/><circle class="" cx="326.26" cy="1804.2" r="1.85" fill="#2A1A35" opacity="0.22"/><circle class="" cx="1234.17" cy="1209.89" r="2.28" fill="#2A1A35" opacity="0.17"/><circle class="" cx="1335.54" cy="277.2" r="0.89" fill="#2A1A35" opacity="0.2"/><circle class="" cx="795.59" cy="509.24" r="0.75" fill="#2A1A35" opacity="0.1"/><circle class="" cx="1374.16" cy="3000.38" r="1.87" fill="#2A1A35" opacity="0.07"/><circle class="" cx="679.53" cy="2234.95" r="2.35" fill="#2A1A35" opacity="0.18"/><circle class="" cx="1068.25" cy="2793.05" r="1.44" fill="#2A1A35" opacity="0.12"/><circle class="" cx="677.48" cy="2673.24" r="0.83" fill="#2A1A35" opacity="0.11"/><circle class="" cx="1034.65" cy="2708.62" r="0.81" fill="#2A1A35" opacity="0.22"/><circle class="" cx="917.81" cy="1522.65" r="0.7" fill="#2A1A35" opacity="0.22"/><circle class="" cx="900.52" cy="2809.57" r="2.07" fill="#2A1A35" opacity="0.09"/><circle class="" cx="65.44" cy="876.41" r="0.75" fill="#2A1A35" opacity="0.18"/><circle class="" cx="330.26" cy="842.14" r="1.83" fill="#2A1A35" opacity="0.23"/><circle class="" cx="839.81" cy="1138.78" r="1.93" fill="#2A1A35" opacity="0.07"/><circle class="" cx="912.21" cy="657.46" r="0.72" fill="#2A1A35" opacity="0.09"/><circle class="" cx="1162.9" cy="1044.41" r="1.77" fill="#2A1A35" opacity="0.15"/><circle class="" cx="1072.15" cy="1497.81" r="1.12" fill="#2A1A35" opacity="0.16"/><circle class="" cx="960.04" cy="1760.18" r="2.24" fill="#2A1A35" opacity="0.15"/><circle class="" cx="458.66" cy="2328.93" r="2.09" fill="#2A1A35" opacity="0.09"/><circle class="" cx="1049.83" cy="2097.26" r="1.42" fill="#2A1A35" opacity="0.1"/><circle class="" cx="663.63" cy="1781.15" r="0.98" fill="#2A1A35" opacity="0.1"/><circle class="" cx="529.9" cy="2448.21" r="1.99" fill="#2A1A35" opacity="0.24"/><circle class="" cx="769.45" cy="40.33" r="2.23" fill="#2A1A35" opacity="0.2"/><circle class="" cx="249.29" cy="1223.6" r="2.19" fill="#2A1A35" opacity="0.18"/><circle class="" cx="1431.53" cy="383.98" r="0.94" fill="#2A1A35" opacity="0.24"/><circle class="" cx="10.71" cy="1260.32" r="1.9" fill="#2A1A35" opacity="0.14"/><circle class="" cx="95.48" cy="1861.05" r="1.19" fill="#2A1A35" opacity="0.21"/><circle class="" cx="458.23" cy="536.83" r="1.11" fill="#2A1A35" opacity="0.22"/><circle class="" cx="61.31" cy="937.04" r="1.56" fill="#2A1A35" opacity="0.18"/><circle class="" cx="704.02" cy="891.41" r="1.74" fill="#2A1A35" opacity="0.18"/><circle class="" cx="120.97" cy="1573.01" r="2.2" fill="#2A1A35" opacity="0.08"/><circle class="" cx="200.42" cy="1489.29" r="2.3" fill="#2A1A35" opacity="0.23"/><circle class="" cx="947.68" cy="2552.48" r="1.33" fill="#2A1A35" opacity="0.07"/><circle class="" cx="127.08" cy="2832.79" r="0.78" fill="#2A1A35" opacity="0.12"/><circle class="" cx="258.42" cy="554.79" r="1.15" fill="#2A1A35" opacity="0.06"/><circle class="" cx="1256.68" cy="522.9" r="1" fill="#2A1A35" opacity="0.06"/><circle class="" cx="719.27" cy="843.25" r="1.51" fill="#2A1A35" opacity="0.23"/><circle class="" cx="547.99" cy="1223.34" r="1.59" fill="#2A1A35" opacity="0.08"/><circle class="" cx="1181.04" cy="1015.44" r="1.05" fill="#2A1A35" opacity="0.23"/><circle class="" cx="110.67" cy="2194.43" r="2.03" fill="#2A1A35" opacity="0.16"/><circle class="" cx="620.71" cy="1467.5" r="2.14" fill="#2A1A35" opacity="0.24"/><circle class="" cx="392.06" cy="53.4" r="1.39" fill="#2A1A35" opacity="0.09"/><circle class="" cx="868.35" cy="1537.11" r="1.04" fill="#2A1A35" opacity="0.22"/><circle class="" cx="1298.4" cy="1612.17" r="2.2" fill="#2A1A35" opacity="0.1"/><circle class="" cx="1283.39" cy="2752.03" r="2.16" fill="#2A1A35" opacity="0.16"/><circle class="" cx="579.75" cy="733.52" r="1.84" fill="#2A1A35" opacity="0.15"/><circle class="" cx="151.42" cy="418.68" r="2.07" fill="#2A1A35" opacity="0.23"/><circle class="" cx="1250.97" cy="1417.34" r="2.01" fill="#2A1A35" opacity="0.18"/><circle class="" cx="1090.93" cy="255.92" r="1.62" fill="#2A1A35" opacity="0.19"/><circle class="" cx="278.4" cy="3001.55" r="1.65" fill="#2A1A35" opacity="0.09"/><circle class="" cx="805.51" cy="849.97" r="1.35" fill="#2A1A35" opacity="0.25"/><circle class="" cx="1253.29" cy="1034.23" r="1.42" fill="#2A1A35" opacity="0.08"/><circle class="" cx="559.7" cy="2713.56" r="1.38" fill="#2A1A35" opacity="0.23"/><circle class="" cx="1317.92" cy="437.87" r="1.3" fill="#2A1A35" opacity="0.24"/><circle class="" cx="496.81" cy="1202.81" r="1.85" fill="#2A1A35" opacity="0.2"/><circle class="" cx="85.64" cy="1600.73" r="2.32" fill="#2A1A35" opacity="0.11"/><circle class="" cx="209.54" cy="1598.73" r="2.23" fill="#2A1A35" opacity="0.18"/><circle class="" cx="1127.55" cy="558.18" r="0.85" fill="#2A1A35" opacity="0.22"/><circle class="" cx="1268.44" cy="2558.23" r="1.1" fill="#2A1A35" opacity="0.21"/><circle class="" cx="539.02" cy="1593.29" r="0.78" fill="#2A1A35" opacity="0.07"/><circle class="" cx="907.02" cy="2435.15" r="1.18" fill="#2A1A35" opacity="0.14"/><circle class="" cx="1238.04" cy="975.38" r="1.17" fill="#2A1A35" opacity="0.11"/><circle class="" cx="584.25" cy="1631.37" r="2.08" fill="#2A1A35" opacity="0.1"/><circle class="" cx="543.1" cy="924.3" r="2.37" fill="#2A1A35" opacity="0.14"/><circle class="" cx="373.02" cy="1060.77" r="2.17" fill="#2A1A35" opacity="0.2"/><circle class="" cx="257.32" cy="1121.04" r="1.12" fill="#2A1A35" opacity="0.1"/><circle class="" cx="742.8" cy="1782.8" r="1.95" fill="#2A1A35" opacity="0.23"/><circle class="" cx="1368.93" cy="1657.45" r="1.7" fill="#2A1A35" opacity="0.25"/><circle class="" cx="406.16" cy="1809.33" r="1.8" fill="#2A1A35" opacity="0.13"/><circle class="" cx="611.96" cy="2543.98" r="1.34" fill="#2A1A35" opacity="0.09"/><circle class="" cx="654.06" cy="2663.54" r="0.95" fill="#2A1A35" opacity="0.15"/><circle class="" cx="998.22" cy="1868.07" r="1.01" fill="#2A1A35" opacity="0.13"/><circle class="" cx="188.03" cy="2028.93" r="2.08" fill="#2A1A35" opacity="0.18"/><circle class="" cx="532.42" cy="975.12" r="1.89" fill="#2A1A35" opacity="0.09"/><circle class="" cx="81.66" cy="2546.53" r="1.44" fill="#2A1A35" opacity="0.18"/><circle class="" cx="380.28" cy="2078.6" r="1.75" fill="#2A1A35" opacity="0.15"/><circle class="" cx="494.99" cy="1524.82" r="2.39" fill="#2A1A35" opacity="0.11"/><circle class="" cx="73.12" cy="1906.67" r="2.23" fill="#2A1A35" opacity="0.11"/><circle class="" cx="661.98" cy="3009.84" r="2.1" fill="#2A1A35" opacity="0.09"/><circle class="" cx="528.65" cy="388.41" r="1.21" fill="#2A1A35" opacity="0.15"/><circle class="" cx="253.58" cy="1765.52" r="1.21" fill="#2A1A35" opacity="0.23"/><circle class="" cx="1018.87" cy="2351.8" r="1.74" fill="#2A1A35" opacity="0.24"/><circle class="" cx="706.69" cy="1201.76" r="1.67" fill="#2A1A35" opacity="0.2"/><circle class="" cx="96.11" cy="2948.41" r="0.98" fill="#2A1A35" opacity="0.07"/><circle class="" cx="683.75" cy="2591.46" r="1.57" fill="#2A1A35" opacity="0.15"/><circle class="" cx="969.07" cy="2099.18" r="1.77" fill="#2A1A35" opacity="0.21"/><circle class="" cx="805.83" cy="1602.59" r="1.65" fill="#2A1A35" opacity="0.18"/><circle class="" cx="22.73" cy="1028.32" r="1.09" fill="#2A1A35" opacity="0.22"/><circle class="" cx="1145.17" cy="2974.61" r="1.46" fill="#2A1A35" opacity="0.12"/><circle class="" cx="400.3" cy="901.01" r="2.37" fill="#2A1A35" opacity="0.11"/><circle class="" cx="810.29" cy="2579.13" r="1.36" fill="#2A1A35" opacity="0.11"/><path class="" d="M 225.07 1946.1 L 226.69 1948.98 L 229.57 1950.6 L 226.69 1952.22 L 225.07 1955.1 L 223.45 1952.22 L 220.57 1950.6 L 223.45 1948.98 Z" fill="#2A1A35" opacity="0.79"/><path class="" d="M 600.68 929.57 L 603.02 933.74 L 607.19 936.08 L 603.02 938.42 L 600.68 942.59 L 598.34 938.42 L 594.17 936.08 L 598.34 933.74 Z" fill="#FFC24D" opacity="0.88"/><path class="" d="M 1002.71 1668.31 L 1005.44 1673.16 L 1010.29 1675.89 L 1005.44 1678.62 L 1002.71 1683.47 L 999.98 1678.62 L 995.13 1675.89 L 999.98 1673.16 Z" fill="#FFC24D" opacity="0.65"/><path class="" d="M 335.37 2879.35 L 336.74 2881.79 L 339.18 2883.16 L 336.74 2884.53 L 335.37 2886.97 L 334 2884.53 L 331.56 2883.16 L 334 2881.79 Z" fill="#FFC24D" opacity="0.93"/><path class="" d="M 1028.06 1786.55 L 1029.45 1789.01 L 1031.91 1790.4 L 1029.45 1791.79 L 1028.06 1794.25 L 1026.67 1791.79 L 1024.21 1790.4 L 1026.67 1789.01 Z" fill="#FFC24D" opacity="0.74"/><path class="" d="M 165.16 712.35 L 167.76 716.97 L 172.38 719.57 L 167.76 722.17 L 165.16 726.79 L 162.56 722.17 L 157.94 719.57 L 162.56 716.97 Z" fill="#2A1A35" opacity="0.72"/><path class="" d="M 1156.19 653.99 L 1158.38 657.87 L 1162.26 660.06 L 1158.38 662.25 L 1156.19 666.13 L 1154 662.25 L 1150.12 660.06 L 1154 657.87 Z" fill="#FFC24D" opacity="0.73"/><path class="" d="M 1387.81 1247.36 L 1390.32 1251.83 L 1394.79 1254.34 L 1390.32 1256.85 L 1387.81 1261.32 L 1385.3 1256.85 L 1380.83 1254.34 L 1385.3 1251.83 Z" fill="#FFC24D" opacity="0.79"/><path class="" d="M 186.69 2474.78 L 188.02 2477.15 L 190.39 2478.48 L 188.02 2479.81 L 186.69 2482.18 L 185.36 2479.81 L 182.99 2478.48 L 185.36 2477.15 Z" fill="#FFC24D" opacity="0.59"/><path class="" d="M 842 718.23 L 844.81 723.23 L 849.81 726.04 L 844.81 728.85 L 842 733.85 L 839.19 728.85 L 834.19 726.04 L 839.19 723.23 Z" fill="#2A1A35" opacity="0.54"/><path class="" d="M 575.16 2843.19 L 577.97 2848.19 L 582.97 2851 L 577.97 2853.81 L 575.16 2858.81 L 572.35 2853.81 L 567.35 2851 L 572.35 2848.19 Z" fill="#2A1A35" opacity="0.92"/><path class="" d="M 103.98 2995.75 L 105.3 2998.09 L 107.64 2999.41 L 105.3 3000.73 L 103.98 3003.07 L 102.66 3000.73 L 100.32 2999.41 L 102.66 2998.09 Z" fill="#FFC24D" opacity="0.65"/><path class="" d="M 827.26 784.15 L 829.45 788.05 L 833.35 790.24 L 829.45 792.43 L 827.26 796.33 L 825.07 792.43 L 821.17 790.24 L 825.07 788.05 Z" fill="#FFC24D" opacity="0.53"/><path class="" d="M 1018.71 2350.94 L 1020.78 2354.61 L 1024.45 2356.68 L 1020.78 2358.75 L 1018.71 2362.42 L 1016.64 2358.75 L 1012.97 2356.68 L 1016.64 2354.61 Z" fill="#2A1A35" opacity="0.83"/><path class="" d="M 1229.21 994.01 L 1232.05 999.06 L 1237.1 1001.9 L 1232.05 1004.74 L 1229.21 1009.79 L 1226.37 1004.74 L 1221.32 1001.9 L 1226.37 999.06 Z" fill="#FFC24D" opacity="0.52"/><path class="" d="M 1328.23 1454.41 L 1330.25 1458.01 L 1333.85 1460.03 L 1330.25 1462.05 L 1328.23 1465.65 L 1326.21 1462.05 L 1322.61 1460.03 L 1326.21 1458.01 Z" fill="#FFC24D" opacity="0.89"/></g><g opacity="0.6" transform="translate(316.8 468) scale(14.4) rotate(-12)">
    <line x1="0" y1="6.4" x2="-9.12" y2="-3.84" stroke="#2A1A35" stroke-opacity="0.3" stroke-width="0.22"/><line x1="0" y1="6.4" x2="-3.2" y2="-8.32" stroke="#2A1A35" stroke-opacity="0.3" stroke-width="0.22"/><line x1="0" y1="6.4" x2="3.2" y2="-8.32" stroke="#2A1A35" stroke-opacity="0.3" stroke-width="0.22"/><line x1="0" y1="6.4" x2="9.12" y2="-3.84" stroke="#2A1A35" stroke-opacity="0.3" stroke-width="0.22"/>
    <path d="M 0 4.3 L 0.78 5.62 L 2.1 6.4 L 0.78 7.18 L 0 8.5 L -0.78 7.18 L -2.1 6.4 L -0.78 5.62 Z" fill="#FFC24D"/><path d="M -9.12 -5.34 L -8.57 -4.39 L -7.62 -3.84 L -8.57 -3.29 L -9.12 -2.34 L -9.67 -3.29 L -10.62 -3.84 L -9.67 -4.39 Z" fill="#2A1A35"/><path d="M -3.2 -9.82 L -2.65 -8.87 L -1.7 -8.32 L -2.65 -7.77 L -3.2 -6.82 L -3.75 -7.77 L -4.7 -8.32 L -3.75 -8.87 Z" fill="#2A1A35"/><path d="M 3.2 -9.82 L 3.75 -8.87 L 4.7 -8.32 L 3.75 -7.77 L 3.2 -6.82 L 2.65 -7.77 L 1.7 -8.32 L 2.65 -8.87 Z" fill="#2A1A35"/><path d="M 9.12 -5.34 L 9.67 -4.39 L 10.62 -3.84 L 9.67 -3.29 L 9.12 -2.34 L 8.57 -3.29 L 7.62 -3.84 L 8.57 -4.39 Z" fill="#2A1A35"/>
  </g><g opacity="0.55">
    <ellipse cx="720" cy="2107.2" rx="828" ry="273.6"
      transform="rotate(-16 720 2107.2)" fill="none"
      stroke="#2A1A35" stroke-opacity="0.4"
      stroke-width="8.64" stroke-dasharray="2 36" stroke-linecap="round"/>
    <circle cx="1481.76" cy="1956.72" r="21.6" fill="#FFC24D"/>
  </g><g transform="translate(360 1747.2) scale(6) rotate(-6 60 63)">
  <line x1="60" y1="20" x2="60" y2="12" stroke="url(#nebula)" stroke-width="4" stroke-linecap="round"/>
  <circle cx="60" cy="9.5" r="3.4" fill="#FFC24D"/>
  <rect x="40" y="94" width="40" height="16" rx="7" fill="url(#nebula)"/>
  <circle class="ch-glass" cx="60" cy="63" r="40" fill="#241833" fill-opacity="1"/>
  <g fill="#DE8F55">
    <rect x="34.5" y="40" width="14" height="37" rx="7" transform="rotate(16 41.5 58)"/>
    <rect x="71.5" y="40" width="14" height="37" rx="7" transform="rotate(-16 78.5 58)"/>
  </g>
  <circle cx="60" cy="64" r="24" fill="#F2BD79"/>
  <ellipse cx="60" cy="71.5" rx="11.5" ry="9" fill="#F9EDDC"/>
  <circle cx="51" cy="60" r="3.3" fill="#2A1A35"/>
  <circle cx="69" cy="60" r="3.3" fill="#2A1A35"/>
  <ellipse cx="60" cy="69.5" rx="4.6" ry="3.6" fill="#2A1A35"/>
  <path class="" d="M60 72.5 L60 76.5 M60 76.5 C57 79.6 54 78.6 53 76.4 M60 76.5 C63 79.6 66 78.6 67 76.4" fill="none" stroke="#2A1A35" stroke-width="1.8" stroke-linecap="round"/>
  <path d="M31 43 A 34 34 0 0 1 46 29" fill="none" stroke="#FFF6E9" stroke-opacity="0.4" stroke-width="4" stroke-linecap="round"/>
  <circle cx="60" cy="63" r="40" fill="none" stroke="url(#nebula)" stroke-width="7"/>
  <path d="M 75.5 28.5 L 78.2 33.3 L 83 36 L 78.2 38.7 L 75.5 43.5 L 72.8 38.7 L 68 36 L 72.8 33.3 Z" fill="#FFC24D"/>
  <circle cx="38" cy="86" r="1.8" fill="#FFC24D"/></g>
</svg>
