<?xml version="1.0" encoding="UTF-8" standalone="no"?>
<!DOCTYPE svg PUBLIC "-//W3C//DTD SVG 1.1//EN" "http://www.w3.org/Graphics/SVG/1.1/DTD/svg11.dtd">
<!-- Created with Linearity Curve (http://linearity.io/curve) -->
<svg height="100%" stroke-miterlimit="10" style="fill-rule:nonzero;clip-rule:evenodd;stroke-linecap:round;stroke-linejoin:round;" version="1.1" viewBox="0 0 905.918 138.126" width="100%" xml:space="preserve" xmlns="http://www.w3.org/2000/svg" xmlns:xlink="http://www.w3.org/1999/xlink">
<defs/>
<g id="Layer-1">
<g opacity="1">
<path d="M67.3732 34.6376C61.7066 39.1811 57.9708 46.9943 57.9708 55.8691L57.9708 106.825L28.5882 106.825C26.2795 106.825 24.3907 104.914 24.3907 102.578L24.3907 60.1154C24.3907 46.0601 33.7931 34.6376 45.3782 34.6376L67.3732 34.6376ZM83.1558 34.6376C73.883 34.6376 66.3658 46.0444 66.3658 60.1154C66.3658 74.1864 73.883 85.5931 83.1558 85.5931C92.4287 85.5931 99.9459 74.1864 99.9459 60.1154C99.9459 46.0444 92.4287 34.6376 83.1558 34.6376Z" fill="#665d5a" fill-rule="nonzero" opacity="1" stroke="none"/>
<g fill="#1f1f21" opacity="1" stroke="none">
<path d="M174.638 68.2845L174.638 80.7465C170.98 83.1025 167.012 84.2185 162.114 84.2185C157.216 84.2185 153.372 82.7305 150.582 79.7545C147.172 76.0965 145.374 70.6405 145.374 64.0065C145.374 51.5445 151.636 43.9185 161.866 43.9185C168.5 43.9185 172.654 46.7705 174.886 52.8465L179.722 51.2345C178.358 47.8865 177.242 46.0885 175.196 44.1665C171.91 41.1285 167.446 39.5785 161.928 39.5785C148.722 39.5785 140.29 49.0645 140.29 64.0065C140.29 72.3765 143.08 79.5065 147.916 83.7845C151.512 86.8845 156.162 88.3725 162.052 88.3725C165.214 88.3725 168.686 87.9385 171.29 87.1945C174.142 86.3885 176.002 85.5205 179.722 83.3505C179.35 80.8705 179.288 79.3825 179.288 76.4685L179.288 70.7645C179.288 67.9125 179.35 66.3625 179.722 63.7585C177.8 63.9445 176.064 64.0065 173.15 64.0065L171.352 64.0065C168.004 64.0065 166.454 63.9445 164.594 63.6345L164.594 68.6565C166.33 68.3465 167.756 68.2845 170.98 68.2845L174.638 68.2845Z"/>
<path d="M209.668 54.2725C207.064 53.8385 206.01 53.7145 204.15 53.7145C201.174 53.7145 199.066 54.3345 196.71 55.8845C195.408 56.7525 194.478 57.7445 193.3 59.6665C193.362 59.2325 193.362 58.3025 193.362 57.8065L193.362 54.2725L188.216 54.2725C188.526 56.5045 188.65 58.1785 188.65 61.2785L188.65 80.6845C188.65 83.2265 188.526 84.8385 188.216 87.6905L193.796 87.6905C193.486 85.2725 193.362 83.5365 193.362 80.7465L193.362 68.0985C193.61 65.3085 194.168 63.8205 195.656 61.8985C197.516 59.4185 200.12 58.1165 203.282 58.1165C204.832 58.1165 205.948 58.3025 208.304 59.0465L209.668 54.2725Z"/>
<path d="M236.948 87.6905L241.97 87.6905C241.598 85.2105 241.474 83.6605 241.474 80.8705L241.474 63.4485C241.474 56.7525 237.258 53.2805 229.074 53.2805C224.424 53.2805 220.704 54.4585 218.162 56.8145C216.612 58.1785 215.806 59.4805 214.69 62.3325L219.526 63.3865C220.146 61.5265 220.642 60.6585 221.448 59.7905C223.184 57.9925 225.726 57.1245 229.136 57.1245C234.282 57.1245 236.948 59.2945 236.948 63.5105L236.948 67.1065C229.322 67.2925 226.346 67.6645 222.688 68.7185C216.922 70.3305 213.822 73.9265 213.822 78.8865C213.822 84.7765 217.976 88.3105 224.796 88.3105C226.904 88.3105 229.136 87.8765 231.244 87.0705C233.352 86.2645 234.53 85.4585 236.948 83.2885L236.948 87.6905ZM236.948 74.7945C236.948 77.2745 236.452 78.5765 235.026 80.1265C232.608 82.7925 228.702 84.5285 225.106 84.5285C221.076 84.5285 218.534 82.3585 218.534 78.9485C218.534 75.9725 220.084 73.8645 223.246 72.5625C226.036 71.3845 229.57 70.9505 236.948 70.7645L236.948 74.7945Z"/>
<path d="M255.982 100.711C255.672 98.4165 255.548 96.6185 255.548 93.7045L255.548 86.0165C255.548 84.3425 255.486 83.4125 255.3 81.6765C258.214 85.9545 262.616 88.2485 268.072 88.2485C277.372 88.2485 283.324 81.4905 283.324 70.9505C283.324 60.1625 277.496 53.6525 267.948 53.6525C262.43 53.6525 258.09 55.9465 255.3 60.3485C255.424 59.2945 255.486 58.6125 255.486 57.8065L255.486 54.2725L250.526 54.2725C250.836 56.6285 250.96 58.4265 250.96 61.4025L250.96 93.7665C250.96 96.3085 250.836 98.2925 250.526 100.711L255.982 100.711ZM267.638 84.2185C264.414 84.2185 261.314 83.0405 259.144 80.9325C256.912 78.7625 255.61 75.0425 255.61 71.0125C255.61 63.0145 260.446 57.6825 267.576 57.6825C274.52 57.6825 278.488 62.5185 278.488 70.9505C278.488 79.1965 274.396 84.2185 267.638 84.2185Z"/>
<path d="M296.158 87.6905C295.848 85.2725 295.724 83.4125 295.724 80.6845L295.724 68.7805C296.282 66.1765 297.088 64.5025 298.824 62.2705C301.242 59.2325 304.094 57.7445 307.566 57.7445C312.402 57.7445 315.068 60.6585 315.068 66.0525L315.068 80.6845C315.068 83.7845 314.944 85.6445 314.634 87.6905L320.214 87.6905C319.904 85.3965 319.78 83.5985 319.78 80.7465L319.78 65.1845C319.78 57.9305 315.44 53.6525 308.186 53.6525C304.404 53.6525 301.552 54.7065 298.886 57.0005C297.398 58.2405 296.716 59.1705 295.476 61.2165C295.662 59.6045 295.662 59.1085 295.662 58.1165L295.662 47.6385C295.662 44.4765 295.786 42.8645 296.158 40.5705L290.64 40.5705C290.95 42.8645 291.074 44.4765 291.074 47.5765L291.074 80.6845C291.074 83.7845 290.95 85.4585 290.64 87.6905L296.158 87.6905Z"/>
<path d="M388.352 52.5365C386.864 48.6925 385.686 46.8325 383.516 44.7245C380.168 41.3765 375.456 39.7025 369.628 39.7025C363.738 39.7025 359.026 41.5005 355.43 44.9725C350.842 49.4985 348.362 56.2565 348.362 64.2545C348.362 72.0045 350.718 78.7625 355.058 83.1025C358.592 86.6985 363.614 88.5585 369.566 88.5585C376.51 88.5585 382.152 86.0165 385.624 81.3665C387.112 79.3825 387.918 77.6465 388.972 73.9885L383.826 72.7485C383.268 75.6005 382.648 77.1505 381.346 78.9485C378.804 82.2965 374.65 84.1565 369.752 84.1565C359.77 84.1565 353.384 76.3445 353.384 64.0685C353.384 51.7305 359.708 44.0425 369.752 44.0425C374.278 44.0425 377.998 45.5925 380.478 48.5065C381.78 49.9945 382.462 51.2965 383.392 53.9625L388.352 52.5365Z"/>
<path d="M411.478 88.4965C421.46 88.4965 427.908 81.5525 427.908 70.9505C427.908 60.2865 421.522 53.4665 411.416 53.4665C401.31 53.4665 394.862 60.2865 394.862 71.0125C394.862 81.7385 401.31 88.4965 411.478 88.4965ZM411.54 57.3725C418.67 57.3725 423.134 62.5805 423.134 70.9505C423.134 79.3205 418.67 84.4665 411.416 84.4665C404.162 84.4665 399.636 79.3205 399.636 70.8885C399.636 62.5185 404.162 57.3725 411.54 57.3725Z"/>
<path d="M440.742 87.6905C440.432 85.2725 440.308 83.4125 440.308 80.6845L440.308 68.7185C440.804 66.2385 441.548 64.6885 443.16 62.5805C445.764 59.2325 448.554 57.6825 452.026 57.6825C456.924 57.6825 459.59 60.6585 459.59 66.2385L459.59 80.6845C459.59 83.4125 459.466 85.2725 459.156 87.6905L464.736 87.6905C464.426 85.6445 464.302 83.9085 464.302 80.7465L464.302 65.4325C464.302 62.3945 463.744 60.1005 462.566 58.3025C460.582 55.2645 457.11 53.6525 452.646 53.6525C447.066 53.6525 443.036 56.0705 440.122 61.1545C440.308 59.7285 440.308 59.2325 440.308 58.4885L440.308 54.2725L435.162 54.2725C435.534 56.7525 435.658 58.4885 435.658 61.2785L435.658 80.6845C435.658 83.6605 435.534 85.3345 435.162 87.6905L440.742 87.6905Z"/>
<path d="M477.384 45.0345C477.694 47.0805 477.818 49.4365 477.818 51.9165L477.818 54.2725L475.338 54.2725C472.734 54.2725 471.494 54.2105 469.758 53.9005L469.758 58.6125C471.804 58.3645 473.23 58.2405 475.338 58.2405L477.818 58.2405L477.818 80.4365C477.818 83.3505 478.314 85.1485 479.554 86.3885C480.794 87.6285 482.902 88.3105 485.63 88.3105C488.172 88.3105 490.094 87.9385 492.636 86.8845L491.272 82.5445C489.226 83.7845 487.986 84.1565 486.374 84.1565C485.072 84.1565 484.018 83.7845 483.336 83.1025C482.778 82.5445 482.53 81.6145 482.53 79.8165L482.53 58.2405L485.506 58.2405C488.296 58.2405 489.846 58.3025 491.83 58.6125L491.83 53.9005C489.66 54.2105 488.358 54.2725 485.506 54.2725L482.53 54.2725L482.53 51.9165C482.53 49.2505 482.654 47.0185 482.964 45.0345L477.384 45.0345Z"/>
<path d="M527.046 71.6945C526.922 70.0205 526.674 67.6025 526.612 66.9205C525.372 58.6125 519.606 53.4665 511.608 53.4665C502.308 53.4665 496.232 60.4105 496.232 71.0125C496.232 81.7385 502.37 88.5585 512.104 88.5585C516.63 88.5585 520.412 87.0705 523.326 84.2185C524.752 82.7925 525.558 81.6765 526.736 79.0725L522.396 77.3365C520.66 82.1105 517.188 84.5905 512.166 84.5905C508.446 84.5905 505.408 83.1025 503.424 80.3745C501.75 78.1425 501.13 75.8485 500.944 71.6945L527.046 71.6945ZM501.13 67.7885C501.502 65.4325 501.812 64.3165 502.68 62.7665C504.54 59.2945 507.702 57.3725 511.484 57.3725C514.46 57.3725 516.878 58.3025 518.8 60.1625C520.784 62.0845 521.714 64.3165 522.086 67.7885L501.13 67.7885Z"/>
<path d="M561.952 87.6905C558.108 82.6065 558.108 82.6065 557.488 81.8005L549.304 70.3925L557.116 59.4185C558.17 57.9305 559.472 56.2565 560.898 54.2725L554.946 54.2725C554.388 55.5125 553.582 56.8765 552.528 58.4265L546.514 67.1685L540.438 58.4265C539.26 56.7525 538.64 55.6985 538.02 54.2725L531.944 54.2725C534.796 58.0545 535.292 58.6745 535.664 59.2325L543.662 70.3925L535.044 82.2965C533.68 84.2805 532.006 86.4505 531.014 87.6905L537.152 87.6905C538.082 85.9545 538.578 85.0245 539.57 83.6605L546.452 73.6165L553.024 83.1025C554.326 85.0865 554.946 86.0785 555.814 87.6905L561.952 87.6905Z"/>
<path d="M571.376 45.0345C571.686 47.0805 571.81 49.4365 571.81 51.9165L571.81 54.2725L569.33 54.2725C566.726 54.2725 565.486 54.2105 563.75 53.9005L563.75 58.6125C565.796 58.3645 567.222 58.2405 569.33 58.2405L571.81 58.2405L571.81 80.4365C571.81 83.3505 572.306 85.1485 573.546 86.3885C574.786 87.6285 576.894 88.3105 579.622 88.3105C582.164 88.3105 584.086 87.9385 586.628 86.8845L585.264 82.5445C583.218 83.7845 581.978 84.1565 580.366 84.1565C579.064 84.1565 578.01 83.7845 577.328 83.1025C576.77 82.5445 576.522 81.6145 576.522 79.8165L576.522 58.2405L579.498 58.2405C582.288 58.2405 583.838 58.3025 585.822 58.6125L585.822 53.9005C583.652 54.2105 582.35 54.2725 579.498 54.2725L576.522 54.2725L576.522 51.9165C576.522 49.2505 576.646 47.0185 576.956 45.0345L571.376 45.0345Z"/>
<path d="M618.62 87.6905C618.248 85.5825 618.124 83.6605 618.124 80.6845L618.124 68.4705L631.95 68.4705C641.622 68.4705 647.202 63.2005 647.202 54.0865C647.202 45.4685 641.808 40.5705 632.26 40.5705L619.612 40.5705C616.76 40.5705 615.024 40.5085 612.792 40.3845C613.164 42.9885 613.288 44.9105 613.288 47.4525L613.288 80.7465C613.288 83.6605 613.164 85.4585 612.792 87.6905L618.62 87.6905ZM618.124 64.1925L618.124 44.8485L631.95 44.8485C638.646 44.8485 642.242 48.1345 642.242 54.3345C642.242 60.6585 638.522 64.1925 631.95 64.1925L618.124 64.1925Z"/>
<path d="M674.916 54.2725C672.312 53.8385 671.258 53.7145 669.398 53.7145C666.422 53.7145 664.314 54.3345 661.958 55.8845C660.656 56.7525 659.726 57.7445 658.548 59.6665C658.61 59.2325 658.61 58.3025 658.61 57.8065L658.61 54.2725L653.464 54.2725C653.774 56.5045 653.898 58.1785 653.898 61.2785L653.898 80.6845C653.898 83.2265 653.774 84.8385 653.464 87.6905L659.044 87.6905C658.734 85.2725 658.61 83.5365 658.61 80.7465L658.61 68.0985C658.858 65.3085 659.416 63.8205 660.904 61.8985C662.764 59.4185 665.368 58.1165 668.53 58.1165C670.08 58.1165 671.196 58.3025 673.552 59.0465L674.916 54.2725Z"/>
<path d="M695.19 88.4965C705.172 88.4965 711.62 81.5525 711.62 70.9505C711.62 60.2865 705.234 53.4665 695.128 53.4665C685.022 53.4665 678.574 60.2865 678.574 71.0125C678.574 81.7385 685.022 88.4965 695.19 88.4965ZM695.252 57.3725C702.382 57.3725 706.846 62.5805 706.846 70.9505C706.846 79.3205 702.382 84.4665 695.128 84.4665C687.874 84.4665 683.348 79.3205 683.348 70.8885C683.348 62.5185 687.874 57.3725 695.252 57.3725Z"/>
<path d="M722.78 45.0345C723.09 47.0805 723.214 49.4365 723.214 51.9165L723.214 54.2725L720.734 54.2725C718.13 54.2725 716.89 54.2105 715.154 53.9005L715.154 58.6125C717.2 58.3645 718.626 58.2405 720.734 58.2405L723.214 58.2405L723.214 80.4365C723.214 83.3505 723.71 85.1485 724.95 86.3885C726.19 87.6285 728.298 88.3105 731.026 88.3105C733.568 88.3105 735.49 87.9385 738.032 86.8845L736.668 82.5445C734.622 83.7845 733.382 84.1565 731.77 84.1565C730.468 84.1565 729.414 83.7845 728.732 83.1025C728.174 82.5445 727.926 81.6145 727.926 79.8165L727.926 58.2405L730.902 58.2405C733.692 58.2405 735.242 58.3025 737.226 58.6125L737.226 53.9005C735.056 54.2105 733.754 54.2725 730.902 54.2725L727.926 54.2725L727.926 51.9165C727.926 49.2505 728.05 47.0185 728.36 45.0345L722.78 45.0345Z"/>
<path d="M758.244 88.4965C768.226 88.4965 774.674 81.5525 774.674 70.9505C774.674 60.2865 768.288 53.4665 758.182 53.4665C748.076 53.4665 741.628 60.2865 741.628 71.0125C741.628 81.7385 748.076 88.4965 758.244 88.4965ZM758.306 57.3725C765.436 57.3725 769.9 62.5805 769.9 70.9505C769.9 79.3205 765.436 84.4665 758.182 84.4665C750.928 84.4665 746.402 79.3205 746.402 70.8885C746.402 62.5185 750.928 57.3725 758.306 57.3725Z"/>
<path d="M810.2 63.0765C809.456 61.2785 808.898 60.2865 808.03 59.1085C805.364 55.3885 801.21 53.4045 796.064 53.4045C786.578 53.4045 780.378 60.4105 780.378 71.1365C780.378 81.7385 786.64 88.4965 796.374 88.4965C801.396 88.4965 805.364 86.6985 808.092 83.2885C809.146 81.9245 809.766 80.7465 810.634 78.5145L805.984 77.2745C805.55 78.7625 805.24 79.5065 804.62 80.4365C803.008 82.9785 800.094 84.4045 796.56 84.4045C789.616 84.4045 785.152 79.1965 785.152 71.0125C785.152 62.7045 789.492 57.3725 796.312 57.3725C800.9 57.3725 803.876 59.6665 805.674 64.5025L810.2 63.0765Z"/>
<path d="M832.83 88.4965C842.812 88.4965 849.26 81.5525 849.26 70.9505C849.26 60.2865 842.874 53.4665 832.768 53.4665C822.662 53.4665 816.214 60.2865 816.214 71.0125C816.214 81.7385 822.662 88.4965 832.83 88.4965ZM832.892 57.3725C840.022 57.3725 844.486 62.5805 844.486 70.9505C844.486 79.3205 840.022 84.4665 832.768 84.4665C825.514 84.4665 820.988 79.3205 820.988 70.8885C820.988 62.5185 825.514 57.3725 832.892 57.3725Z"/>
<path d="M856.514 40.5705C856.824 42.8025 856.948 44.4765 856.948 47.5145L856.948 80.7465C856.948 83.5365 856.824 85.4585 856.514 87.6905L862.094 87.6905C861.784 85.2105 861.66 83.5365 861.66 80.7465L861.66 47.5765C861.66 44.4765 861.784 42.8025 862.094 40.5705L856.514 40.5705Z"/>
</g>
</g>
</g>
</svg>
