<?xml version="1.0" encoding="UTF-8" standalone="no"?>
<!DOCTYPE svg PUBLIC "-//W3C//DTD SVG 1.1//EN" "http://www.w3.org/Graphics/SVG/1.1/DTD/svg11.dtd">
<!-- Created with Linearity Curve (http://linearity.io/curve) -->
<svg height="100%" stroke-miterlimit="10" style="fill-rule:nonzero;clip-rule:evenodd;stroke-linecap:round;stroke-linejoin:round;" version="1.1" viewBox="0 0 896.085 308.89" width="100%" xml:space="preserve" xmlns="http://www.w3.org/2000/svg" xmlns:xlink="http://www.w3.org/1999/xlink">
<defs/>
<g id="Layer-1">
<g opacity="1">
<g opacity="1">
<path d="M136.144 50.3006C136.849 50.9396 138.114 51.3763 138.258 52.2177C143.776 84.349 148.125 116.6 153.058 148.791C201.651 135.022 201.651 135.022 250.245 121.253C249.264 122.353 248.629 123.713 247.301 124.554C221.715 140.756 195.546 156.369 169.669 172.276C210.077 199.754 210.077 199.754 250.485 227.231C249.822 227.525 249.201 228.334 248.497 228.111C216.561 217.999 185.072 207.023 153.36 196.479C148.326 222.919 143.801 249.423 138.258 275.799C138.091 276.597 136.952 277.042 136.299 277.664C128.218 237.071 128.218 237.071 120.137 196.479C89.174 207.03 58.4336 218.003 27.2476 228.132C26.084 228.51 24.7426 227.958 23.49 227.871C25.2413 226.104 26.6083 224.046 28.7439 222.568C53.4282 205.486 78.7999 189.04 103.828 172.276C63.4362 147.065 63.4362 147.065 23.0444 121.855C24.4903 121.695 26.0037 120.994 27.3823 121.375C58.6269 130.017 89.4202 139.653 120.439 148.791C128.292 99.5459 128.292 99.5459 136.144 50.3006Z" fill="#619ae9" fill-rule="nonzero" opacity="1" stroke="none"/>
<path d="M136.144 50.3006C136.849 50.9396 138.114 51.3763 138.258 52.2177C143.776 84.349 148.125 116.6 153.058 148.791C201.651 135.022 201.651 135.022 250.245 121.253C249.264 122.353 247.301 124.554 247.301 124.554C247.301 124.554 195.546 156.369 169.669 172.276C210.077 199.754 210.077 199.754 250.485 227.231C249.822 227.525 249.201 228.334 248.497 228.111C216.561 217.999 185.072 207.023 153.36 196.479C148.326 222.919 143.801 249.423 138.258 275.799C138.091 276.597 136.952 277.042 136.299 277.664C128.218 237.071 128.218 237.071 120.137 196.479C89.174 207.03 58.4336 218.003 27.2476 228.132C26.084 228.51 24.7426 227.958 23.49 227.871C25.2413 226.104 26.6083 224.046 28.7439 222.568C53.4282 205.486 78.7999 189.04 103.828 172.276C63.4362 147.065 63.4362 147.065 23.0444 121.855C24.4903 121.695 26.0037 120.994 27.3823 121.375C58.6269 130.017 89.4202 139.653 120.439 148.791C128.292 99.5459 128.292 99.5459 136.144 50.3006Z" fill="#438bfa" fill-rule="nonzero" opacity="1" stroke="none"/>
<path d="M31.3426 124.828C69.21 148.835 69.21 148.835 107.077 172.842C69.059 198.44 69.059 198.44 31.0406 224.037C76.4949 209.419 76.4949 209.419 121.949 194.802C129.349 232.544 129.349 232.544 136.748 270.287C144.299 232.664 144.299 232.664 151.849 195.041C197.153 209.539 197.153 209.539 242.456 224.037C204.849 198.447 204.849 198.447 167.242 172.857C168.226 171.842 168.937 170.615 170.193 169.812C194.016 154.589 218.311 139.837 242.37 124.849C213.075 133.283 183.32 140.772 154.484 150.15C152.131 150.915 151.084 153.19 149.831 154.944C145.458 161.066 141.713 167.457 137.654 173.713C136.452 172.874 134.852 172.293 134.046 171.194C129.258 164.675 129.28 154.788 121.014 151.056C93.3257 138.556 61.2331 133.57 31.3426 124.828Z" fill="#4890ff" fill-opacity="0.917647" fill-rule="nonzero" opacity="1" stroke="none"/>
<path d="M136.446 58.9275C136.748 58.9275 136.748 58.9275 137.05 58.9275C141.077 85.5272 144.839 112.153 149.131 138.727C149.649 141.933 150.986 145.036 151.477 148.245C151.794 150.319 148.806 154.142 148.06 155.222C144.363 160.574 140.52 165.861 136.75 171.181C132.173 164.645 127.25 158.255 123.019 151.574C122.551 150.835 122.648 149.922 122.767 149.099C127.126 119.023 131.886 88.9848 136.446 58.9275Z" fill="#f3d182" fill-rule="nonzero" opacity="1" stroke="none"/>
<path d="M137.808 50.4007C137.958 51.0063 138.165 51.6049 138.258 52.2177C143.174 84.3925 148.377 116.542 152.836 148.758C153.129 150.874 151.418 154.491 150.222 156.242C146.501 161.691 142.68 167.103 138.57 172.373C138.088 172.991 137.201 173.339 136.516 173.822C131.313 166.647 125.948 159.545 120.907 152.298C120.576 151.822 120.362 151.249 120.439 150.708C125.184 117.547 130.18 84.4073 135.36 51.2868C135.581 49.8756 136.633 50.3299 137.808 50.4007Z" fill="#f4b027" fill-opacity="0.941176" fill-rule="nonzero" opacity="1" stroke="none"/>
<path d="M136.446 58.9275C131.763 89.172 125.866 119.314 122.396 149.661C122.166 151.673 124.246 153.436 125.437 155.222C129.034 160.617 132.977 165.861 136.747 171.181C141.324 164.645 146.288 158.271 150.478 151.574C150.995 150.747 150.872 149.729 150.739 148.811C146.394 118.83 141.613 88.8887 137.05 58.9275C136.748 58.9275 136.748 58.9275 136.446 58.9275Z" fill="#fdc555" fill-opacity="0.941176" fill-rule="nonzero" opacity="1" stroke="none"/>
</g>
<g fill="#101112" opacity="1" stroke="none">
<path d="M331.648 234.536C322.857 234.536 314.137 233.031 305.489 230.019C296.841 227.008 289.388 223.447 283.13 219.336L295.627 201.024C301.706 204.828 308.118 207.74 314.863 209.758C321.607 211.777 328.544 212.786 335.673 212.786C341.13 212.786 345.123 211.956 347.655 210.294C350.186 208.633 351.452 206.619 351.452 204.252C351.452 202.865 351.085 201.653 350.352 200.618C349.618 199.582 348.366 198.647 346.594 197.813C344.822 196.979 342.366 196.162 339.225 195.363C336.084 194.564 332.053 193.638 327.13 192.586C313.701 189.638 304.053 185.631 298.188 180.563C292.322 175.495 289.389 169.166 289.389 161.574C289.389 152.27 293.442 144.767 301.548 139.065C309.655 133.362 320.811 130.511 335.017 130.511C343.896 130.511 351.971 131.935 359.242 134.782C366.513 137.629 372.745 140.731 377.939 144.09L364.78 161.743C359.767 158.653 354.467 156.3 348.878 154.685C343.29 153.069 337.766 152.261 332.308 152.261C329.214 152.261 326.66 152.584 324.645 153.23C322.631 153.876 321.108 154.808 320.077 156.027C319.045 157.246 318.53 158.631 318.53 160.183C318.53 162.881 320.263 164.841 323.728 166.063C327.194 167.285 333.098 168.865 341.442 170.802C351.653 173.069 359.609 175.645 365.311 178.532C371.013 181.418 374.986 184.781 377.23 188.621C379.473 192.46 380.595 197.098 380.595 202.533C380.595 208.519 378.738 213.923 375.023 218.747C371.309 223.571 365.816 227.409 358.544 230.26C351.272 233.111 342.307 234.536 331.648 234.536Z"/>
<path d="M447.167 234.536C436.642 234.536 428.261 232.716 422.025 229.075C415.789 225.435 411.287 220.35 408.52 213.821C405.754 207.292 404.37 199.691 404.37 191.018L404.37 155.983L379.423 155.983L379.423 134.061L405.692 132.918L409.48 102.583L433.758 102.583L433.758 132.918L475.642 132.918L475.642 155.983L433.758 155.983L433.758 190.64C433.758 195.604 434.491 199.63 435.958 202.716C437.425 205.803 439.693 208.033 442.764 209.407C445.835 210.781 449.783 211.468 454.608 211.468C458.408 211.468 461.91 211.14 465.114 210.485C468.318 209.83 471.365 208.979 474.255 207.933L479.586 229.171C475.186 230.481 470.336 231.703 465.036 232.836C459.736 233.97 453.78 234.536 447.167 234.536Z"/>
<path d="M532.52 234.536C522.21 234.536 512.896 232.488 504.578 228.393C496.26 224.297 489.672 218.367 484.813 210.604C479.953 202.84 477.523 193.462 477.523 182.471C477.523 171.648 479.977 162.365 484.884 154.621C489.792 146.877 496.18 140.924 504.05 136.761C511.92 132.599 520.284 130.518 529.142 130.518C539.342 130.518 547.91 132.61 554.847 136.794C561.783 140.979 567.018 146.663 570.552 153.847C574.085 161.032 575.852 169.128 575.852 178.136C575.852 180.772 575.713 183.317 575.436 185.772C575.159 188.228 574.887 190.074 574.62 191.311L499.345 191.311L499.345 171.583L554.717 171.583L550.086 177.196C550.086 169.192 548.391 163.141 545 159.043C541.609 154.945 536.65 152.896 530.12 152.896C525.275 152.896 521.055 153.978 517.461 156.141C513.867 158.305 511.066 161.585 509.058 165.983C507.05 170.381 506.045 175.877 506.045 182.471C506.045 189.331 507.255 194.936 509.673 199.286C512.092 203.636 515.567 206.86 520.098 208.957C524.63 211.054 530.11 212.102 536.539 212.102C541.06 212.102 545.351 211.509 549.411 210.324C553.471 209.138 557.702 207.434 562.102 205.211L571.852 222.936C566.187 226.522 559.894 229.352 552.972 231.425C546.05 233.499 539.233 234.536 532.52 234.536Z"/>
<path d="M642.555 234.536C630.076 234.536 620.646 230.8 614.266 223.327C607.885 215.854 604.695 205.855 604.695 193.33L604.695 115.115L573.805 115.115L573.805 92.0458L634.083 92.0458L634.083 194.53C634.083 200.636 635.744 204.881 639.066 207.263C642.388 209.645 646.097 210.836 650.195 210.836C652.514 210.836 654.9 210.566 657.353 210.024C659.806 209.482 662.592 208.652 665.711 207.533L672.22 229.171C667.145 230.771 662.482 232.065 658.231 233.054C653.98 234.042 648.755 234.536 642.555 234.536Z"/>
<path d="M739.555 234.536C727.076 234.536 717.646 230.8 711.266 223.327C704.885 215.854 701.695 205.855 701.695 193.33L701.695 115.115L670.805 115.115L670.805 92.0458L731.083 92.0458L731.083 194.53C731.083 200.636 732.744 204.881 736.066 207.263C739.388 209.645 743.097 210.836 747.195 210.836C749.514 210.836 751.9 210.566 754.353 210.024C756.806 209.482 759.592 208.652 762.711 207.533L769.22 229.171C764.145 230.771 759.482 232.065 755.231 233.054C750.98 234.042 745.755 234.536 739.555 234.536Z"/>
<path d="M802.411 234.536C795.711 234.536 789.932 233.197 785.073 230.518C780.215 227.838 776.455 224.242 773.792 219.729C771.13 215.215 769.798 210.178 769.798 204.618C769.798 193.511 774.814 185.027 784.844 179.163C794.874 173.299 811.607 169.662 835.042 168.252C834.711 165.29 833.734 162.736 832.111 160.593C830.488 158.449 828.175 156.799 825.172 155.643C822.169 154.486 818.448 153.908 814.011 153.908C810.811 153.908 807.586 154.285 804.336 155.038C801.086 155.791 797.775 156.877 794.403 158.296C791.031 159.715 787.475 161.357 783.733 163.224L773.28 143.921C777.855 141.31 782.654 138.981 787.678 136.933C792.702 134.885 797.886 133.303 803.231 132.186C808.576 131.07 814.06 130.511 819.683 130.511C828.985 130.511 836.972 132.15 843.644 135.429C850.316 138.707 855.45 143.656 859.047 150.277C862.644 156.898 864.442 165.275 864.442 175.408L864.442 232.136L840.455 232.136L838.336 220.961L837.608 220.961C832.556 224.726 827.034 227.93 821.044 230.572C815.053 233.215 808.842 234.536 802.411 234.536ZM811.708 211.799C816.131 211.799 820.259 210.897 824.094 209.094C827.928 207.291 831.578 205.025 835.042 202.296L835.042 185.977C825.313 186.477 817.755 187.462 812.369 188.932C806.982 190.402 803.233 192.285 801.12 194.583C799.008 196.881 797.952 199.445 797.952 202.274C797.952 204.351 798.522 206.12 799.663 207.582C800.803 209.043 802.402 210.111 804.459 210.786C806.517 211.461 808.933 211.799 811.708 211.799Z"/>
</g>
</g>
</g>
</svg>
