<?xml version="1.0" encoding="UTF-8" standalone="no"?>
<!DOCTYPE svg PUBLIC "-//W3C//DTD SVG 1.1//EN" "http://www.w3.org/Graphics/SVG/1.1/DTD/svg11.dtd">
<!-- Created with Linearity Curve (http://linearity.io/curve) -->
<svg height="100%" stroke-miterlimit="10" style="fill-rule:nonzero;clip-rule:evenodd;stroke-linecap:round;stroke-linejoin:round;" version="1.1" viewBox="0 0 1024 269.912" width="100%" xml:space="preserve" xmlns="http://www.w3.org/2000/svg" xmlns:xlink="http://www.w3.org/1999/xlink">
<defs/>
<g id="Layer-1">
<g opacity="1">
<path d="M15.6143 206.405L15.6143 178.785L97.2952 132.505L15.9737 91.7757L15.9737 64.9817L127.433 124.319L127.433 140.177L15.6143 206.405Z" fill="#aca79f" fill-rule="nonzero" opacity="1" stroke="none"/>
<path d="M199.684 218.689C192.306 218.689 185.283 218.023 178.615 216.693C171.947 215.362 165.752 213.289 160.031 210.474C154.309 207.659 149.053 204.023 144.263 199.567L157.082 175.728L158.326 173.55L160.342 174.741C160.789 176.02 161.279 177.394 161.814 178.862C162.348 180.33 163.614 182.05 165.612 184.02C169.955 187.648 174.875 190.498 180.372 192.571C185.869 194.644 192.426 195.68 200.043 195.68C204.868 195.68 208.961 195.11 212.321 193.97C215.681 192.829 218.284 191.248 220.128 189.227C221.973 187.205 222.895 184.916 222.895 182.36C222.895 180.287 222.352 178.491 221.265 176.971C220.179 175.452 218.524 174.061 216.301 172.799C214.079 171.537 211.176 170.25 207.592 168.937C204.008 167.624 199.717 166.26 194.72 164.846C185.967 162.46 178.359 159.591 171.897 156.24C165.435 152.889 160.445 148.822 156.929 144.038C153.412 139.253 151.654 133.613 151.654 127.116C151.654 120.45 153.602 114.525 157.496 109.343C161.391 104.16 166.88 100.032 173.963 96.9559C181.045 93.8803 189.377 92.3425 198.957 92.3425C203.954 92.3425 208.719 92.7311 213.252 93.5085C217.785 94.2858 222.05 95.4262 226.047 96.9296C230.044 98.433 233.818 100.351 237.368 102.683C240.918 105.015 244.261 107.735 247.398 110.845L233.077 130.797L231.425 132.869L229.51 131.262C229.338 129.88 228.95 128.568 228.347 127.325C227.744 126.082 226.444 124.51 224.446 122.61C220.894 120.019 216.956 118.11 212.632 116.883C208.308 115.657 203.922 115.043 199.474 115.043C193.72 115.043 188.706 115.993 184.431 117.893C180.157 119.794 178.02 122.678 178.02 126.545C178.02 128.826 179.002 130.882 180.968 132.714C182.933 134.545 186.096 136.299 190.455 137.975C194.814 139.651 200.595 141.422 207.798 143.287C217.518 145.772 225.428 148.717 231.528 152.121C237.628 155.524 242.117 159.558 244.995 164.222C247.873 168.886 249.313 174.328 249.313 180.546C249.313 187.318 247.417 193.632 243.626 199.488C239.835 205.344 234.243 210.008 226.849 213.48C219.455 216.952 210.4 218.689 199.684 218.689Z" fill="#1f1f21" fill-rule="nonzero" opacity="1" stroke="none"/>
<path d="M336.81 218.377C329.952 218.377 323.955 217.263 318.819 215.035C313.683 212.807 309.461 209.179 306.154 204.152C302.846 199.125 300.468 192.466 299.021 184.174C297.574 175.882 297.074 165.622 297.521 153.392L300.933 66.7429L331.019 62.8562L333.45 62.5971L333.708 65.0343C332.949 66.2435 332.242 67.4527 331.588 68.6619C330.934 69.8711 330.485 71.944 330.243 74.8807L327.452 110.533L328.692 112.399L326.729 152.821C326.212 163.979 326.583 172.624 327.84 178.757C329.097 184.889 331.097 189.113 333.838 191.429C336.579 193.745 339.81 194.903 343.531 194.903C349.01 194.903 353.947 193.78 358.341 191.534C362.735 189.289 366.88 186.645 370.777 183.603L376.77 204.903C370.911 209.222 364.699 212.547 358.135 214.879C351.571 217.211 344.462 218.377 336.81 218.377ZM274.669 95.1927L367.311 95.1927L367 118.412L274.362 118.412L274.669 95.1927Z" fill="#1f1f21" fill-rule="nonzero" opacity="1" stroke="none"/>
<path d="M456.412 218.689C447.796 218.689 439.826 217.298 432.502 214.516C425.179 211.735 418.82 207.701 413.427 202.415C408.034 197.129 403.855 190.59 400.891 182.799C397.926 175.008 396.444 166.19 396.444 156.343C396.444 146.324 397.917 137.351 400.864 129.422C403.811 121.493 407.844 114.792 412.963 109.316C418.081 103.841 424.087 99.6435 430.98 96.7231C437.873 93.8027 445.283 92.3425 453.209 92.3425C460.135 92.3425 466.708 93.5692 472.929 96.0227C479.15 98.4762 484.621 102.147 489.343 107.035C494.064 111.923 497.803 118.038 500.56 125.379C503.318 132.721 504.696 141.229 504.696 150.902C504.696 152.7 504.679 154.825 504.646 157.279C504.612 159.732 504.509 161.805 504.337 163.497L424.671 163.497C425.016 169.128 426.153 173.973 428.084 178.032C430.015 182.092 432.504 185.426 435.554 188.034C438.603 190.643 442.032 192.578 445.841 193.838C449.649 195.098 453.604 195.729 457.705 195.729C461.428 195.729 464.944 195.383 468.252 194.692C471.56 194.001 474.73 192.818 477.763 191.144C480.796 189.469 483.657 187.214 486.344 184.38L501.336 198.996C497.545 203.487 493.306 207.218 488.62 210.188C483.933 213.159 478.885 215.318 473.474 216.666C468.063 218.015 462.376 218.689 456.412 218.689ZM425.136 141.525L476.368 141.525C476.368 137.239 475.817 133.464 474.714 130.199C473.611 126.935 472.009 124.171 469.906 121.908C467.803 119.645 465.235 117.952 462.202 116.829C459.169 115.706 455.74 115.144 451.917 115.144C448.503 115.144 445.305 115.655 442.325 116.675C439.344 117.695 436.665 119.302 434.288 121.495C431.91 123.688 429.928 126.434 428.342 129.734C426.757 133.033 425.688 136.964 425.136 141.525Z" fill="#1f1f21" fill-rule="nonzero" opacity="1" stroke="none"/>
<path d="M529.54 215.786L529.54 192.672L563.348 192.672L563.348 65.0343L531.09 65.0343L531.09 41.9206L592.921 41.9206L592.921 192.672L626.471 192.672L626.471 215.786L529.54 215.786Z" fill="#1f1f21" fill-rule="nonzero" opacity="1" stroke="none"/>
<path d="M656.432 215.786L656.432 192.672L690.241 192.672L690.241 65.0343L657.983 65.0343L657.983 41.9206L719.813 41.9206L719.813 192.672L753.363 192.672L753.363 215.786L656.432 215.786Z" fill="#1f1f21" fill-rule="nonzero" opacity="1" stroke="none"/>
<path d="M818.219 218.79C804.985 218.79 794.698 215.672 787.356 209.437C780.015 203.203 776.345 195.076 776.345 185.057C776.345 178.56 777.793 172.608 780.688 167.202C783.584 161.796 787.875 157.115 793.562 153.159C799.249 149.204 806.279 146.12 814.653 143.908C823.027 141.696 832.659 140.59 843.55 140.59C845.034 140.59 846.792 140.608 848.825 140.643C850.858 140.678 853.063 140.747 855.441 140.851C857.818 140.955 860.093 141.11 862.266 141.315L863.094 161.631C861.231 161.423 859.093 161.267 856.681 161.163C854.268 161.059 851.847 160.999 849.419 160.983C846.99 160.967 844.879 160.959 843.086 160.959C836.158 160.959 830.316 161.451 825.56 162.435C820.803 163.419 816.969 164.817 814.057 166.631C811.145 168.445 809.017 170.604 807.674 173.109C806.33 175.614 805.658 178.369 805.658 181.376C805.658 184.07 806.123 186.384 807.054 188.32C807.984 190.255 809.259 191.775 810.878 192.881C812.498 193.986 814.428 194.806 816.668 195.342C818.908 195.878 821.321 196.146 823.906 196.146C829.075 196.146 833.59 195.299 837.45 193.605C841.31 191.912 844.575 189.277 847.246 185.702C849.917 182.127 851.916 177.628 853.244 172.204C854.571 166.78 855.235 160.337 855.235 152.874C855.235 142.89 854.192 135.185 852.107 129.76C850.021 124.335 846.988 120.578 843.007 118.489C839.026 116.4 834.055 115.355 828.094 115.355C822.615 115.355 817.428 116.227 812.534 117.97C807.641 119.714 802.797 123.039 798.005 127.946L781.979 110.432C788.839 103.97 796.379 99.3574 804.598 96.5936C812.817 93.8297 821.08 92.4477 829.386 92.4477C836.934 92.4477 843.972 93.3202 850.503 95.0652C857.034 96.8102 862.79 99.7036 867.771 103.745C872.752 107.787 876.647 113.289 879.455 120.25C882.264 127.211 883.668 135.944 883.668 146.449L883.668 215.786L853.425 215.786L853.425 202.777C851.185 205.749 848.781 208.28 846.214 210.371C843.647 212.461 840.89 214.111 837.943 215.32C834.996 216.529 831.885 217.41 828.611 217.962C825.337 218.514 821.873 218.79 818.219 218.79Z" fill="#1f1f21" fill-rule="nonzero" opacity="1" stroke="none"/>
<path d="M902.102 241.956L902.102 218.531L1015.21 218.531L1015.21 241.956L902.102 241.956Z" fill="#898276" fill-rule="nonzero" opacity="1" stroke="none"/>
</g>
</g>
</svg>
