<?xml version="1.0" encoding="UTF-8" standalone="no"?>
<!DOCTYPE svg PUBLIC "-//W3C//DTD SVG 1.1//EN" "http://www.w3.org/Graphics/SVG/1.1/DTD/svg11.dtd">
<!-- Created with Linearity Curve (http://linearity.io/curve) -->
<svg height="100%" stroke-miterlimit="10" style="fill-rule:nonzero;clip-rule:evenodd;stroke-linecap:round;stroke-linejoin:round;" version="1.1" viewBox="0 0 371.187 138.126" width="100%" xml:space="preserve" xmlns="http://www.w3.org/2000/svg" xmlns:xlink="http://www.w3.org/1999/xlink">
<defs/>
<g id="Layer-1">
<g opacity="1">
<g opacity="1">
<path d="M24.0427 92.98C25.1775 97.6495 25.9718 99.5857 27.6738 101.977C31.8723 107.786 39.8152 110.861 50.1411 110.861C65.6867 110.861 75.3317 103.8 75.3317 92.4106C75.3317 87.7411 73.4027 83.4132 69.8851 80.5659C66.481 77.9465 62.8499 76.5798 51.8432 74.0742C44.808 72.5936 41.8577 71.6825 39.2479 70.2019C36.7515 68.8352 35.3899 66.5574 35.3899 63.9379C35.3899 57.9017 41.2904 53.6878 49.5738 53.6878C54.68 53.6878 58.7649 55.1684 61.3748 58.0156C62.9634 59.6101 63.5307 60.9768 64.2115 64.0518L73.1758 62.5712C71.7006 57.3323 70.112 54.7128 67.1618 52.2072C63.0768 48.5627 57.0629 46.7405 49.3468 46.7405C41.7442 46.7405 35.6168 48.7905 31.6453 52.6628C28.4681 55.7378 26.7661 59.6101 26.7661 63.7102C26.7661 68.7213 28.922 72.9353 32.8935 75.6687C36.7515 78.2881 40.6095 79.6548 49.6872 81.591C58.0841 83.2993 60.3535 83.9827 63.0768 85.691C65.4597 87.1716 66.5944 89.5633 66.5944 92.7522C66.5944 99.4718 60.3535 103.686 50.4815 103.686C44.6945 103.686 40.1557 102.319 37.3189 99.6996C35.0494 97.6495 34.1417 95.5995 33.3474 91.3855L24.0427 92.98Z" fill="#f9fbfc" fill-rule="nonzero" opacity="1" stroke="#f9fbfc" stroke-linecap="butt" stroke-linejoin="round" stroke-width="1"/>
<path d="M95.4161 31.2514C95.9835 35.0097 96.2104 39.3376 96.2104 43.8932L96.2104 48.221L91.6716 48.221C86.9058 48.221 84.6363 48.1071 81.4592 47.5377L81.4592 56.1934C85.2037 55.7378 87.8135 55.51 91.6716 55.51L96.2104 55.51L96.2104 96.2828C96.2104 101.636 97.1182 104.939 99.3876 107.216C101.657 109.494 105.515 110.747 110.508 110.747C115.16 110.747 118.678 110.064 123.33 108.127L120.834 100.155C117.089 102.433 114.82 103.116 111.869 103.116C109.487 103.116 107.558 102.433 106.309 101.18C105.288 100.155 104.834 98.4468 104.834 95.1439L104.834 55.51L110.281 55.51C115.387 55.51 118.224 55.6239 121.855 56.1934L121.855 47.5377C117.883 48.1071 115.501 48.221 110.281 48.221L104.834 48.221L104.834 43.8932C104.834 38.9959 105.061 34.8958 105.629 31.2514L95.4161 31.2514Z" fill="#f9fbfc" fill-rule="nonzero" opacity="1" stroke="#f9fbfc" stroke-linecap="butt" stroke-linejoin="round" stroke-width="1"/>
<path d="M186.307 80.2243C186.08 77.1492 185.626 72.7075 185.512 71.4547C183.243 56.1934 172.69 46.7405 158.052 46.7405C141.032 46.7405 129.911 59.4962 129.911 78.9715C129.911 98.6745 141.145 111.203 158.96 111.203C167.243 111.203 174.165 108.469 179.498 103.23C182.108 100.611 183.583 98.5607 185.739 93.7772L177.796 90.5883C174.619 99.3579 168.265 103.914 159.073 103.914C152.265 103.914 146.705 101.18 143.074 96.169C140.01 92.0689 138.876 87.8549 138.535 80.2243L186.307 80.2243ZM138.876 73.0492C139.556 68.7213 140.124 66.6713 141.712 63.824C145.116 57.4462 150.904 53.9156 157.825 53.9156C163.272 53.9156 167.697 55.6239 171.215 59.0406C174.846 62.5712 176.548 66.6713 177.229 73.0492L138.876 73.0492Z" fill="#f9fbfc" fill-rule="nonzero" opacity="1" stroke="#f9fbfc" stroke-linecap="butt" stroke-linejoin="round" stroke-width="1"/>
<path d="M199.469 23.0512C200.037 27.1513 200.263 30.2263 200.263 35.807L200.263 96.8523C200.263 101.977 200.037 105.508 199.469 109.608L209.682 109.608C209.114 105.052 208.887 101.977 208.887 96.8523L208.887 35.9209C208.887 30.2263 209.114 27.1513 209.682 23.0512L199.469 23.0512Z" fill="#f9fbfc" fill-rule="nonzero" opacity="1" stroke="#f9fbfc" stroke-linecap="butt" stroke-linejoin="round" stroke-width="1"/>
<path d="M225.794 23.0512C226.362 27.1513 226.589 30.2263 226.589 35.807L226.589 96.8523C226.589 101.977 226.362 105.508 225.794 109.608L236.007 109.608C235.44 105.052 235.213 101.977 235.213 96.8523L235.213 35.9209C235.213 30.2263 235.44 27.1513 236.007 23.0512L225.794 23.0512Z" fill="#f9fbfc" fill-rule="nonzero" opacity="1" stroke="#f9fbfc" stroke-linecap="butt" stroke-linejoin="round" stroke-width="1"/>
<path d="M292.516 109.608L301.707 109.608C301.026 105.052 300.799 102.205 300.799 97.0801L300.799 65.0768C300.799 52.7767 293.083 46.3988 278.105 46.3988C269.594 46.3988 262.786 48.5627 258.134 52.8906C255.297 55.3961 253.822 57.7878 251.779 63.0268L260.63 64.9629C261.765 61.5462 262.673 59.9518 264.148 58.3573C267.325 55.0545 271.977 53.46 278.218 53.46C287.636 53.46 292.516 57.4462 292.516 65.1907L292.516 71.7964C278.559 72.138 273.112 72.8214 266.417 74.7575C255.864 77.7187 250.191 84.3243 250.191 93.4356C250.191 104.255 257.793 110.747 270.275 110.747C274.133 110.747 278.218 109.95 282.076 108.469C285.934 106.989 288.09 105.508 292.516 101.522L292.516 109.608ZM292.516 85.9188C292.516 90.4744 291.608 92.8661 288.998 95.7134C284.573 100.611 277.424 103.8 270.843 103.8C263.467 103.8 258.815 99.8134 258.815 93.5495C258.815 88.0827 261.651 84.2104 267.438 81.8187C272.545 79.6548 279.012 78.8576 292.516 78.5159L292.516 85.9188Z" fill="#f9fbfc" fill-rule="nonzero" opacity="1" stroke="#f9fbfc" stroke-linecap="butt" stroke-linejoin="round" stroke-width="1"/>
<path d="M324.741 23.0512L327.351 38.0848L315.664 28.4041L311.238 35.0097L325.763 40.7043L311.579 46.0571L315.664 52.8906L327.465 43.096L324.741 58.3573L333.138 58.3573L330.415 43.096L342.102 52.8906L346.187 46.0571L332.117 40.7043L346.641 35.0097L342.216 28.4041L330.528 38.0848L333.138 23.0512L324.741 23.0512Z" fill="#ffdb00" fill-rule="nonzero" opacity="1" stroke="none"/>
</g>
</g>
</g>
</svg>
