<svg xmlns="http://www.w3.org/2000/svg" viewBox="0 0 120 120" width="512" height="512">

  <defs>
    <mask id="mEars"><rect width="120" height="120" fill="#fff"/><circle cx="60" cy="64" r="24" fill="#000"/></mask>
    <mask id="mRing"><rect width="120" height="120" fill="#fff"/><path d="M 88.3 24.2 L 92.1 30.9 L 98.8 34.7 L 92.1 38.5 L 88.3 45.2 L 84.5 38.5 L 77.8 34.7 L 84.5 30.9 Z" fill="#000"/></mask>
  </defs>
  <line class="ch-cs" x1="60" y1="20" x2="60" y2="12" stroke="#2A1A35" stroke-width="4" stroke-linecap="round"/>
  <circle class="ch-cf" cx="60" cy="9.5" r="3.4" fill="#2A1A35"/>
  <rect class="ch-cf" x="42" y="96" width="36" height="13" rx="6" fill="#2A1A35"/>
  <g  mask="url(#mEars)">
    <rect class="ch-cf" x="30.5" y="38" width="13" height="30" rx="6.5" transform="rotate(20 37 53)" fill="#2A1A35"/>
    <rect class="ch-cf" x="76.5" y="38" width="13" height="30" rx="6.5" transform="rotate(-20 83 53)" fill="#2A1A35"/>
  </g>
  <circle class="ch-cs" cx="60" cy="64" r="24" fill="none" stroke="#2A1A35" stroke-width="4"/>
  <circle class="ch-cf" cx="51" cy="60" r="3.3" fill="#2A1A35"/>
  <circle class="ch-cf" cx="69" cy="60" r="3.3" fill="#2A1A35"/>
  <ellipse class="ch-cf" cx="60" cy="69.5" rx="4.6" ry="3.6" fill="#2A1A35"/>
  <path class="ch-cs" d="M60 72.5 L60 76.5 M60 76.5 C57 79.6 54 78.6 53 76.4 M60 76.5 C63 79.6 66 78.6 67 76.4" fill="none" stroke="#2A1A35" stroke-width="1.8" stroke-linecap="round"/>
  <g mask="url(#mRing)"><circle class="ch-cs" cx="60" cy="63" r="40" fill="none" stroke="#2A1A35" stroke-width="7"/></g>
  <circle class="ch-cf" cx="38" cy="86" r="1.8" fill="#2A1A35"/>
</svg>
