<svg xmlns="http://www.w3.org/2000/svg" viewBox="0 0 320 250" width="640" height="500">
<defs><linearGradient id="nebula" x1="20" y1="23" x2="100" y2="103" gradientUnits="userSpaceOnUse"><stop offset="0" stop-color="#FF6D4D"/><stop offset=".55" stop-color="#F5487F"/><stop offset="1" stop-color="#A24BEA"/></linearGradient></defs><g transform="translate(100 0)">
  <line x1="60" y1="20" x2="60" y2="12" stroke="url(#nebula)" stroke-width="4" stroke-linecap="round"/>
  <circle cx="60" cy="9.5" r="3.4" fill="#FFC24D"/>
  <rect x="40" y="94" width="40" height="16" rx="7" fill="url(#nebula)"/>
  <circle class="ch-glass" cx="60" cy="63" r="40" fill="#241833" fill-opacity="1"/>
  <g fill="#DE8F55">
    <rect x="34.5" y="40" width="14" height="37" rx="7" transform="rotate(16 41.5 58)"/>
    <rect x="71.5" y="40" width="14" height="37" rx="7" transform="rotate(-16 78.5 58)"/>
  </g>
  <circle cx="60" cy="64" r="24" fill="#F2BD79"/>
  <ellipse cx="60" cy="71.5" rx="11.5" ry="9" fill="#F9EDDC"/>
  <circle cx="51" cy="60" r="3.3" fill="#2A1A35"/>
  <circle cx="69" cy="60" r="3.3" fill="#2A1A35"/>
  <ellipse cx="60" cy="69.5" rx="4.6" ry="3.6" fill="#2A1A35"/>
  <path class="" d="M60 72.5 L60 76.5 M60 76.5 C57 79.6 54 78.6 53 76.4 M60 76.5 C63 79.6 66 78.6 67 76.4" fill="none" stroke="#2A1A35" stroke-width="1.8" stroke-linecap="round"/>
  <path d="M31 43 A 34 34 0 0 1 46 29" fill="none" stroke="#FFF6E9" stroke-opacity="0.4" stroke-width="4" stroke-linecap="round"/>
  <circle cx="60" cy="63" r="40" fill="none" stroke="url(#nebula)" stroke-width="7"/>
  <path d="M 75.5 28.5 L 78.2 33.3 L 83 36 L 78.2 38.7 L 75.5 43.5 L 72.8 38.7 L 68 36 L 72.8 33.3 Z" fill="#FFC24D"/>
  <circle cx="38" cy="86" r="1.8" fill="#FFC24D"/></g><g transform="translate(40 130) scale(0.75)"><g class="ch-text" fill="none" stroke="#2A1A35" stroke-width="13" stroke-linecap="round" stroke-linejoin="round">
    <path d="M50 54 C46.5 49 37 47.5 31 51.5 C25.5 55.5 26.5 63 33.5 66 L43.5 70 C50.5 73 51.5 81 46 85 C40 89.5 29.5 88 25 82.5"/>
    <path d="M76 26 L76 79 A 15 15 0 0 0 91 94"/>
    <path d="M64 44 L89 44"/>
    <path d="M107 68 L143 68 A 18 18 0 1 0 138 81"/>
    <path d="M160 26 L160 79 A 15 15 0 0 0 175 94"/>
    <path d="M193 26 L193 79 A 15 15 0 0 0 208 94"/>
    <circle cx="243" cy="68" r="19"/>
    <path d="M262 52 L262 94"/>
  </g><path class="ch-star" d="M 285 26.5 L 289.3 35.2 L 298 39.5 L 289.3 43.8 L 285 52.5 L 280.7 43.8 L 272 39.5 L 280.7 35.2 Z" fill="#FFC24D"/></g>
</svg>
