<svg xmlns="http://www.w3.org/2000/svg" viewBox="20 -8 100 146" width="400" height="584">

  <path d="M76 128 C90 130 100 124 102 114" fill="none" class="ch-cs" stroke="#2A1A35" stroke-width="7" stroke-linecap="round"/>
  <ellipse cx="62" cy="112" rx="26" ry="22" fill="#2A1A35" class="ch-cf"/>
  <rect x="44" y="58" width="36" height="64" rx="18" fill="#2A1A35" class="ch-cf" transform="rotate(6 62 90)"/>
  <ellipse cx="57" cy="100" rx="13" ry="26" fill="#2A1A35" class="ch-cf" transform="rotate(6 57 100)"/>
  <rect x="47" y="102" width="8" height="28" rx="4" fill="#2A1A35" class="ch-cf"/>
  <rect x="61" y="104" width="8" height="28" rx="4" fill="#2A1A35" class="ch-cf"/>
  
  <rect x="44" y="46" width="24" height="11" rx="5" fill="#2A1A35" class="ch-cf" transform="rotate(10 56 51)"/>
  <g transform="translate(58 30) rotate(10)"><g fill="#2A1A35" class="ch-cf">
      <rect x="-15.5" y="-12" width="9" height="23" rx="4.5" transform="rotate(18 -11 -3)"/>
      <rect x="6.5" y="-12" width="9" height="23" rx="4.5" transform="rotate(-18 11 -3)"/>
      <circle cx="0" cy="0" r="15"/></g>
    <circle class="ch-cs" cx="0" cy="-1" r="24" fill="none" stroke="#2A1A35" stroke-width="4.6"/>
    <line class="ch-cs" x1="0" y1="-25" x2="0" y2="-30" stroke="#2A1A35" stroke-width="2.6" stroke-linecap="round"/>
    <circle class="ch-cf" cx="0" cy="-31.8" r="2.2" fill="#2A1A35"/></g>
  <path d="M 100 8 L 103.6 14.4 L 110 18 L 103.6 21.6 L 100 28 L 96.4 21.6 L 90 18 L 96.4 14.4 Z" fill="#2A1A35" class="ch-cf"/>
</svg>
